<svg id="svg" version="1.1" xmlns="http://www.w3.org/2000/svg" xmlns:xlink="http://www.w3.org/1999/xlink" width="400" height="400" viewBox="0, 0, 400,400"><g id="svgg"><path id="path0" d="M68.800 19.600 C 68.800 19.822,67.741 20.000,66.424 20.000 C 65.117 20.000,63.936 20.180,63.800 20.400 C 63.664 20.620,63.203 20.800,62.776 20.800 C 62.349 20.800,62.000 20.980,62.000 21.200 C 62.000 21.420,61.640 21.600,61.200 21.600 C 60.760 21.600,60.400 21.780,60.400 22.000 C 60.400 22.220,60.219 22.400,59.997 22.400 C 59.445 22.400,54.400 27.410,54.400 27.959 C 54.400 28.201,54.220 28.400,54.000 28.400 C 53.780 28.400,53.600 28.760,53.600 29.200 C 53.600 29.640,53.420 30.000,53.200 30.000 C 52.980 30.000,52.800 30.540,52.800 31.200 C 52.800 31.860,52.620 32.400,52.400 32.400 C 52.152 32.400,52.000 34.596,52.000 38.188 L 52.000 43.976 40.900 44.140 C 29.903 44.302,26.555 44.547,25.820 45.241 C 25.611 45.438,24.936 45.600,24.320 45.600 C 23.704 45.600,23.200 45.780,23.200 46.000 C 23.200 46.220,22.938 46.400,22.618 46.400 C 21.774 46.400,16.800 48.837,16.800 49.251 C 16.800 49.443,16.480 49.600,16.088 49.600 C 15.697 49.600,15.117 49.960,14.800 50.400 C 14.483 50.840,14.011 51.200,13.752 51.200 C 13.089 51.200,6.800 57.592,6.800 58.267 C 6.800 58.398,6.484 58.797,6.097 59.153 C 5.711 59.509,5.140 60.295,4.830 60.900 C 4.519 61.505,4.115 62.000,3.932 62.000 C 3.750 62.000,3.600 62.360,3.600 62.800 C 3.600 63.240,3.420 63.600,3.200 63.600 C 2.980 63.600,2.800 63.960,2.800 64.400 C 2.800 64.840,2.620 65.200,2.400 65.200 C 2.180 65.200,2.000 65.562,2.000 66.005 C 2.000 66.448,1.841 67.123,1.647 67.505 C 1.452 67.887,1.047 68.722,0.747 69.361 C -0.030 71.010,-0.076 354.084,0.700 354.860 C 0.975 355.135,1.200 355.774,1.200 356.280 C 1.200 356.786,1.380 357.200,1.600 357.200 C 1.820 357.200,2.000 357.560,2.000 358.000 C 2.000 358.440,2.180 358.800,2.400 358.800 C 2.620 358.800,2.800 359.160,2.800 359.600 C 2.800 360.040,2.980 360.400,3.200 360.400 C 3.420 360.400,3.600 360.760,3.600 361.200 C 3.600 361.640,3.780 362.000,4.000 362.000 C 4.220 362.000,4.400 362.360,4.400 362.800 C 4.400 363.240,4.580 363.600,4.800 363.600 C 5.020 363.600,5.200 363.848,5.200 364.152 C 5.200 364.455,5.920 365.445,6.800 366.352 C 7.680 367.259,8.400 368.149,8.400 368.329 C 8.400 369.276,15.770 375.200,16.948 375.200 C 17.306 375.200,17.600 375.380,17.600 375.600 C 17.600 375.820,17.960 376.000,18.400 376.000 C 18.840 376.000,19.200 376.180,19.200 376.400 C 19.200 376.620,19.560 376.800,20.000 376.800 C 20.440 376.800,20.800 376.980,20.800 377.200 C 20.800 377.420,21.160 377.600,21.600 377.600 C 22.040 377.600,22.400 377.780,22.400 378.000 C 22.400 378.220,22.940 378.400,23.600 378.400 C 24.260 378.400,24.800 378.580,24.800 378.800 C 24.800 379.020,25.419 379.200,26.176 379.200 C 26.933 379.200,27.664 379.380,27.800 379.600 C 27.936 379.820,29.567 380.000,31.424 380.000 C 33.408 380.000,34.800 380.165,34.800 380.400 C 34.800 380.666,90.133 380.800,200.000 380.800 C 309.867 380.800,365.200 380.666,365.200 380.400 C 365.200 380.165,366.592 380.000,368.576 380.000 C 370.433 380.000,372.064 379.820,372.200 379.600 C 372.336 379.380,373.067 379.200,373.824 379.200 C 374.581 379.200,375.200 379.020,375.200 378.800 C 375.200 378.580,375.740 378.400,376.400 378.400 C 377.060 378.400,377.600 378.220,377.600 378.000 C 377.600 377.780,377.960 377.600,378.400 377.600 C 378.840 377.600,379.200 377.420,379.200 377.200 C 379.200 376.980,379.434 376.800,379.720 376.800 C 380.456 376.800,382.393 375.859,382.397 375.500 C 382.399 375.335,382.694 375.200,383.052 375.200 C 384.292 375.200,391.600 369.296,391.600 368.294 C 391.600 368.089,392.095 367.444,392.700 366.860 C 393.305 366.277,394.055 365.305,394.368 364.700 C 394.680 364.095,395.085 363.600,395.268 363.600 C 395.450 363.600,395.600 363.240,395.600 362.800 C 395.600 362.360,395.780 362.000,396.000 362.000 C 396.220 362.000,396.400 361.640,396.400 361.200 C 396.400 360.760,396.580 360.400,396.800 360.400 C 397.020 360.400,397.200 360.040,397.200 359.600 C 397.200 359.160,397.380 358.800,397.600 358.800 C 397.820 358.800,398.000 358.440,398.000 358.000 C 398.000 357.560,398.180 357.200,398.400 357.200 C 398.620 357.200,398.800 356.786,398.800 356.280 C 398.800 355.774,399.025 355.135,399.300 354.860 C 399.688 354.472,399.823 348.178,399.904 326.680 C 400.014 297.438,400.025 297.641,398.200 296.639 C 397.760 296.398,397.285 296.042,397.144 295.848 C 396.671 295.197,392.828 296.304,390.684 297.708 C 388.399 299.206,388.400 299.189,388.400 324.389 C 388.400 337.089,388.241 348.002,388.047 348.640 C 387.852 349.278,387.456 350.610,387.165 351.600 C 385.015 358.921,378.120 365.354,370.213 367.413 C 366.750 368.315,33.188 368.299,29.724 367.397 C 20.811 365.076,14.481 358.421,12.034 348.800 C 11.694 347.464,11.605 316.815,11.688 229.800 L 11.800 112.600 30.700 112.400 L 49.601 112.200 50.940 111.131 C 53.808 108.842,53.654 104.434,50.629 102.276 C 49.416 101.412,49.148 101.397,30.600 101.200 L 11.800 101.000 11.674 90.200 C 11.485 74.061,12.607 69.833,18.720 63.639 C 24.397 57.885,29.347 56.417,43.100 56.407 L 52.400 56.400 52.400 60.580 C 52.400 83.135,77.936 89.187,86.236 68.600 C 86.414 68.160,86.658 65.280,86.779 62.200 L 87.000 56.600 95.571 56.492 C 105.672 56.364,104.786 55.807,104.794 62.285 C 104.824 86.665,138.053 87.615,138.701 63.254 C 138.775 60.474,138.922 57.792,139.027 57.292 L 139.219 56.384 147.910 56.492 L 156.600 56.600 156.829 62.400 C 157.319 74.828,165.678 82.612,176.507 80.723 C 185.733 79.113,190.563 72.805,191.076 61.692 L 191.320 56.385 199.960 56.492 L 208.600 56.600 208.841 62.200 C 208.973 65.280,209.292 68.340,209.550 69.000 C 214.389 81.390,228.934 84.951,237.936 75.950 C 241.763 72.123,243.200 67.918,243.200 60.545 L 243.200 56.400 252.000 56.400 L 260.800 56.400 260.814 60.900 C 260.863 76.316,272.720 85.125,285.400 79.166 C 292.053 76.039,294.771 71.263,295.168 62.000 L 295.400 56.600 303.971 56.492 C 314.089 56.364,313.186 55.778,313.194 62.481 C 313.197 65.304,313.400 68.060,313.651 68.681 C 318.788 81.439,332.757 85.043,342.017 76.000 C 345.709 72.395,346.893 69.407,347.086 63.207 C 347.172 60.453,347.330 57.780,347.437 57.266 L 347.632 56.333 358.316 56.477 C 374.104 56.690,380.945 59.934,385.543 69.389 C 388.222 74.897,388.464 76.692,388.319 90.000 L 388.200 101.000 229.169 101.200 L 70.138 101.400 68.745 102.462 C 65.847 104.673,65.815 108.861,68.679 111.146 L 70.000 112.200 229.100 112.400 L 388.200 112.600 388.400 195.818 C 388.591 275.164,388.634 279.086,389.322 280.137 C 390.129 281.369,392.247 282.796,393.271 282.799 C 393.641 282.799,394.244 283.102,394.613 283.470 C 395.153 284.010,395.430 284.049,396.036 283.670 C 396.450 283.412,396.989 283.200,397.234 283.200 C 397.479 283.200,398.204 282.638,398.845 281.952 L 400.010 280.704 399.905 175.452 C 399.822 92.156,399.696 70.012,399.300 69.300 C 398.240 67.392,398.000 66.784,398.000 66.005 C 398.000 65.562,397.820 65.200,397.600 65.200 C 397.380 65.200,397.200 64.840,397.200 64.400 C 397.200 63.960,397.020 63.600,396.800 63.600 C 396.580 63.600,396.400 63.240,396.400 62.800 C 396.400 62.360,396.220 62.000,396.000 62.000 C 395.780 62.000,395.600 61.730,395.600 61.400 C 395.600 61.070,395.420 60.800,395.200 60.800 C 394.980 60.800,394.800 60.607,394.800 60.371 C 394.800 60.136,394.575 59.705,394.300 59.413 C 394.025 59.122,393.080 58.024,392.200 56.973 C 389.859 54.177,386.790 51.200,386.248 51.200 C 385.989 51.200,385.517 50.840,385.200 50.400 C 384.883 49.960,384.303 49.600,383.912 49.600 C 383.520 49.600,383.200 49.439,383.200 49.242 C 383.200 48.808,378.306 46.400,377.425 46.400 C 377.081 46.400,376.800 46.220,376.800 46.000 C 376.800 45.780,376.296 45.600,375.680 45.600 C 375.064 45.600,374.389 45.438,374.180 45.241 C 373.445 44.547,370.097 44.302,359.100 44.140 L 348.000 43.976 348.000 38.588 C 348.000 35.263,347.847 33.200,347.600 33.200 C 347.380 33.200,347.200 32.660,347.200 32.000 C 347.200 31.340,347.020 30.800,346.800 30.800 C 346.580 30.800,346.400 30.350,346.400 29.800 C 346.400 29.250,346.220 28.800,346.000 28.800 C 345.780 28.800,345.600 28.530,345.600 28.200 C 345.600 27.870,345.420 27.600,345.200 27.600 C 344.980 27.600,344.800 27.416,344.800 27.191 C 344.800 26.659,340.541 22.400,340.009 22.400 C 339.784 22.400,339.600 22.220,339.600 22.000 C 339.600 21.780,339.240 21.600,338.800 21.600 C 338.360 21.600,338.000 21.420,338.000 21.200 C 338.000 20.980,337.561 20.800,337.024 20.800 C 336.487 20.800,335.936 20.620,335.800 20.400 C 335.664 20.180,334.498 20.000,333.210 20.000 C 331.699 20.000,330.802 19.822,330.686 19.500 C 330.541 19.100,330.335 19.100,329.658 19.500 C 329.192 19.775,327.908 20.000,326.805 20.000 C 325.702 20.000,324.800 20.180,324.800 20.400 C 324.800 20.620,324.260 20.800,323.600 20.800 C 322.940 20.800,322.400 20.980,322.400 21.200 C 322.400 21.420,322.080 21.600,321.688 21.600 C 321.297 21.600,320.717 21.960,320.400 22.400 C 320.083 22.840,319.575 23.200,319.272 23.200 C 318.546 23.200,315.359 26.592,314.712 28.053 C 314.433 28.684,314.069 29.200,313.902 29.200 C 313.736 29.200,313.600 29.549,313.600 29.976 C 313.600 30.403,313.420 30.864,313.200 31.000 C 312.980 31.136,312.800 31.856,312.800 32.600 C 312.800 33.344,312.620 34.064,312.400 34.200 C 312.169 34.342,312.000 36.471,312.000 39.224 L 312.000 44.000 303.800 44.000 L 295.600 44.000 295.600 38.200 C 295.600 34.600,295.448 32.400,295.200 32.400 C 294.980 32.400,294.800 31.860,294.800 31.200 C 294.800 30.540,294.620 30.000,294.400 30.000 C 294.180 30.000,294.000 29.640,294.000 29.200 C 294.000 28.760,293.820 28.400,293.600 28.400 C 293.380 28.400,293.200 28.160,293.200 27.866 C 293.200 27.099,288.585 22.400,287.832 22.400 C 287.484 22.400,287.200 22.220,287.200 22.000 C 287.200 21.780,286.840 21.600,286.400 21.600 C 285.960 21.600,285.600 21.420,285.600 21.200 C 285.600 20.980,285.240 20.800,284.800 20.800 C 284.360 20.800,284.000 20.620,284.000 20.400 C 284.000 20.178,282.941 20.000,281.624 20.000 C 280.317 20.000,279.136 19.820,279.000 19.600 C 278.864 19.380,278.403 19.200,277.976 19.200 C 277.549 19.200,277.200 19.380,277.200 19.600 C 277.200 19.822,276.133 20.000,274.800 20.000 C 273.467 20.000,272.400 20.178,272.400 20.400 C 272.400 20.620,272.076 20.800,271.680 20.800 C 270.786 20.800,268.807 21.694,268.803 22.100 C 268.801 22.265,268.623 22.400,268.407 22.400 C 267.328 22.400,263.061 26.902,261.975 29.185 C 261.501 30.183,260.953 31.311,260.758 31.692 C 260.563 32.072,260.285 34.997,260.140 38.192 L 259.876 44.000 251.938 44.000 L 244.000 44.000 244.000 39.400 C 244.000 36.600,243.843 34.800,243.600 34.800 C 243.380 34.800,243.200 34.080,243.200 33.200 C 243.200 32.320,243.020 31.600,242.800 31.600 C 242.580 31.600,242.400 31.060,242.400 30.400 C 242.400 29.740,242.264 29.200,242.098 29.200 C 241.931 29.200,241.564 28.677,241.281 28.037 C 240.751 26.841,237.571 23.200,237.055 23.200 C 236.896 23.200,236.380 22.840,235.908 22.400 C 235.436 21.960,234.813 21.600,234.525 21.600 C 234.236 21.600,234.000 21.420,234.000 21.200 C 234.000 20.980,233.460 20.800,232.800 20.800 C 232.140 20.800,231.600 20.620,231.600 20.400 C 231.600 20.178,230.544 20.000,229.233 20.000 C 227.708 20.000,226.808 19.824,226.702 19.505 C 226.570 19.111,226.314 19.111,225.449 19.505 C 224.852 19.777,223.381 20.000,222.181 20.000 C 220.982 20.000,220.000 20.180,220.000 20.400 C 220.000 20.620,219.640 20.800,219.200 20.800 C 218.760 20.800,218.400 20.980,218.400 21.200 C 218.400 21.420,218.040 21.600,217.600 21.600 C 217.160 21.600,216.800 21.780,216.800 22.000 C 216.800 22.220,216.520 22.400,216.178 22.400 C 215.134 22.400,210.749 27.219,209.639 29.585 C 208.688 31.613,208.589 32.314,208.472 37.900 L 208.344 44.000 200.009 44.000 L 191.673 44.000 191.532 38.100 C 191.397 32.416,191.345 32.104,190.116 29.585 C 188.865 27.021,185.708 23.200,184.840 23.200 C 184.598 23.200,184.400 23.020,184.400 22.800 C 184.400 22.580,184.130 22.400,183.800 22.400 C 183.470 22.400,183.200 22.220,183.200 22.000 C 183.200 21.780,182.840 21.600,182.400 21.600 C 181.960 21.600,181.600 21.420,181.600 21.200 C 181.600 20.980,181.161 20.800,180.624 20.800 C 180.087 20.800,179.536 20.620,179.400 20.400 C 179.264 20.180,178.083 20.000,176.776 20.000 C 175.459 20.000,174.400 19.822,174.400 19.600 C 174.400 19.380,174.130 19.200,173.800 19.200 C 173.470 19.200,173.200 19.380,173.200 19.600 C 173.200 19.822,172.133 20.000,170.800 20.000 C 169.467 20.000,168.400 20.178,168.400 20.400 C 168.400 20.620,167.860 20.800,167.200 20.800 C 166.540 20.800,166.000 20.980,166.000 21.200 C 166.000 21.420,165.680 21.600,165.288 21.600 C 164.897 21.600,164.317 21.960,164.000 22.400 C 163.683 22.840,163.185 23.200,162.894 23.200 C 161.900 23.200,158.400 27.358,158.400 28.538 C 158.400 28.902,158.220 29.200,158.000 29.200 C 157.780 29.200,157.600 29.560,157.600 30.000 C 157.600 30.440,157.420 30.800,157.200 30.800 C 156.980 30.800,156.800 31.520,156.800 32.400 C 156.800 33.280,156.620 34.000,156.400 34.000 C 156.155 34.000,156.000 35.933,156.000 39.000 L 156.000 44.000 147.800 44.000 L 139.600 44.000 139.600 38.424 C 139.600 35.137,139.436 32.746,139.200 32.600 C 138.980 32.464,138.800 32.020,138.800 31.614 C 138.800 29.575,133.040 22.400,131.403 22.400 C 131.071 22.400,130.800 22.220,130.800 22.000 C 130.800 21.780,130.440 21.600,130.000 21.600 C 129.560 21.600,129.200 21.420,129.200 21.200 C 129.200 20.980,128.840 20.800,128.400 20.800 C 127.960 20.800,127.600 20.620,127.600 20.400 C 127.600 20.178,126.541 20.000,125.224 20.000 C 123.917 20.000,122.736 19.820,122.600 19.600 C 122.278 19.080,120.800 19.080,120.800 19.600 C 120.800 19.822,119.733 20.000,118.400 20.000 C 117.067 20.000,116.000 20.178,116.000 20.400 C 116.000 20.620,115.550 20.800,115.000 20.800 C 114.450 20.800,114.000 20.980,114.000 21.200 C 114.000 21.420,113.640 21.600,113.200 21.600 C 112.760 21.600,112.400 21.780,112.400 22.000 C 112.400 22.220,112.170 22.400,111.888 22.400 C 111.607 22.400,111.117 22.760,110.800 23.200 C 110.483 23.640,110.070 24.000,109.883 24.000 C 109.442 24.000,108.400 25.042,108.400 25.483 C 108.400 25.670,108.040 26.083,107.600 26.400 C 107.160 26.717,106.800 27.207,106.800 27.488 C 106.800 27.770,106.620 28.000,106.400 28.000 C 106.180 28.000,106.000 28.360,106.000 28.800 C 106.000 29.240,105.820 29.600,105.600 29.600 C 105.380 29.600,105.200 30.050,105.200 30.600 C 105.200 31.150,105.020 31.600,104.800 31.600 C 104.580 31.600,104.400 32.579,104.400 33.776 C 104.400 34.973,104.220 36.064,104.000 36.200 C 103.779 36.337,103.600 38.137,103.600 40.224 L 103.600 44.000 95.825 44.000 L 88.050 44.000 87.854 39.700 C 87.613 34.409,87.233 31.600,86.760 31.600 C 86.562 31.600,86.400 31.238,86.400 30.795 C 86.400 30.058,85.714 28.487,85.181 28.000 C 85.060 27.890,84.526 27.170,83.994 26.400 C 82.748 24.597,82.159 24.000,81.629 24.000 C 81.393 24.000,81.200 23.820,81.200 23.600 C 81.200 23.380,80.970 23.200,80.688 23.200 C 80.407 23.200,79.917 22.840,79.600 22.400 C 79.283 21.960,78.703 21.600,78.312 21.600 C 77.920 21.600,77.600 21.420,77.600 21.200 C 77.600 20.980,77.060 20.800,76.400 20.800 C 75.740 20.800,75.200 20.620,75.200 20.400 C 75.200 20.180,74.221 20.000,73.024 20.000 C 71.827 20.000,70.736 19.820,70.600 19.600 C 70.464 19.380,70.003 19.200,69.576 19.200 C 69.149 19.200,68.800 19.380,68.800 19.600 M72.681 32.784 C 75.185 34.311,75.200 34.420,75.200 50.721 C 75.200 65.434,75.197 65.486,74.286 66.841 C 71.885 70.410,66.982 70.198,64.866 66.433 C 63.736 64.422,63.498 37.330,64.592 35.215 C 66.143 32.217,69.899 31.088,72.681 32.784 M125.276 33.202 C 126.400 34.129,126.834 34.867,127.167 36.422 C 127.734 39.063,127.743 62.094,127.178 64.726 C 126.132 69.607,120.693 71.026,117.568 67.234 L 116.400 65.818 116.400 50.509 L 116.400 35.200 118.000 33.600 C 120.150 31.450,122.964 31.296,125.276 33.202 M177.544 33.501 C 179.638 35.492,179.676 35.856,179.525 52.000 C 179.383 67.230,179.376 67.265,176.121 68.795 C 173.410 70.069,171.025 69.384,169.314 66.841 C 168.153 65.115,167.862 37.663,168.976 34.996 C 170.345 31.718,174.845 30.933,177.544 33.501 M228.526 32.463 C 231.507 34.042,231.673 35.097,231.526 51.600 C 231.383 67.680,231.475 67.215,228.146 68.826 C 225.235 70.235,221.982 68.923,220.827 65.874 C 220.048 63.820,220.260 36.615,221.068 34.913 C 222.263 32.395,226.049 31.151,228.526 32.463 M280.772 32.585 C 283.536 34.015,283.600 34.426,283.600 50.643 C 283.600 62.360,283.490 65.453,283.041 66.321 C 280.961 70.342,275.503 70.412,273.274 66.446 C 272.137 64.423,271.893 37.341,272.992 35.215 C 274.466 32.366,278.022 31.163,280.772 32.585 M333.241 32.909 C 335.732 34.576,335.963 36.035,335.982 50.280 C 336.005 66.365,335.724 67.598,331.679 69.193 C 329.032 70.237,325.501 68.064,324.777 64.945 C 324.307 62.916,324.313 38.266,324.784 36.200 C 325.626 32.515,330.068 30.787,333.241 32.909 M48.692 127.768 C 43.907 129.736,41.083 133.009,39.650 138.246 C 38.939 140.846,39.054 163.215,39.792 165.990 C 40.956 170.364,44.954 174.659,49.346 176.254 C 51.902 177.182,344.107 177.689,348.400 176.773 C 354.418 175.489,358.730 171.370,360.355 165.354 C 360.958 163.124,360.958 140.476,360.355 138.246 C 359.111 133.642,356.429 130.256,352.489 128.315 L 349.819 127.000 336.457 126.884 C 323.111 126.769,323.093 126.770,321.763 127.681 C 318.843 129.682,318.439 133.825,320.920 136.308 L 322.412 137.800 334.774 138.000 L 347.137 138.200 348.169 139.170 L 349.200 140.139 349.187 151.770 C 349.174 163.985,349.149 164.164,347.326 165.135 C 346.064 165.807,53.936 165.807,52.674 165.135 C 50.851 164.164,50.826 163.985,50.813 151.770 L 50.800 140.139 51.832 139.170 L 52.864 138.200 177.532 138.000 C 293.886 137.813,302.264 137.755,303.158 137.122 C 306.444 134.795,306.365 129.680,303.010 127.606 C 301.709 126.802,301.342 126.800,176.353 126.809 L 51.000 126.819 48.692 127.768 M71.968 193.986 C 63.885 195.433,61.900 199.445,62.076 213.979 C 62.237 227.258,63.364 229.719,70.400 232.163 C 72.726 232.971,94.489 233.094,97.399 232.316 C 104.297 230.471,106.000 226.630,106.000 212.917 L 106.000 202.928 104.773 200.472 C 103.362 197.648,101.115 195.544,98.453 194.554 C 96.382 193.784,75.590 193.338,71.968 193.986 M129.968 193.986 C 126.270 194.648,122.916 197.117,121.103 200.511 C 120.229 202.146,120.200 202.549,120.200 213.200 L 120.200 224.200 121.263 226.200 C 122.224 228.010,123.385 229.326,125.269 230.743 C 128.256 232.990,150.989 233.941,156.019 232.029 C 159.623 230.660,162.300 227.924,163.513 224.372 C 164.193 222.378,164.178 203.937,163.494 202.000 C 162.266 198.521,159.662 195.800,156.336 194.524 C 154.387 193.775,133.522 193.350,129.968 193.986 M187.943 193.990 C 184.135 194.670,181.230 196.729,179.387 200.058 L 178.200 202.200 178.200 213.200 L 178.200 224.200 179.263 226.200 C 179.847 227.300,180.837 228.659,181.463 229.220 C 185.287 232.650,186.065 232.800,200.000 232.800 C 213.935 232.800,214.713 232.650,218.537 229.220 C 219.163 228.659,220.153 227.300,220.737 226.200 L 221.800 224.200 221.800 213.200 L 221.800 202.200 220.560 200.000 C 219.220 197.621,216.461 195.240,214.070 194.399 C 212.338 193.789,190.941 193.455,187.943 193.990 M246.800 193.860 C 241.718 194.625,238.012 197.560,236.487 202.028 C 235.795 204.056,235.823 222.479,236.521 224.400 C 237.903 228.206,240.266 230.643,243.883 231.997 C 249.070 233.937,271.708 233.017,274.731 230.743 C 276.615 229.326,277.776 228.010,278.737 226.200 L 279.800 224.200 279.800 213.200 C 279.800 200.011,278.975 197.673,273.390 195.022 C 270.793 193.790,252.558 192.992,246.800 193.860 M303.973 194.003 C 295.981 195.357,294.009 199.120,294.004 213.029 C 293.999 226.812,295.552 230.280,302.646 232.325 C 305.321 233.096,327.293 232.964,329.600 232.163 C 336.636 229.719,337.763 227.258,337.924 213.979 C 338.083 200.839,337.000 197.684,331.420 195.036 C 328.571 193.685,309.986 192.985,303.973 194.003 M94.600 213.200 L 94.600 221.000 84.000 221.000 L 73.400 221.000 73.286 214.000 C 73.223 210.150,73.273 206.592,73.395 206.093 L 73.619 205.187 84.109 205.293 L 94.600 205.400 94.600 213.200 M152.360 205.752 C 152.677 206.134,152.785 208.571,152.709 213.652 L 152.600 221.000 142.000 221.000 L 131.400 221.000 131.291 213.429 C 131.207 207.640,131.302 205.782,131.691 205.535 C 132.648 204.928,151.843 205.129,152.360 205.752 M210.309 205.535 C 210.698 205.782,210.793 207.640,210.709 213.429 L 210.600 221.000 200.000 221.000 L 189.400 221.000 189.291 213.429 C 189.207 207.640,189.302 205.782,189.691 205.535 C 189.971 205.358,194.610 205.212,200.000 205.212 C 205.390 205.212,210.029 205.358,210.309 205.535 M268.309 205.535 C 268.698 205.782,268.793 207.640,268.709 213.429 L 268.600 221.000 258.000 221.000 L 247.400 221.000 247.291 213.652 C 247.215 208.571,247.323 206.134,247.640 205.752 C 248.157 205.129,267.352 204.928,268.309 205.535 M326.606 206.100 C 326.728 206.595,326.777 210.150,326.714 214.000 L 326.600 221.000 316.000 221.000 L 305.400 221.000 305.291 213.613 C 305.230 209.550,305.270 205.995,305.378 205.713 C 305.531 205.314,307.886 205.200,315.980 205.200 L 326.385 205.200 326.606 206.100 M256.100 247.398 C 245.548 249.727,237.348 263.282,239.765 274.400 C 240.298 276.849,241.835 281.524,242.987 284.200 C 246.480 292.312,249.764 298.497,253.686 304.347 C 267.306 324.666,289.207 340.431,313.200 347.186 C 314.190 347.465,315.539 347.892,316.198 348.135 C 318.437 348.963,325.863 348.683,329.000 347.654 C 337.561 344.844,345.212 335.632,345.196 328.154 C 345.184 322.831,343.555 320.147,335.993 312.988 C 325.297 302.862,322.837 302.006,312.400 304.773 C 302.897 307.293,303.311 307.336,298.960 303.400 C 298.717 303.180,297.597 302.280,296.472 301.400 C 294.115 299.556,284.016 289.407,283.009 287.869 C 282.306 286.798,282.362 286.044,283.619 279.600 C 285.437 270.277,284.658 265.733,280.499 261.400 C 268.499 248.898,263.167 245.838,256.100 247.398 M69.800 247.907 C 63.581 249.952,62.000 253.740,62.000 266.600 C 62.000 279.054,63.173 282.239,68.748 284.912 C 71.593 286.276,95.050 286.494,98.539 285.188 C 104.747 282.866,106.000 279.745,106.000 266.600 C 106.000 253.420,104.415 249.742,97.905 247.809 C 94.809 246.890,72.659 246.967,69.800 247.907 M128.136 247.764 C 125.210 248.697,123.254 250.387,121.200 253.759 L 120.200 255.400 120.200 266.400 C 120.200 278.885,120.214 278.952,123.497 282.463 C 126.649 285.832,127.529 286.000,142.000 286.000 C 156.126 286.000,157.262 285.799,160.408 282.746 C 163.712 279.539,164.000 278.245,164.000 266.600 C 164.000 253.726,163.056 251.173,157.240 248.307 C 154.953 247.180,131.347 246.739,128.136 247.764 M185.838 247.858 C 183.182 248.673,179.605 252.224,178.670 254.971 C 177.593 258.139,177.688 275.537,178.799 278.505 C 181.197 284.915,183.587 285.773,199.444 285.916 C 215.930 286.064,218.729 285.111,221.198 278.513 C 222.312 275.537,222.409 258.145,221.330 254.971 C 220.377 252.171,216.912 248.795,214.054 247.884 C 211.075 246.934,188.913 246.914,185.838 247.858 M94.320 258.880 C 94.827 259.387,95.037 272.918,94.557 274.167 C 94.241 274.991,74.496 275.136,73.680 274.320 C 73.065 273.705,73.007 260.308,73.614 259.174 C 74.123 258.224,93.390 257.950,94.320 258.880 M152.386 259.174 C 152.993 260.308,152.935 273.705,152.320 274.320 C 151.973 274.667,149.120 274.800,142.000 274.800 C 134.880 274.800,132.027 274.667,131.680 274.320 C 130.820 273.460,131.021 259.344,131.900 258.832 C 133.365 257.978,151.912 258.288,152.386 259.174 M210.320 258.880 C 210.658 259.218,210.800 261.502,210.800 266.600 C 210.800 271.698,210.658 273.982,210.320 274.320 C 209.637 275.003,190.363 275.003,189.680 274.320 C 189.004 273.644,189.004 259.556,189.680 258.880 C 190.027 258.533,192.880 258.400,200.000 258.400 C 207.120 258.400,209.973 258.533,210.320 258.880 M261.109 259.201 C 261.829 259.640,263.899 261.404,265.709 263.121 C 267.519 264.838,269.852 267.024,270.893 267.980 C 273.681 270.538,273.687 270.735,271.325 282.400 C 270.068 288.611,270.639 291.041,274.428 295.600 C 277.787 299.643,286.241 307.978,290.000 310.955 C 298.465 317.657,298.410 317.621,301.539 318.423 C 303.746 318.989,303.077 319.111,315.872 315.803 C 320.872 314.510,320.613 314.408,326.642 320.007 C 335.086 327.847,335.319 328.642,330.531 333.265 C 325.770 337.863,322.312 338.194,312.570 334.985 C 303.674 332.054,290.760 325.370,284.991 320.709 C 267.986 306.970,258.449 293.753,251.792 274.699 C 249.861 269.173,250.880 265.155,255.276 260.951 C 258.175 258.179,259.018 257.926,261.109 259.201 M71.800 300.755 C 63.905 302.187,61.912 306.257,62.081 320.595 L 62.200 330.660 63.407 333.019 C 66.260 338.593,68.408 339.312,82.800 339.509 C 104.253 339.802,105.800 338.489,105.800 320.000 C 105.800 306.405,105.091 304.434,99.200 301.666 C 96.919 300.593,76.444 299.913,71.800 300.755 M129.800 300.755 C 126.240 301.401,123.180 303.621,121.387 306.858 L 120.200 309.000 120.200 320.000 C 120.200 332.087,120.153 331.819,122.870 335.277 C 125.855 339.076,128.138 339.591,142.000 339.591 C 157.668 339.591,161.030 338.294,163.460 331.315 C 164.180 329.248,164.208 310.823,163.494 308.800 C 162.309 305.441,160.300 303.214,157.000 301.600 C 154.918 300.582,134.289 299.941,129.800 300.755 M187.800 300.755 C 184.128 301.421,181.227 303.537,179.357 306.913 L 178.200 309.000 178.200 320.000 L 178.200 331.000 179.400 333.169 C 182.429 338.643,184.482 339.314,198.800 339.505 C 220.265 339.791,222.161 338.115,221.925 319.066 L 221.800 309.000 220.613 306.858 C 219.294 304.476,217.531 302.852,214.812 301.514 C 212.911 300.578,192.014 299.991,187.800 300.755 M94.557 312.633 C 94.874 313.457,94.874 326.543,94.557 327.367 C 94.189 328.326,73.811 328.326,73.443 327.367 C 73.126 326.543,73.126 313.457,73.443 312.633 C 73.811 311.674,94.189 311.674,94.557 312.633 M152.557 312.633 C 152.874 313.457,152.874 326.543,152.557 327.367 C 152.189 328.326,131.811 328.326,131.443 327.367 C 131.309 327.019,131.200 323.704,131.200 320.000 C 131.200 316.296,131.309 312.981,131.443 312.633 C 131.811 311.674,152.189 311.674,152.557 312.633 M210.557 312.633 C 210.691 312.981,210.800 316.296,210.800 320.000 C 210.800 323.704,210.691 327.019,210.557 327.367 C 210.189 328.326,189.811 328.326,189.443 327.367 C 189.309 327.019,189.200 323.704,189.200 320.000 C 189.200 316.296,189.309 312.981,189.443 312.633 C 189.811 311.674,210.189 311.674,210.557 312.633 " stroke="none" fill="#060505" fill-rule="evenodd"></path><path id="path1" d="M228.000 32.600 C 228.550 32.914,229.180 33.172,229.400 33.172 C 229.620 33.172,229.350 32.914,228.800 32.600 C 228.250 32.286,227.620 32.028,227.400 32.028 C 227.180 32.028,227.450 32.286,228.000 32.600 M73.599 33.900 C 74.122 34.615,74.613 35.200,74.689 35.200 C 74.993 35.200,74.001 33.700,73.345 33.167 C 72.913 32.816,73.010 33.096,73.599 33.900 M125.634 33.847 C 126.165 34.533,126.680 35.023,126.779 34.935 C 126.877 34.847,126.443 34.286,125.813 33.688 L 124.669 32.600 125.634 33.847 M169.923 33.500 C 169.218 34.321,168.690 35.200,168.901 35.200 C 168.983 35.200,169.449 34.660,169.937 34.000 C 170.901 32.696,170.892 32.372,169.923 33.500 M64.243 35.833 C 63.894 36.742,63.954 64.909,64.306 65.462 C 64.468 65.716,64.600 59.011,64.600 50.562 C 64.600 42.113,64.574 35.200,64.543 35.200 C 64.511 35.200,64.376 35.485,64.243 35.833 M74.893 36.800 C 74.893 37.570,74.975 37.885,75.076 37.500 C 75.176 37.115,75.176 36.485,75.076 36.100 C 74.975 35.715,74.893 36.030,74.893 36.800 M272.581 50.600 C 272.581 58.740,272.634 62.013,272.700 57.874 C 272.765 53.734,272.765 47.074,272.699 43.074 C 272.634 39.073,272.581 42.460,272.581 50.600 M231.381 50.600 C 231.380 58.520,231.434 61.817,231.499 57.926 C 231.565 54.035,231.565 47.555,231.500 43.526 C 231.434 39.497,231.381 42.680,231.381 50.600 M179.380 50.600 C 179.380 58.300,179.434 61.393,179.499 57.474 C 179.565 53.555,179.565 47.255,179.499 43.474 C 179.434 39.693,179.380 42.900,179.380 50.600 M324.580 50.600 C 324.580 58.080,324.634 61.083,324.699 57.274 C 324.765 53.465,324.765 47.345,324.699 43.674 C 324.633 40.003,324.579 43.120,324.580 50.600 M127.379 50.600 C 127.379 57.860,127.433 60.886,127.499 57.325 C 127.565 53.764,127.566 47.824,127.499 44.125 C 127.433 40.426,127.379 43.340,127.379 50.600 M335.779 50.600 C 335.779 57.860,335.833 60.886,335.899 57.325 C 335.965 53.764,335.966 47.824,335.899 44.125 C 335.833 40.426,335.779 43.340,335.779 50.600 M30.800 57.022 C 21.163 59.092,13.689 66.907,12.017 76.662 C 11.712 78.440,11.592 83.185,11.674 90.200 L 11.800 101.000 30.600 101.200 C 51.742 101.425,50.810 101.284,52.451 104.500 C 53.275 106.114,53.883 106.323,53.409 104.828 C 52.439 101.773,49.693 100.400,44.551 100.400 L 40.800 100.400 40.800 78.800 L 40.800 57.200 43.800 57.200 L 46.800 57.200 46.805 61.900 C 46.817 73.572,52.530 81.696,63.166 85.163 C 67.062 86.434,75.998 86.135,77.447 84.686 C 77.605 84.529,77.964 84.400,78.245 84.400 C 79.349 84.400,83.637 81.489,85.906 79.199 C 90.402 74.661,91.976 70.589,92.286 62.700 L 92.503 57.200 95.592 57.200 L 98.681 57.200 98.910 62.700 C 99.491 76.637,108.547 86.000,121.447 86.000 C 135.262 86.000,144.400 76.438,144.400 61.980 L 144.400 57.200 147.600 57.200 L 150.800 57.200 150.814 61.300 C 150.864 75.888,160.283 85.981,173.862 85.996 C 187.235 86.010,196.772 75.739,196.794 61.300 L 196.800 57.200 199.979 57.200 L 203.158 57.200 203.309 62.700 C 203.699 76.926,212.455 85.981,225.834 85.996 C 239.054 86.010,248.017 76.860,248.670 62.684 L 248.924 57.169 251.962 57.284 L 255.000 57.400 255.242 62.800 C 256.671 94.636,300.685 93.573,300.786 61.700 L 300.800 57.200 304.000 57.200 L 307.200 57.200 307.200 61.673 C 307.200 75.880,316.621 86.000,329.847 86.000 C 344.058 86.000,353.200 75.733,353.200 59.771 L 353.200 57.200 361.376 57.200 C 366.396 57.200,369.648 57.354,369.800 57.600 C 369.936 57.820,370.577 58.000,371.224 58.000 C 371.871 58.000,372.400 58.180,372.400 58.400 C 372.400 58.620,372.653 58.800,372.962 58.800 C 376.085 58.800,385.600 67.954,385.600 70.958 C 385.600 71.285,385.759 71.651,385.952 71.770 C 386.312 71.993,386.521 72.687,387.284 76.200 C 387.523 77.300,387.787 83.195,387.871 89.300 L 388.024 100.400 229.661 100.400 C 91.558 100.400,71.118 100.475,69.897 100.985 C 68.406 101.608,66.628 103.453,66.191 104.828 C 65.728 106.286,66.366 106.180,66.986 104.695 C 67.314 103.909,68.172 102.847,68.891 102.333 L 70.200 101.400 229.200 101.200 L 388.200 101.000 388.319 90.000 C 388.464 76.692,388.222 74.897,385.543 69.389 C 380.945 59.934,374.104 56.690,358.316 56.477 L 347.632 56.333 347.437 57.266 C 347.330 57.780,347.172 60.453,347.086 63.207 C 346.447 83.724,321.362 87.831,313.651 68.681 C 313.400 68.060,313.197 65.304,313.194 62.481 C 313.186 55.778,314.089 56.364,303.971 56.492 L 295.400 56.600 295.168 62.000 C 294.771 71.263,292.053 76.039,285.400 79.166 C 272.720 85.125,260.863 76.316,260.814 60.900 L 260.800 56.400 252.000 56.400 L 243.200 56.400 243.200 60.545 C 243.200 67.918,241.763 72.123,237.936 75.950 C 228.934 84.951,214.389 81.390,209.550 69.000 C 209.292 68.340,208.973 65.280,208.841 62.200 L 208.600 56.600 199.960 56.492 L 191.320 56.385 191.076 61.692 C 190.563 72.805,185.733 79.113,176.507 80.723 C 165.678 82.612,157.319 74.828,156.829 62.400 L 156.600 56.600 147.910 56.492 L 139.219 56.384 139.027 57.292 C 138.922 57.792,138.775 60.474,138.701 63.254 C 138.053 87.615,104.824 86.665,104.794 62.285 C 104.786 55.807,105.672 56.364,95.571 56.492 L 87.000 56.600 86.779 62.200 C 86.658 65.280,86.414 68.160,86.236 68.600 C 81.086 81.373,67.311 85.049,57.972 76.141 C 53.919 72.275,52.400 68.033,52.400 60.580 L 52.400 56.400 42.900 56.432 C 36.389 56.454,32.582 56.639,30.800 57.022 M333.734 67.493 C 333.038 68.212,332.599 68.800,332.759 68.800 C 333.131 68.800,335.399 66.446,335.171 66.297 C 335.077 66.236,334.430 66.774,333.734 67.493 M325.200 66.525 C 325.200 66.594,325.785 67.179,326.500 67.825 L 327.800 69.000 326.625 67.700 C 325.530 66.488,325.200 66.216,325.200 66.525 M73.078 67.813 C 72.460 68.356,72.114 68.800,72.308 68.800 C 72.502 68.800,73.083 68.350,73.600 67.800 C 74.795 66.528,74.531 66.534,73.078 67.813 M222.088 67.813 C 222.686 68.443,223.247 68.877,223.335 68.779 C 223.423 68.680,222.933 68.165,222.247 67.634 L 221.000 66.669 222.088 67.813 M281.478 67.813 C 280.860 68.356,280.514 68.800,280.708 68.800 C 280.902 68.800,281.483 68.350,282.000 67.800 C 283.195 66.528,282.931 66.534,281.478 67.813 M68.538 69.294 C 68.792 69.456,69.360 69.588,69.800 69.588 C 70.240 69.588,70.808 69.456,71.062 69.294 C 71.316 69.132,70.748 69.000,69.800 69.000 C 68.852 69.000,68.284 69.132,68.538 69.294 M120.538 69.294 C 120.792 69.456,121.360 69.588,121.800 69.588 C 122.240 69.588,122.808 69.456,123.062 69.294 C 123.316 69.132,122.748 69.000,121.800 69.000 C 120.852 69.000,120.284 69.132,120.538 69.294 M172.538 69.294 C 172.792 69.456,173.360 69.588,173.800 69.588 C 174.240 69.588,174.808 69.456,175.062 69.294 C 175.316 69.132,174.748 69.000,173.800 69.000 C 172.852 69.000,172.284 69.132,172.538 69.294 M328.938 69.294 C 329.192 69.456,329.760 69.588,330.200 69.588 C 330.640 69.588,331.208 69.456,331.462 69.294 C 331.716 69.132,331.148 69.000,330.200 69.000 C 329.252 69.000,328.684 69.132,328.938 69.294 M50.800 111.260 C 50.030 111.935,49.762 112.305,50.204 112.081 C 50.935 111.711,52.747 109.978,52.362 110.016 C 52.273 110.025,51.570 110.585,50.800 111.260 M67.798 110.737 C 68.234 111.252,68.953 111.859,69.396 112.086 C 70.245 112.521,70.121 112.387,68.203 110.794 C 67.048 109.835,67.034 109.833,67.798 110.737 M11.867 112.667 C 11.720 112.813,11.603 113.128,11.606 113.367 C 11.610 113.627,11.738 113.602,11.927 113.304 C 12.169 112.924,16.532 112.783,30.621 112.700 L 49.000 112.592 30.567 112.496 C 20.428 112.443,12.013 112.520,11.867 112.667 M229.177 112.700 C 355.405 112.780,387.826 112.903,388.107 113.301 C 388.369 113.670,388.418 113.644,388.297 113.200 C 388.152 112.668,370.153 112.600,229.367 112.599 L 70.600 112.598 229.177 112.700 M114.132 126.700 C 148.635 126.756,204.975 126.756,239.332 126.700 C 273.690 126.644,245.460 126.597,176.600 126.597 C 107.740 126.597,79.630 126.644,114.132 126.700 M329.700 126.699 C 333.165 126.766,338.835 126.766,342.300 126.699 C 345.765 126.633,342.930 126.578,336.000 126.578 C 329.070 126.578,326.235 126.633,329.700 126.699 M319.000 131.600 C 318.848 132.291,318.807 132.941,318.909 133.042 C 319.011 133.144,319.209 132.653,319.350 131.950 C 319.683 130.283,319.360 129.960,319.000 131.600 M39.429 137.829 C 39.281 138.415,39.238 138.972,39.332 139.066 C 39.427 139.160,39.624 138.758,39.771 138.171 C 39.919 137.585,39.962 137.028,39.868 136.934 C 39.773 136.840,39.576 137.242,39.429 137.829 M115.700 138.300 C 149.745 138.356,205.455 138.356,239.500 138.300 C 273.545 138.244,245.690 138.197,177.600 138.197 C 109.510 138.197,81.655 138.244,115.700 138.300 M329.100 138.299 C 332.235 138.367,337.365 138.367,340.500 138.299 C 343.635 138.232,341.070 138.176,334.800 138.176 C 328.530 138.176,325.965 138.232,329.100 138.299 M41.476 170.312 C 41.867 171.034,42.812 172.204,43.577 172.912 L 44.966 174.200 43.583 172.596 C 42.822 171.714,41.877 170.544,41.483 169.996 C 40.791 169.035,40.790 169.046,41.476 170.312 M358.381 170.035 C 358.135 170.495,357.281 171.620,356.484 172.535 L 355.034 174.200 356.423 172.912 C 357.733 171.699,359.492 169.200,359.037 169.200 C 358.922 169.200,358.627 169.576,358.381 170.035 M71.700 193.876 C 72.085 193.976,72.715 193.976,73.100 193.876 C 73.485 193.775,73.170 193.693,72.400 193.693 C 71.630 193.693,71.315 193.775,71.700 193.876 M94.900 193.876 C 95.285 193.976,95.915 193.976,96.300 193.876 C 96.685 193.775,96.370 193.693,95.600 193.693 C 94.830 193.693,94.515 193.775,94.900 193.876 M129.700 193.876 C 130.085 193.976,130.715 193.976,131.100 193.876 C 131.485 193.775,131.170 193.693,130.400 193.693 C 129.630 193.693,129.315 193.775,129.700 193.876 M152.900 193.876 C 153.285 193.976,153.915 193.976,154.300 193.876 C 154.685 193.775,154.370 193.693,153.600 193.693 C 152.830 193.693,152.515 193.775,152.900 193.876 M187.700 193.876 C 188.085 193.976,188.715 193.976,189.100 193.876 C 189.485 193.775,189.170 193.693,188.400 193.693 C 187.630 193.693,187.315 193.775,187.700 193.876 M210.900 193.876 C 211.285 193.976,211.915 193.976,212.300 193.876 C 212.685 193.775,212.370 193.693,211.600 193.693 C 210.830 193.693,210.515 193.775,210.900 193.876 M245.700 193.876 C 246.085 193.976,246.715 193.976,247.100 193.876 C 247.485 193.775,247.170 193.693,246.400 193.693 C 245.630 193.693,245.315 193.775,245.700 193.876 M268.900 193.876 C 269.285 193.976,269.915 193.976,270.300 193.876 C 270.685 193.775,270.370 193.693,269.600 193.693 C 268.830 193.693,268.515 193.775,268.900 193.876 M303.700 193.876 C 304.085 193.976,304.715 193.976,305.100 193.876 C 305.485 193.775,305.170 193.693,304.400 193.693 C 303.630 193.693,303.315 193.775,303.700 193.876 M326.900 193.876 C 327.285 193.976,327.915 193.976,328.300 193.876 C 328.685 193.775,328.370 193.693,327.600 193.693 C 326.830 193.693,326.515 193.775,326.900 193.876 M331.600 194.911 C 331.600 194.987,332.185 195.478,332.900 196.001 C 333.704 196.590,333.984 196.687,333.633 196.255 C 333.100 195.599,331.600 194.607,331.600 194.911 M106.174 213.200 C 106.174 218.810,106.230 221.105,106.299 218.300 C 106.368 215.495,106.368 210.905,106.299 208.100 C 106.230 205.295,106.174 207.590,106.174 213.200 M293.774 213.200 C 293.774 218.810,293.830 221.105,293.899 218.300 C 293.968 215.495,293.968 210.905,293.899 208.100 C 293.830 205.295,293.774 207.590,293.774 213.200 M61.773 213.400 C 61.773 218.680,61.830 220.785,61.899 218.077 C 61.968 215.369,61.968 211.049,61.899 208.477 C 61.829 205.905,61.772 208.120,61.773 213.400 M119.702 213.200 C 119.677 218.370,119.779 222.910,119.928 223.289 C 120.078 223.668,120.152 220.338,120.093 215.889 C 119.934 203.817,119.754 202.582,119.702 213.200 M280.172 213.200 C 280.172 218.370,280.229 220.485,280.299 217.900 C 280.368 215.315,280.368 211.085,280.299 208.500 C 280.229 205.915,280.172 208.030,280.172 213.200 M338.172 213.200 C 338.172 218.370,338.229 220.485,338.299 217.900 C 338.368 215.315,338.368 211.085,338.299 208.500 C 338.229 205.915,338.172 208.030,338.172 213.200 M164.171 213.200 C 164.171 218.150,164.228 220.175,164.299 217.700 C 164.369 215.225,164.369 211.175,164.299 208.700 C 164.228 206.225,164.171 208.250,164.171 213.200 M177.771 213.200 C 177.771 218.150,177.828 220.175,177.899 217.700 C 177.969 215.225,177.969 211.175,177.899 208.700 C 177.828 206.225,177.771 208.250,177.771 213.200 M222.171 213.200 C 222.171 218.150,222.228 220.175,222.299 217.700 C 222.369 215.225,222.369 211.175,222.299 208.700 C 222.228 206.225,222.171 208.250,222.171 213.200 M235.772 213.400 C 235.772 218.460,235.829 220.475,235.899 217.877 C 235.969 215.280,235.968 211.140,235.898 208.677 C 235.828 206.215,235.771 208.340,235.772 213.400 M83.916 205.496 L 94.433 205.613 94.316 213.388 C 94.252 217.663,94.339 221.022,94.509 220.852 C 94.679 220.681,94.769 217.135,94.709 212.971 L 94.600 205.400 84.000 205.390 L 73.400 205.379 83.916 205.496 M136.900 205.499 C 139.705 205.568,144.295 205.568,147.100 205.499 C 149.905 205.430,147.610 205.374,142.000 205.374 C 136.390 205.374,134.095 205.430,136.900 205.499 M194.900 205.499 C 197.705 205.568,202.295 205.568,205.100 205.499 C 207.905 205.430,205.610 205.374,200.000 205.374 C 194.390 205.374,192.095 205.430,194.900 205.499 M252.900 205.499 C 255.705 205.568,260.295 205.568,263.100 205.499 C 265.905 205.430,263.610 205.374,258.000 205.374 C 252.390 205.374,250.095 205.430,252.900 205.499 M305.467 205.467 C 305.097 205.836,305.129 220.709,305.500 220.939 C 305.665 221.041,305.748 217.635,305.684 213.369 L 305.567 205.613 316.084 205.500 L 326.600 205.386 316.167 205.293 C 310.428 205.242,305.613 205.320,305.467 205.467 M131.386 213.167 C 131.398 219.724,131.493 220.959,132.000 221.097 C 132.435 221.216,132.465 221.165,132.109 220.912 C 131.759 220.664,131.583 218.396,131.495 212.982 L 131.372 205.400 131.386 213.167 M189.386 213.167 C 189.398 219.724,189.493 220.959,190.000 221.097 C 190.435 221.216,190.465 221.165,190.109 220.912 C 189.759 220.664,189.583 218.396,189.495 212.982 L 189.372 205.400 189.386 213.167 M210.490 213.067 C 210.423 218.756,210.271 220.785,209.900 220.935 C 209.508 221.093,209.511 221.144,209.913 221.168 C 210.756 221.220,210.824 220.495,210.700 212.787 L 210.581 205.400 210.490 213.067 M268.490 213.067 C 268.423 218.756,268.271 220.785,267.900 220.935 C 267.508 221.093,267.511 221.144,267.913 221.168 C 268.756 221.220,268.824 220.495,268.700 212.787 L 268.581 205.400 268.490 213.067 M73.386 213.367 C 73.398 219.746,73.494 220.960,74.000 221.097 C 74.434 221.216,74.465 221.165,74.109 220.913 C 73.760 220.665,73.583 218.435,73.495 213.182 L 73.372 205.800 73.386 213.367 M152.399 213.481 C 152.290 217.705,152.339 221.022,152.509 220.852 C 152.679 220.681,152.769 217.225,152.708 213.171 L 152.598 205.800 152.399 213.481 M247.278 213.276 C 247.235 217.388,247.335 220.837,247.500 220.939 C 247.665 221.042,247.753 218.847,247.696 216.063 C 247.504 206.721,247.357 205.744,247.278 213.276 M326.490 213.267 C 326.423 218.796,326.270 220.786,325.900 220.935 C 325.508 221.093,325.511 221.144,325.913 221.168 C 326.754 221.220,326.824 220.492,326.700 212.987 L 326.580 205.800 326.490 213.267 M102.575 229.300 L 101.400 230.600 102.700 229.425 C 103.415 228.779,104.000 228.194,104.000 228.125 C 104.000 227.816,103.670 228.088,102.575 229.300 M296.000 228.125 C 296.000 228.194,296.585 228.779,297.300 229.425 L 298.600 230.600 297.425 229.300 C 296.330 228.088,296.000 227.816,296.000 228.125 M77.900 247.099 C 81.255 247.166,86.745 247.166,90.100 247.099 C 93.455 247.032,90.710 246.978,84.000 246.978 C 77.290 246.978,74.545 247.032,77.900 247.099 M135.900 247.099 C 139.255 247.166,144.745 247.166,148.100 247.099 C 151.455 247.032,148.710 246.978,142.000 246.978 C 135.290 246.978,132.545 247.032,135.900 247.099 M193.900 247.099 C 197.255 247.166,202.745 247.166,206.100 247.099 C 209.455 247.032,206.710 246.978,200.000 246.978 C 193.290 246.978,190.545 247.032,193.900 247.099 M65.178 250.700 L 63.800 252.200 65.300 250.822 C 66.696 249.538,66.984 249.200,66.678 249.200 C 66.612 249.200,65.937 249.875,65.178 250.700 M102.400 250.600 C 103.146 251.370,103.847 252.000,103.957 252.000 C 104.067 252.000,103.546 251.370,102.800 250.600 C 102.054 249.830,101.353 249.200,101.243 249.200 C 101.133 249.200,101.654 249.830,102.400 250.600 M180.851 250.991 C 179.943 251.976,179.200 252.906,179.200 253.058 C 179.200 253.209,179.259 253.258,179.332 253.167 C 179.404 253.075,180.237 252.145,181.183 251.100 C 182.128 250.055,182.812 249.200,182.702 249.200 C 182.592 249.200,181.759 250.006,180.851 250.991 M218.782 251.000 C 219.747 252.100,220.620 253.090,220.722 253.200 C 220.825 253.310,220.719 253.040,220.487 252.600 C 220.255 252.160,219.382 251.170,218.547 250.400 C 217.103 249.069,217.115 249.099,218.782 251.000 M269.600 250.925 C 269.600 250.994,270.185 251.579,270.900 252.225 L 272.200 253.400 271.025 252.100 C 269.930 250.888,269.600 250.616,269.600 250.925 M276.800 257.800 C 277.995 259.010,279.063 260.000,279.173 260.000 C 279.283 260.000,278.395 259.010,277.200 257.800 C 276.005 256.590,274.937 255.600,274.827 255.600 C 274.717 255.600,275.605 256.590,276.800 257.800 M106.173 266.600 C 106.173 272.100,106.230 274.405,106.299 271.723 C 106.368 269.041,106.368 264.541,106.299 261.723 C 106.230 258.905,106.174 261.100,106.173 266.600 M61.773 266.600 C 61.773 271.880,61.830 273.985,61.899 271.277 C 61.968 268.569,61.968 264.249,61.899 261.677 C 61.829 259.105,61.772 261.320,61.773 266.600 M119.773 266.600 C 119.773 271.880,119.830 273.985,119.899 271.277 C 119.968 268.569,119.968 264.249,119.899 261.677 C 119.829 259.105,119.772 261.320,119.773 266.600 M164.172 266.600 C 164.172 271.660,164.229 273.675,164.299 271.077 C 164.369 268.480,164.368 264.340,164.298 261.877 C 164.228 259.415,164.171 261.540,164.172 266.600 M177.772 266.600 C 177.772 271.660,177.829 273.675,177.899 271.077 C 177.969 268.480,177.968 264.340,177.898 261.877 C 177.828 259.415,177.771 261.540,177.772 266.600 M222.171 266.800 C 222.171 271.750,222.228 273.775,222.299 271.300 C 222.369 268.825,222.369 264.775,222.299 262.300 C 222.228 259.825,222.171 261.850,222.171 266.800 M78.900 258.699 C 81.705 258.768,86.295 258.768,89.100 258.699 C 91.905 258.630,89.610 258.574,84.000 258.574 C 78.390 258.574,76.095 258.630,78.900 258.699 M137.323 258.699 C 140.141 258.768,144.641 258.768,147.323 258.699 C 150.005 258.630,147.700 258.573,142.200 258.573 C 136.700 258.574,134.505 258.630,137.323 258.699 M189.680 258.880 C 189.004 259.556,189.004 273.644,189.680 274.320 C 190.363 275.003,209.637 275.003,210.320 274.320 C 210.658 273.982,210.800 271.698,210.800 266.600 C 210.800 261.502,210.658 259.218,210.320 258.880 C 209.973 258.533,207.120 258.400,200.000 258.400 C 192.880 258.400,190.027 258.533,189.680 258.880 M131.467 259.067 C 130.963 259.571,131.162 273.802,131.680 274.320 C 132.027 274.667,134.880 274.800,142.000 274.800 C 149.120 274.800,151.973 274.667,152.320 274.320 C 152.665 273.975,152.776 271.803,152.714 266.620 L 152.627 259.400 152.414 266.800 L 152.200 274.200 142.000 274.200 L 131.800 274.200 131.800 266.500 C 131.800 262.265,131.785 258.800,131.767 258.800 C 131.748 258.800,131.613 258.920,131.467 259.067 M210.200 266.600 L 210.200 274.200 200.000 274.200 L 189.800 274.200 189.690 267.013 C 189.630 263.061,189.671 259.593,189.781 259.307 C 189.939 258.894,192.083 258.808,200.090 258.893 L 210.200 259.000 210.200 266.600 M94.567 266.600 C 94.567 270.780,94.626 272.436,94.698 270.279 C 94.771 268.123,94.770 264.703,94.698 262.679 C 94.625 260.656,94.566 262.420,94.567 266.600 M73.286 266.620 C 73.224 271.803,73.335 273.975,73.680 274.320 C 74.033 274.673,76.861 274.776,84.380 274.710 L 94.600 274.620 84.200 274.410 L 73.800 274.200 73.586 266.800 L 73.373 259.400 73.286 266.620 M264.783 262.500 C 266.441 264.266,266.800 264.584,266.800 264.283 C 266.800 264.219,265.945 263.364,264.900 262.383 L 263.000 260.600 264.783 262.500 M271.225 268.631 C 271.981 269.528,272.681 270.197,272.780 270.117 C 272.879 270.038,272.260 269.304,271.405 268.487 L 269.850 267.000 271.225 268.631 M284.901 271.800 C 284.905 272.680,284.987 272.993,285.083 272.495 C 285.179 271.998,285.175 271.278,285.075 270.895 C 284.975 270.513,284.896 270.920,284.901 271.800 M65.400 282.800 C 66.259 283.680,67.052 284.400,67.162 284.400 C 67.272 284.400,66.659 283.680,65.800 282.800 C 64.941 281.920,64.148 281.200,64.038 281.200 C 63.928 281.200,64.541 281.920,65.400 282.800 M123.400 282.800 C 124.259 283.680,125.052 284.400,125.162 284.400 C 125.272 284.400,124.659 283.680,123.800 282.800 C 122.941 281.920,122.148 281.200,122.038 281.200 C 121.928 281.200,122.541 281.920,123.400 282.800 M78.524 286.299 C 81.783 286.367,87.003 286.366,90.124 286.299 C 93.246 286.231,90.580 286.176,84.200 286.177 C 77.820 286.177,75.266 286.232,78.524 286.299 M136.300 286.299 C 139.435 286.367,144.565 286.367,147.700 286.299 C 150.835 286.232,148.270 286.176,142.000 286.176 C 135.730 286.176,133.165 286.232,136.300 286.299 M194.300 286.299 C 197.435 286.367,202.565 286.367,205.700 286.299 C 208.835 286.232,206.270 286.176,200.000 286.176 C 193.730 286.176,191.165 286.232,194.300 286.299 M286.783 292.100 C 287.764 293.145,288.619 294.000,288.683 294.000 C 288.984 294.000,288.666 293.641,286.900 291.983 L 285.000 290.200 286.783 292.100 M292.200 297.600 C 293.059 298.480,293.852 299.200,293.962 299.200 C 294.072 299.200,293.459 298.480,292.600 297.600 C 291.741 296.720,290.948 296.000,290.838 296.000 C 290.728 296.000,291.341 296.720,292.200 297.600 M275.600 297.325 C 275.600 297.394,276.185 297.979,276.900 298.625 L 278.200 299.800 277.025 298.500 C 275.930 297.288,275.600 297.016,275.600 297.325 M281.800 304.000 C 283.106 305.320,284.265 306.400,284.375 306.400 C 284.485 306.400,283.506 305.320,282.200 304.000 C 280.894 302.680,279.735 301.600,279.625 301.600 C 279.515 301.600,280.494 302.680,281.800 304.000 M316.200 303.600 C 315.181 304.038,316.232 304.038,317.600 303.600 C 318.404 303.343,318.443 303.277,317.800 303.268 C 317.360 303.262,316.640 303.411,316.200 303.600 M321.600 303.600 C 322.968 304.038,324.019 304.038,323.000 303.600 C 322.560 303.411,321.840 303.262,321.400 303.268 C 320.757 303.277,320.796 303.343,321.600 303.600 M285.600 307.325 C 285.600 307.394,286.185 307.979,286.900 308.625 L 288.200 309.800 287.025 308.500 C 285.930 307.288,285.600 307.016,285.600 307.325 M330.000 307.325 C 330.000 307.394,330.585 307.979,331.300 308.625 L 332.600 309.800 331.425 308.500 C 330.330 307.288,330.000 307.016,330.000 307.325 M106.174 320.000 C 106.174 325.610,106.230 327.905,106.299 325.100 C 106.368 322.295,106.368 317.705,106.299 314.900 C 106.230 312.095,106.174 314.390,106.174 320.000 M61.773 319.800 C 61.773 325.080,61.830 327.185,61.899 324.477 C 61.968 321.769,61.968 317.449,61.899 314.877 C 61.829 312.305,61.772 314.520,61.773 319.800 M119.772 320.000 C 119.772 325.170,119.829 327.285,119.899 324.700 C 119.968 322.115,119.968 317.885,119.899 315.300 C 119.829 312.715,119.772 314.830,119.772 320.000 M164.171 320.000 C 164.171 324.950,164.228 326.975,164.299 324.500 C 164.369 322.025,164.369 317.975,164.299 315.500 C 164.228 313.025,164.171 315.050,164.171 320.000 M177.771 320.000 C 177.771 324.950,177.828 326.975,177.899 324.500 C 177.969 322.025,177.969 317.975,177.899 315.500 C 177.828 313.025,177.771 315.050,177.771 320.000 M222.171 320.000 C 222.171 324.950,222.228 326.975,222.299 324.500 C 222.369 322.025,222.369 317.975,222.299 315.500 C 222.228 313.025,222.171 315.050,222.171 320.000 M78.700 312.299 C 81.615 312.367,86.385 312.367,89.300 312.299 C 92.215 312.231,89.830 312.175,84.000 312.175 C 78.170 312.175,75.785 312.231,78.700 312.299 M131.443 312.633 C 130.678 314.626,131.243 328.000,132.092 328.000 C 132.341 328.000,132.321 327.787,132.040 327.448 C 131.723 327.066,131.615 324.680,131.691 319.748 L 131.800 312.600 142.000 312.600 L 152.200 312.600 152.200 320.263 C 152.200 324.478,152.332 327.718,152.494 327.463 C 152.847 326.907,152.904 313.536,152.557 312.633 C 152.189 311.674,131.811 311.674,131.443 312.633 M189.443 312.633 C 188.678 314.626,189.243 328.000,190.092 328.000 C 190.341 328.000,190.321 327.787,190.040 327.448 C 189.723 327.066,189.615 324.680,189.691 319.748 L 189.800 312.600 200.000 312.600 L 210.200 312.600 210.309 319.748 C 210.385 324.680,210.277 327.066,209.960 327.448 C 209.679 327.787,209.659 328.000,209.908 328.000 C 210.662 328.000,210.800 326.758,210.800 320.000 C 210.800 316.296,210.691 312.981,210.557 312.633 C 210.189 311.674,189.811 311.674,189.443 312.633 M73.366 320.000 C 73.366 324.070,73.425 325.735,73.498 323.700 C 73.571 321.665,73.571 318.335,73.498 316.300 C 73.425 314.265,73.366 315.930,73.366 320.000 M94.566 320.000 C 94.566 324.070,94.625 325.735,94.698 323.700 C 94.771 321.665,94.771 318.335,94.698 316.300 C 94.625 314.265,94.566 315.930,94.566 320.000 M337.800 314.800 C 338.659 315.680,339.452 316.400,339.562 316.400 C 339.672 316.400,339.059 315.680,338.200 314.800 C 337.341 313.920,336.548 313.200,336.438 313.200 C 336.328 313.200,336.941 313.920,337.800 314.800 M260.800 314.125 C 260.800 314.194,261.385 314.779,262.100 315.425 L 263.400 316.600 262.225 315.300 C 261.130 314.088,260.800 313.816,260.800 314.125 M325.000 318.800 C 325.859 319.680,326.652 320.400,326.762 320.400 C 326.872 320.400,326.259 319.680,325.400 318.800 C 324.541 317.920,323.748 317.200,323.638 317.200 C 323.528 317.200,324.141 317.920,325.000 318.800 M331.200 324.600 C 331.946 325.370,332.647 326.000,332.757 326.000 C 332.867 326.000,332.346 325.370,331.600 324.600 C 330.854 323.830,330.153 323.200,330.043 323.200 C 329.933 323.200,330.454 323.830,331.200 324.600 M330.386 333.100 L 328.200 335.400 330.500 333.214 C 332.637 331.182,332.983 330.800,332.686 330.800 C 332.624 330.800,331.589 331.835,330.386 333.100 M344.629 331.829 C 344.481 332.415,344.438 332.972,344.532 333.066 C 344.627 333.160,344.824 332.758,344.971 332.171 C 345.119 331.585,345.162 331.028,345.068 330.934 C 344.973 330.840,344.776 331.242,344.629 331.829 M342.594 336.700 C 342.210 337.305,341.425 338.340,340.848 339.000 L 339.800 340.200 341.003 339.118 C 342.111 338.122,343.878 335.600,343.469 335.600 C 343.371 335.600,342.978 336.095,342.594 336.700 M11.709 346.400 C 11.709 347.390,11.787 347.795,11.882 347.300 C 11.978 346.805,11.978 345.995,11.882 345.500 C 11.787 345.005,11.709 345.410,11.709 346.400 M388.062 346.000 C 388.022 346.770,387.896 347.850,387.783 348.400 L 387.577 349.400 388.008 348.414 C 388.244 347.871,388.370 346.791,388.286 346.014 L 388.134 344.600 388.062 346.000 M320.900 349.087 C 321.505 349.178,322.495 349.178,323.100 349.087 C 323.705 348.995,323.210 348.920,322.000 348.920 C 320.790 348.920,320.295 348.995,320.900 349.087 M380.975 361.300 L 379.800 362.600 381.100 361.425 C 381.815 360.779,382.400 360.194,382.400 360.125 C 382.400 359.816,382.070 360.088,380.975 361.300 " stroke="none" fill="#e26a71" fill-rule="evenodd"></path><path id="path2" d="M67.400 33.137 C 64.894 34.669,65.000 33.896,65.000 50.654 L 65.000 65.985 66.253 67.238 C 68.547 69.531,72.731 68.825,74.191 65.899 C 75.008 64.260,75.107 36.928,74.300 35.510 C 72.707 32.709,69.758 31.695,67.400 33.137 M119.319 33.184 C 116.824 34.705,116.800 34.873,116.800 50.600 C 116.800 65.596,116.852 66.075,118.659 67.646 C 120.393 69.153,123.897 68.813,125.630 66.968 L 126.600 65.936 126.600 50.610 C 126.600 35.851,126.570 35.251,125.801 34.401 C 123.933 32.337,121.468 31.874,119.319 33.184 M171.762 33.009 C 169.025 34.209,169.014 34.277,168.877 49.600 C 168.810 57.190,168.865 63.998,169.001 64.728 C 169.728 68.653,174.862 70.022,177.483 66.990 L 178.800 65.467 178.800 50.695 C 178.800 36.378,178.774 35.888,177.968 34.756 C 176.408 32.564,174.195 31.941,171.762 33.009 M224.000 32.915 C 221.116 34.246,221.201 33.706,221.200 50.669 L 221.200 65.938 222.380 67.119 C 224.714 69.453,228.244 69.130,230.118 66.411 C 231.281 64.724,231.143 36.144,229.965 34.646 C 228.365 32.613,226.088 31.952,224.000 32.915 M275.589 33.300 C 272.842 35.160,272.862 35.038,272.829 50.676 C 272.811 59.661,272.945 64.842,273.200 65.000 C 273.420 65.136,273.600 65.531,273.600 65.877 C 273.600 68.110,278.547 69.371,281.000 67.763 C 283.086 66.397,283.251 65.013,283.120 49.990 C 282.985 34.499,282.927 34.165,280.142 33.001 C 278.171 32.178,277.147 32.245,275.589 33.300 M327.783 33.145 C 325.155 34.748,325.200 34.440,325.200 50.695 L 325.200 65.418 326.384 66.854 C 328.337 69.223,332.285 69.208,333.983 66.824 C 335.110 65.242,335.269 36.288,334.160 34.595 C 332.794 32.510,329.902 31.853,327.783 33.145 M53.345 108.054 C 52.556 112.986,51.537 113.223,29.900 113.488 L 12.000 113.708 12.000 229.648 C 12.000 311.697,12.127 346.146,12.435 347.494 C 14.891 358.259,21.289 364.986,31.000 367.015 C 35.231 367.899,364.769 367.899,369.000 367.015 C 377.412 365.257,384.446 358.825,386.732 350.800 C 387.923 346.619,388.000 344.922,388.000 322.989 C 388.000 305.637,388.116 300.188,388.500 299.524 C 389.834 297.218,390.948 296.426,393.711 295.822 L 394.821 295.579 394.711 289.690 L 394.600 283.800 393.000 283.407 C 391.991 283.159,390.773 282.388,389.700 281.317 L 388.000 279.621 388.000 196.413 L 388.000 113.204 229.029 113.102 L 70.059 113.000 68.929 112.163 C 67.331 110.979,66.000 108.879,66.000 107.541 L 66.000 106.400 59.805 106.400 L 53.609 106.400 53.345 108.054 M302.926 126.863 C 304.173 127.523,305.186 128.770,305.883 130.500 L 306.487 132.000 312.372 132.000 L 318.257 132.000 319.125 130.100 C 320.821 126.387,320.762 126.400,336.176 126.400 C 345.158 126.400,349.930 126.548,350.681 126.850 C 355.918 128.955,358.436 131.573,360.749 137.319 C 361.052 138.071,361.200 142.821,361.200 151.800 C 361.200 160.779,361.052 165.529,360.749 166.281 C 359.411 169.605,358.433 171.194,356.614 173.000 C 354.541 175.059,351.687 176.800,350.386 176.800 C 349.980 176.800,349.536 176.980,349.400 177.200 C 349.057 177.755,50.943 177.755,50.600 177.200 C 50.464 176.980,50.020 176.800,49.614 176.800 C 47.812 176.800,41.262 171.974,41.200 170.600 C 41.190 170.380,40.830 169.750,40.400 169.200 C 39.970 168.650,39.614 167.806,39.609 167.324 C 39.604 166.842,39.420 166.336,39.200 166.200 C 38.653 165.862,38.653 137.738,39.200 137.400 C 39.420 137.264,39.600 136.713,39.600 136.176 C 39.600 135.639,39.780 135.200,40.000 135.200 C 40.220 135.200,40.400 134.932,40.400 134.605 C 40.400 133.208,44.802 128.837,47.400 127.654 C 48.060 127.353,48.870 126.959,49.200 126.777 C 50.198 126.228,301.888 126.313,302.926 126.863 M99.600 194.408 C 101.698 195.534,104.364 198.137,105.147 199.822 C 105.447 200.470,105.852 201.313,106.047 201.695 C 106.970 203.510,106.455 223.858,105.429 226.088 C 102.553 232.339,100.664 232.975,84.568 233.115 C 70.030 233.242,69.538 233.173,66.111 230.560 C 62.166 227.550,61.600 225.352,61.600 213.029 L 61.600 202.714 62.811 200.177 C 64.512 196.612,67.574 194.251,71.400 193.554 C 75.874 192.739,97.724 193.401,99.600 194.408 M157.600 194.402 C 163.706 197.699,164.600 200.101,164.600 213.200 L 164.600 223.800 163.529 226.000 C 162.283 228.558,160.146 230.745,157.600 232.066 C 155.418 233.198,131.424 233.754,128.200 232.747 C 124.090 231.463,121.161 228.347,119.640 223.640 C 119.034 221.768,119.052 204.714,119.661 202.828 C 121.321 197.692,124.788 194.391,129.400 193.556 C 133.925 192.737,155.728 193.392,157.600 194.402 M215.400 194.393 C 217.693 195.524,220.544 198.281,221.336 200.134 C 222.668 203.250,222.800 204.431,222.800 213.200 C 222.800 222.003,222.669 223.154,221.312 226.316 C 220.168 228.981,217.210 231.561,214.000 232.694 C 212.026 233.390,187.974 233.390,186.000 232.694 C 182.790 231.561,179.832 228.981,178.688 226.316 C 177.331 223.154,177.200 222.003,177.200 213.200 C 177.200 202.399,177.644 200.471,180.903 197.125 C 184.476 193.456,185.596 193.245,201.000 193.335 C 213.302 193.407,213.416 193.415,215.400 194.393 M273.400 194.399 C 275.690 195.522,278.542 198.277,279.336 200.134 C 280.668 203.250,280.800 204.431,280.800 213.200 C 280.800 221.946,280.666 223.148,279.351 226.233 C 278.416 228.428,276.004 230.757,273.359 232.020 L 270.821 233.231 257.511 233.115 C 241.284 232.975,239.589 232.402,236.471 226.000 L 235.400 223.800 235.400 213.200 C 235.400 200.108,236.427 197.362,242.400 194.494 C 245.986 192.773,269.932 192.699,273.400 194.399 M331.212 194.313 C 334.175 195.772,335.890 197.456,337.189 200.177 L 338.400 202.714 338.400 213.029 C 338.400 225.352,337.834 227.550,333.889 230.560 C 330.462 233.173,329.970 233.242,315.432 233.115 C 299.336 232.975,297.447 232.339,294.571 226.088 C 293.138 222.972,293.060 203.540,294.469 200.543 C 296.139 196.989,300.163 193.868,303.600 193.460 C 309.020 192.817,329.458 193.448,331.212 194.313 M74.000 212.767 C 74.000 216.489,74.109 219.819,74.243 220.167 C 74.455 220.720,75.714 220.800,84.243 220.800 L 94.000 220.800 94.000 213.400 L 94.000 206.000 84.000 206.000 L 74.000 206.000 74.000 212.767 M132.400 213.400 L 132.400 220.800 142.200 220.800 L 152.000 220.800 152.000 213.400 L 152.000 206.000 142.200 206.000 L 132.400 206.000 132.400 213.400 M190.000 213.400 L 190.000 220.800 200.000 220.800 L 210.000 220.800 210.000 213.400 L 210.000 206.000 200.000 206.000 L 190.000 206.000 190.000 213.400 M248.000 213.400 L 248.000 220.800 257.800 220.800 L 267.600 220.800 267.600 213.400 L 267.600 206.000 257.800 206.000 L 248.000 206.000 248.000 213.400 M306.000 213.400 L 306.000 220.800 315.757 220.800 C 324.286 220.800,325.545 220.720,325.757 220.167 C 325.891 219.819,326.000 216.489,326.000 212.767 L 326.000 206.000 316.000 206.000 L 306.000 206.000 306.000 213.400 M99.317 247.746 C 101.897 248.887,104.150 251.104,105.444 253.775 C 106.456 255.865,106.963 276.504,106.047 278.305 C 105.852 278.687,105.447 279.525,105.147 280.167 C 102.576 285.652,98.939 286.791,84.000 286.791 C 68.560 286.791,65.540 285.734,62.572 279.288 C 61.538 277.041,61.033 257.064,61.966 255.295 C 62.168 254.913,62.607 253.970,62.941 253.200 C 63.755 251.328,66.257 248.952,68.650 247.780 C 71.685 246.293,95.971 246.267,99.317 247.746 M157.362 247.799 C 159.912 249.006,162.449 251.479,163.687 253.966 C 165.129 256.863,165.097 276.398,163.645 279.323 C 160.462 285.734,157.397 286.791,142.000 286.791 C 127.322 286.791,125.155 286.204,121.655 281.279 C 118.073 276.240,117.986 257.031,121.523 252.121 C 125.156 247.077,125.984 246.862,141.925 246.828 L 155.250 246.800 157.362 247.799 M215.067 247.624 C 218.392 249.042,221.073 252.135,222.202 255.857 C 222.944 258.303,223.055 274.544,222.345 276.772 C 220.668 282.032,218.349 284.533,213.740 286.053 C 210.758 287.037,189.853 287.172,186.741 286.227 C 182.247 284.863,178.000 280.665,178.000 277.586 C 178.000 277.180,177.820 276.736,177.600 276.600 C 176.921 276.180,177.092 258.183,177.798 255.857 C 178.906 252.206,181.581 249.071,184.800 247.651 C 187.621 246.406,212.159 246.384,215.067 247.624 M266.158 248.184 C 268.229 249.193,270.049 250.577,272.866 253.284 C 274.992 255.328,277.976 258.170,279.496 259.600 C 285.101 264.871,286.211 269.525,284.238 279.484 C 282.753 286.978,282.721 286.769,285.897 290.355 C 295.202 300.861,305.370 308.237,306.973 305.644 C 307.094 305.449,307.779 305.191,308.496 305.073 C 310.571 304.730,312.137 304.365,313.000 304.023 C 320.455 301.075,325.657 302.653,334.024 310.400 C 342.462 318.214,344.800 320.993,344.800 323.214 C 344.800 323.620,344.980 324.064,345.200 324.200 C 345.747 324.538,345.707 331.296,345.149 332.681 C 340.469 344.305,328.529 351.412,317.800 348.960 C 316.260 348.608,314.413 348.229,313.696 348.116 C 312.979 348.004,312.294 347.751,312.173 347.556 C 312.052 347.360,311.459 347.200,310.856 347.200 C 310.253 347.200,309.589 347.057,309.380 346.882 C 309.171 346.707,308.280 346.335,307.400 346.055 C 306.520 345.776,305.440 345.403,305.000 345.227 C 303.246 344.525,301.766 343.889,301.105 343.553 C 300.723 343.359,300.138 343.200,299.805 343.200 C 299.472 343.200,299.200 343.020,299.200 342.800 C 299.200 342.580,298.975 342.401,298.700 342.403 C 298.220 342.405,290.011 338.443,289.600 338.011 C 289.490 337.895,288.590 337.364,287.600 336.831 C 280.136 332.812,269.493 324.203,263.042 316.965 C 259.688 313.202,259.518 312.999,257.194 310.000 C 256.428 309.010,255.695 308.110,255.568 308.000 C 253.306 306.052,245.600 292.100,242.313 284.000 C 242.089 283.450,241.748 282.687,241.553 282.305 C 241.359 281.923,241.200 281.336,241.200 281.000 C 241.200 280.664,241.041 280.077,240.847 279.695 C 239.038 276.139,238.186 268.465,239.216 265.000 C 240.071 262.122,241.959 257.907,242.500 257.667 C 242.665 257.593,242.800 257.307,242.800 257.030 C 242.800 255.781,249.789 249.229,252.400 248.030 C 256.456 246.168,262.150 246.232,266.158 248.184 M74.000 266.800 L 74.000 274.000 84.000 274.000 L 94.000 274.000 94.000 266.800 L 94.000 259.600 84.000 259.600 L 74.000 259.600 74.000 266.800 M132.400 266.800 L 132.400 274.000 142.200 274.000 L 152.000 274.000 152.000 266.800 L 152.000 259.600 142.200 259.600 L 132.400 259.600 132.400 266.800 M190.000 266.800 L 190.000 274.000 200.000 274.000 L 210.000 274.000 210.000 266.800 L 210.000 259.600 200.000 259.600 L 190.000 259.600 190.000 266.800 M98.449 300.691 C 100.803 301.452,104.228 304.464,105.166 306.600 C 105.456 307.260,105.852 308.113,106.047 308.495 C 106.867 310.107,106.466 330.668,105.577 332.559 C 104.361 335.147,102.331 337.313,100.140 338.360 C 99.073 338.870,97.887 339.448,97.505 339.644 C 96.454 340.183,71.880 340.098,70.519 339.550 C 68.029 338.549,67.328 338.158,65.696 336.856 C 64.586 335.971,63.575 334.623,62.796 332.991 L 61.600 330.486 61.600 320.171 C 61.600 313.109,61.754 309.406,62.087 308.428 C 63.258 304.998,66.456 301.803,69.981 300.543 C 72.390 299.681,95.698 299.803,98.449 300.691 M157.600 301.145 C 163.624 304.307,164.600 306.935,164.600 320.000 C 164.600 332.987,163.637 335.725,158.130 338.392 C 157.069 338.906,155.887 339.478,155.505 339.663 C 154.561 340.121,129.367 340.094,128.495 339.634 C 128.113 339.432,127.100 338.962,126.244 338.588 C 123.271 337.291,120.968 334.416,119.661 330.372 C 119.052 328.486,119.034 311.432,119.640 309.560 C 121.164 304.844,124.162 301.685,128.356 300.375 C 131.142 299.504,155.707 300.151,157.600 301.145 M215.518 301.117 C 219.038 302.997,221.013 305.459,222.344 309.628 C 222.959 311.555,222.960 328.440,222.345 330.372 C 221.078 334.355,219.005 337.009,216.049 338.434 C 215.032 338.925,213.887 339.478,213.505 339.663 C 212.581 340.112,187.384 340.098,186.495 339.649 C 186.113 339.456,185.133 339.012,184.318 338.664 C 181.245 337.350,178.986 334.538,177.656 330.372 C 177.035 328.428,177.040 311.552,177.661 309.628 C 179.244 304.730,181.627 302.119,185.953 300.542 C 188.800 299.504,213.393 299.983,215.518 301.117 M74.091 319.900 L 74.200 327.000 84.100 327.107 L 94.000 327.214 94.000 320.007 L 94.000 312.800 83.991 312.800 L 73.982 312.800 74.091 319.900 M132.400 320.000 L 132.400 327.200 142.200 327.200 L 152.000 327.200 152.000 320.000 L 152.000 312.800 142.200 312.800 L 132.400 312.800 132.400 320.000 M190.000 320.000 L 190.000 327.200 200.000 327.200 L 210.000 327.200 210.000 320.000 L 210.000 312.800 200.000 312.800 L 190.000 312.800 190.000 320.000 " stroke="none" fill="#f7efec" fill-rule="evenodd"></path><path id="path3" d="M228.033 32.900 C 228.125 32.955,228.740 33.450,229.400 34.000 L 230.600 35.000 229.630 33.900 C 229.097 33.295,228.482 32.800,228.264 32.800 C 228.045 32.800,227.942 32.845,228.033 32.900 M274.370 33.900 L 273.400 35.000 274.600 34.000 C 275.260 33.450,275.875 32.955,275.967 32.900 C 276.058 32.845,275.955 32.800,275.736 32.800 C 275.518 32.800,274.903 33.295,274.370 33.900 M334.981 50.600 C 334.981 58.960,335.034 62.437,335.099 58.326 C 335.164 54.216,335.164 47.376,335.100 43.126 C 335.035 38.877,334.982 42.240,334.981 50.600 M126.600 50.600 C 126.600 58.588,126.732 64.916,126.894 64.662 C 127.056 64.408,127.188 58.080,127.188 50.600 C 127.188 43.120,127.056 36.792,126.894 36.538 C 126.732 36.284,126.600 42.612,126.600 50.600 M230.981 50.600 C 230.981 58.740,231.034 62.013,231.100 57.874 C 231.165 53.734,231.165 47.074,231.099 43.074 C 231.034 39.073,230.981 42.460,230.981 50.600 M220.981 50.600 C 220.980 58.520,221.034 61.817,221.099 57.926 C 221.165 54.035,221.165 47.555,221.100 43.526 C 221.034 39.497,220.981 42.680,220.981 50.600 M64.580 50.600 C 64.580 58.300,64.634 61.393,64.699 57.474 C 64.765 53.555,64.765 47.255,64.699 43.474 C 64.634 39.693,64.580 42.900,64.580 50.600 M116.580 50.600 C 116.580 58.080,116.634 61.083,116.699 57.274 C 116.765 53.465,116.765 47.345,116.699 43.674 C 116.633 40.003,116.579 43.120,116.580 50.600 M19.326 113.500 C 23.466 113.565,30.126 113.565,34.126 113.499 C 38.127 113.434,34.740 113.381,26.600 113.381 C 18.460 113.381,15.187 113.434,19.326 113.500 M43.178 130.700 L 41.800 132.200 43.396 130.800 C 44.273 130.030,45.068 129.355,45.162 129.300 C 45.256 129.245,45.159 129.200,44.945 129.200 C 44.732 129.200,43.937 129.875,43.178 130.700 M355.600 129.725 C 355.600 129.794,356.185 130.379,356.900 131.025 L 358.200 132.200 357.025 130.900 C 355.930 129.688,355.600 129.416,355.600 129.725 M305.771 132.361 C 305.750 133.870,305.484 134.676,304.648 135.773 C 302.464 138.636,313.958 138.399,176.851 138.413 C 80.125 138.423,52.861 138.532,52.365 138.913 C 50.913 140.028,50.800 140.972,50.800 151.988 C 50.800 163.949,50.871 164.328,53.286 165.170 C 55.030 165.778,344.970 165.778,346.714 165.170 C 349.129 164.328,349.200 163.949,349.200 151.988 C 349.200 137.075,350.562 138.429,335.549 138.413 C 323.122 138.399,322.080 138.245,320.460 136.185 C 319.351 134.775,318.677 132.582,318.951 131.279 C 319.168 130.251,319.157 130.243,318.728 131.100 C 318.063 132.429,306.751 132.513,306.161 131.192 C 305.883 130.571,305.793 130.841,305.771 132.361 M360.644 138.200 C 360.973 139.671,361.202 139.990,361.194 138.967 C 361.191 138.545,361.005 137.930,360.782 137.600 C 360.485 137.162,360.448 137.324,360.644 138.200 M50.741 177.301 C 50.943 177.503,51.533 177.601,52.054 177.519 C 52.855 177.393,52.798 177.337,51.687 177.152 C 50.893 177.021,50.519 177.079,50.741 177.301 M348.200 177.200 L 347.000 177.505 348.076 177.553 C 348.668 177.579,349.264 177.420,349.400 177.200 C 349.536 176.980,349.592 176.821,349.524 176.847 C 349.456 176.873,348.860 177.032,348.200 177.200 M78.300 193.499 C 81.435 193.567,86.565 193.567,89.700 193.499 C 92.835 193.432,90.270 193.376,84.000 193.376 C 77.730 193.376,75.165 193.432,78.300 193.499 M136.524 193.499 C 139.783 193.567,145.003 193.566,148.124 193.499 C 151.246 193.431,148.580 193.376,142.200 193.377 C 135.820 193.377,133.266 193.432,136.524 193.499 M194.100 193.499 C 197.345 193.566,202.655 193.566,205.900 193.499 C 209.145 193.432,206.490 193.377,200.000 193.377 C 193.510 193.377,190.855 193.432,194.100 193.499 M252.124 193.499 C 255.383 193.567,260.603 193.566,263.724 193.499 C 266.846 193.431,264.180 193.376,257.800 193.377 C 251.420 193.377,248.866 193.432,252.124 193.499 M310.300 193.499 C 313.435 193.567,318.565 193.567,321.700 193.499 C 324.835 193.432,322.270 193.376,316.000 193.376 C 309.730 193.376,307.165 193.432,310.300 193.499 M177.443 203.433 C 177.095 204.339,177.154 222.508,177.506 223.062 C 177.668 223.316,177.800 218.861,177.800 213.162 C 177.800 207.463,177.774 202.800,177.743 202.800 C 177.711 202.800,177.576 203.085,177.443 203.433 M222.200 213.200 C 222.200 218.878,222.332 223.316,222.494 223.062 C 222.656 222.808,222.788 218.370,222.788 213.200 C 222.788 208.030,222.656 203.592,222.494 203.338 C 222.332 203.084,222.200 207.522,222.200 213.200 M119.373 213.200 C 119.373 218.590,119.430 220.795,119.499 218.100 C 119.568 215.405,119.568 210.995,119.499 208.300 C 119.430 205.605,119.373 207.810,119.373 213.200 M280.573 213.200 C 280.573 218.590,280.630 220.795,280.699 218.100 C 280.768 215.405,280.768 210.995,280.699 208.300 C 280.630 205.605,280.573 207.810,280.573 213.200 M164.571 213.200 C 164.571 218.150,164.628 220.175,164.699 217.700 C 164.769 215.225,164.769 211.175,164.699 208.700 C 164.628 206.225,164.571 208.250,164.571 213.200 M235.371 213.200 C 235.371 218.150,235.428 220.175,235.499 217.700 C 235.569 215.225,235.569 211.175,235.499 208.700 C 235.428 206.225,235.371 208.250,235.371 213.200 M73.867 205.867 C 73.497 206.237,73.529 220.800,73.900 220.800 C 74.065 220.801,74.144 217.471,74.075 213.400 L 73.951 206.000 83.966 206.000 L 93.982 206.000 94.101 213.500 L 94.219 221.000 94.309 213.300 L 94.400 205.600 84.267 205.600 C 78.693 205.600,74.013 205.720,73.867 205.867 M132.091 213.300 L 132.181 221.000 132.299 213.507 L 132.418 206.014 142.309 205.900 L 152.200 205.785 142.100 205.693 L 132.000 205.600 132.091 213.300 M194.900 205.899 C 197.705 205.968,202.295 205.968,205.100 205.899 C 207.905 205.830,205.610 205.774,200.000 205.774 C 194.390 205.774,192.095 205.830,194.900 205.899 M257.691 205.900 L 267.582 206.014 267.701 213.507 L 267.819 221.000 267.909 213.300 L 268.000 205.600 257.900 205.693 L 247.800 205.785 257.691 205.900 M305.691 213.293 L 305.781 221.000 305.899 213.500 L 306.018 206.000 316.034 206.000 L 326.049 206.000 325.925 213.400 C 325.856 217.471,325.939 220.801,326.109 220.800 C 326.279 220.800,326.369 217.425,326.309 213.300 L 326.200 205.800 315.900 205.693 L 305.600 205.586 305.691 213.293 M160.820 229.379 L 159.040 231.400 161.001 229.514 C 162.079 228.477,162.880 227.567,162.781 227.493 C 162.681 227.419,161.799 228.267,160.820 229.379 M237.200 227.450 C 237.200 227.661,238.055 228.636,239.100 229.617 L 241.000 231.400 239.200 229.407 C 238.210 228.312,237.355 227.337,237.300 227.241 C 237.245 227.145,237.200 227.239,237.200 227.450 M180.800 229.400 C 181.546 230.170,182.247 230.800,182.357 230.800 C 182.467 230.800,181.946 230.170,181.200 229.400 C 180.454 228.630,179.753 228.000,179.643 228.000 C 179.533 228.000,180.054 228.630,180.800 229.400 M218.778 229.500 L 217.400 231.000 218.900 229.622 C 220.296 228.338,220.584 228.000,220.278 228.000 C 220.212 228.000,219.537 228.675,218.778 229.500 M64.000 228.525 C 64.000 228.594,64.585 229.179,65.300 229.825 L 66.600 231.000 65.425 229.700 C 64.330 228.488,64.000 228.216,64.000 228.525 M334.575 229.700 L 333.400 231.000 334.700 229.825 C 335.415 229.179,336.000 228.594,336.000 228.525 C 336.000 228.216,335.670 228.488,334.575 229.700 M95.300 233.076 C 95.685 233.176,96.315 233.176,96.700 233.076 C 97.085 232.975,96.770 232.893,96.000 232.893 C 95.230 232.893,94.915 232.975,95.300 233.076 M129.300 233.076 C 129.685 233.176,130.315 233.176,130.700 233.076 C 131.085 232.975,130.770 232.893,130.000 232.893 C 129.230 232.893,128.915 232.975,129.300 233.076 M153.300 233.076 C 153.685 233.176,154.315 233.176,154.700 233.076 C 155.085 232.975,154.770 232.893,154.000 232.893 C 153.230 232.893,152.915 232.975,153.300 233.076 M187.300 233.076 C 187.685 233.176,188.315 233.176,188.700 233.076 C 189.085 232.975,188.770 232.893,188.000 232.893 C 187.230 232.893,186.915 232.975,187.300 233.076 M211.300 233.076 C 211.685 233.176,212.315 233.176,212.700 233.076 C 213.085 232.975,212.770 232.893,212.000 232.893 C 211.230 232.893,210.915 232.975,211.300 233.076 M245.300 233.076 C 245.685 233.176,246.315 233.176,246.700 233.076 C 247.085 232.975,246.770 232.893,246.000 232.893 C 245.230 232.893,244.915 232.975,245.300 233.076 M269.300 233.076 C 269.685 233.176,270.315 233.176,270.700 233.076 C 271.085 232.975,270.770 232.893,270.000 232.893 C 269.230 232.893,268.915 232.975,269.300 233.076 M303.300 233.076 C 303.685 233.176,304.315 233.176,304.700 233.076 C 305.085 232.975,304.770 232.893,304.000 232.893 C 303.230 232.893,302.915 232.975,303.300 233.076 M266.800 248.494 C 266.910 248.613,267.900 249.387,269.000 250.212 C 270.178 251.095,270.640 251.319,270.124 250.756 C 269.642 250.230,268.652 249.457,267.924 249.038 C 267.196 248.619,266.690 248.374,266.800 248.494 M247.600 251.400 C 246.628 252.390,245.923 253.200,246.033 253.200 C 246.143 253.200,247.028 252.390,248.000 251.400 C 248.972 250.410,249.677 249.600,249.567 249.600 C 249.457 249.600,248.572 250.410,247.600 251.400 M119.373 266.600 C 119.373 272.100,119.430 274.405,119.499 271.723 C 119.568 269.041,119.568 264.541,119.499 261.723 C 119.430 258.905,119.374 261.100,119.373 266.600 M177.282 266.676 C 177.237 271.998,177.335 276.437,177.500 276.539 C 177.665 276.641,177.754 273.817,177.697 270.263 C 177.505 258.186,177.365 256.976,177.282 266.676 M222.573 266.600 C 222.573 271.880,222.630 273.985,222.699 271.277 C 222.768 268.569,222.768 264.249,222.699 261.677 C 222.629 259.105,222.572 261.320,222.573 266.600 M164.571 266.800 C 164.571 271.750,164.628 273.775,164.699 271.300 C 164.769 268.825,164.769 264.775,164.699 262.300 C 164.628 259.825,164.571 261.850,164.571 266.800 M74.045 259.345 C 73.721 259.736,73.617 262.057,73.700 267.052 L 73.820 274.200 73.910 266.900 L 74.000 259.600 83.991 259.600 L 93.982 259.600 94.105 266.900 L 94.228 274.200 94.214 266.600 L 94.200 259.000 84.355 258.893 C 76.314 258.806,74.424 258.889,74.045 259.345 M132.178 259.313 C 132.069 259.596,132.035 263.061,132.100 267.013 L 132.220 274.200 132.310 266.900 L 132.400 259.600 142.200 259.600 C 148.467 259.600,152.000 259.456,152.000 259.200 C 152.000 258.552,132.427 258.664,132.178 259.313 M190.000 259.200 C 190.000 259.456,193.600 259.600,200.000 259.600 C 206.400 259.600,210.000 259.456,210.000 259.200 C 210.000 258.944,206.400 258.800,200.000 258.800 C 193.600 258.800,190.000 258.944,190.000 259.200 M255.407 261.081 C 251.149 265.442,250.130 269.371,251.900 274.600 C 261.316 302.408,283.689 325.027,310.800 334.146 C 322.691 338.146,325.661 337.920,330.739 332.632 C 334.811 328.391,334.653 327.818,327.583 321.181 C 319.945 314.011,321.779 314.286,307.480 318.170 C 300.849 319.972,294.327 316.350,281.986 304.013 C 269.954 291.985,269.518 290.922,271.753 279.055 C 273.485 269.860,273.890 270.989,266.361 264.020 C 259.380 257.558,258.958 257.444,255.407 261.081 M239.049 265.415 C 238.912 265.773,238.818 266.456,238.841 266.933 C 238.867 267.481,239.003 267.286,239.210 266.403 C 239.560 264.916,239.465 264.333,239.049 265.415 M238.806 273.233 C 238.809 273.765,238.989 274.470,239.206 274.800 C 239.482 275.222,239.523 274.985,239.342 274.000 C 239.025 272.275,238.798 271.949,238.806 273.233 M282.901 285.800 C 282.905 286.680,282.987 286.993,283.083 286.495 C 283.179 285.998,283.175 285.278,283.075 284.895 C 282.975 284.513,282.896 284.920,282.901 285.800 M77.900 286.699 C 81.255 286.766,86.745 286.766,90.100 286.699 C 93.455 286.632,90.710 286.578,84.000 286.578 C 77.290 286.578,74.545 286.632,77.900 286.699 M135.900 286.699 C 139.255 286.766,144.745 286.766,148.100 286.699 C 151.455 286.632,148.710 286.578,142.000 286.578 C 135.290 286.578,132.545 286.632,135.900 286.699 M193.900 286.699 C 197.255 286.766,202.745 286.766,206.100 286.699 C 209.455 286.632,206.710 286.578,200.000 286.578 C 193.290 286.578,190.545 286.632,193.900 286.699 M102.400 303.400 C 103.146 304.170,103.847 304.800,103.957 304.800 C 104.067 304.800,103.546 304.170,102.800 303.400 C 102.054 302.630,101.353 302.000,101.243 302.000 C 101.133 302.000,101.654 302.630,102.400 303.400 M122.778 303.900 L 121.400 305.400 122.900 304.022 C 124.296 302.738,124.584 302.400,124.278 302.400 C 124.212 302.400,123.537 303.075,122.778 303.900 M180.778 303.900 L 179.400 305.400 180.900 304.022 C 182.296 302.738,182.584 302.400,182.278 302.400 C 182.212 302.400,181.537 303.075,180.778 303.900 M218.800 303.800 C 219.546 304.570,220.247 305.200,220.357 305.200 C 220.467 305.200,219.946 304.570,219.200 303.800 C 218.454 303.030,217.753 302.400,217.643 302.400 C 217.533 302.400,218.054 303.030,218.800 303.800 M318.100 303.091 C 318.925 303.178,320.275 303.178,321.100 303.091 C 321.925 303.005,321.250 302.934,319.600 302.934 C 317.950 302.934,317.275 303.005,318.100 303.091 M329.200 306.125 C 329.200 306.194,329.785 306.779,330.500 307.425 L 331.800 308.600 330.625 307.300 C 329.530 306.088,329.200 305.816,329.200 306.125 M177.443 310.233 C 177.095 311.139,177.154 329.308,177.506 329.862 C 177.668 330.116,177.800 325.661,177.800 319.962 C 177.800 314.263,177.774 309.600,177.743 309.600 C 177.711 309.600,177.576 309.885,177.443 310.233 M222.200 320.000 C 222.200 325.678,222.332 330.116,222.494 329.862 C 222.656 329.608,222.788 325.170,222.788 320.000 C 222.788 314.830,222.656 310.392,222.494 310.138 C 222.332 309.884,222.200 314.322,222.200 320.000 M119.373 320.000 C 119.373 325.390,119.430 327.595,119.499 324.900 C 119.568 322.205,119.568 317.795,119.499 315.100 C 119.430 312.405,119.373 314.610,119.373 320.000 M336.200 312.800 C 337.283 313.900,338.260 314.800,338.370 314.800 C 338.480 314.800,337.683 313.900,336.600 312.800 C 335.517 311.700,334.540 310.800,334.430 310.800 C 334.320 310.800,335.117 311.700,336.200 312.800 M164.571 320.000 C 164.571 324.950,164.628 326.975,164.699 324.500 C 164.769 322.025,164.769 317.975,164.699 315.500 C 164.628 313.025,164.571 315.050,164.571 320.000 M79.100 312.699 C 81.795 312.768,86.205 312.768,88.900 312.699 C 91.595 312.630,89.390 312.573,84.000 312.573 C 78.610 312.573,76.405 312.630,79.100 312.699 M132.178 312.914 C 132.069 313.197,132.034 316.572,132.100 320.414 L 132.220 327.400 132.310 320.107 L 132.400 312.814 142.300 312.700 L 152.200 312.585 142.287 312.493 C 134.514 312.420,132.332 312.511,132.178 312.914 M195.100 312.699 C 197.795 312.768,202.205 312.768,204.900 312.699 C 207.595 312.630,205.390 312.573,200.000 312.573 C 194.610 312.573,192.405 312.630,195.100 312.699 M73.677 319.900 C 73.635 323.915,73.735 327.200,73.900 327.201 C 74.065 327.201,74.153 324.996,74.096 322.301 C 73.906 313.371,73.755 312.508,73.677 319.900 M94.166 320.000 C 94.166 324.070,94.225 325.735,94.298 323.700 C 94.371 321.665,94.371 318.335,94.298 316.300 C 94.225 314.265,94.166 315.930,94.166 320.000 M265.800 320.000 C 267.328 321.540,268.669 322.800,268.779 322.800 C 268.889 322.800,267.728 321.540,266.200 320.000 C 264.672 318.460,263.331 317.200,263.221 317.200 C 263.111 317.200,264.272 318.460,265.800 320.000 M180.800 336.200 C 181.546 336.970,182.247 337.600,182.357 337.600 C 182.467 337.600,181.946 336.970,181.200 336.200 C 180.454 335.430,179.753 334.800,179.643 334.800 C 179.533 334.800,180.054 335.430,180.800 336.200 M218.778 336.300 L 217.400 337.800 218.900 336.422 C 220.296 335.138,220.584 334.800,220.278 334.800 C 220.212 334.800,219.537 335.475,218.778 336.300 M102.575 336.500 L 101.400 337.800 102.700 336.625 C 103.912 335.530,104.184 335.200,103.875 335.200 C 103.806 335.200,103.221 335.785,102.575 336.500 M160.575 336.500 L 159.400 337.800 160.700 336.625 C 161.912 335.530,162.184 335.200,161.875 335.200 C 161.806 335.200,161.221 335.785,160.575 336.500 M338.181 342.500 L 336.600 344.200 338.300 342.619 C 339.881 341.148,340.184 340.800,339.881 340.800 C 339.816 340.800,339.051 341.565,338.181 342.500 M320.700 349.489 C 321.415 349.578,322.585 349.578,323.300 349.489 C 324.015 349.401,323.430 349.328,322.000 349.328 C 320.570 349.328,319.985 349.401,320.700 349.489 " stroke="none" fill="#a6dcec" fill-rule="evenodd"></path><path id="path4" d="M68.900 32.276 C 69.285 32.376,69.915 32.376,70.300 32.276 C 70.685 32.175,70.370 32.093,69.600 32.093 C 68.830 32.093,68.515 32.175,68.900 32.276 M121.105 32.283 C 121.602 32.379,122.322 32.375,122.705 32.275 C 123.087 32.175,122.680 32.096,121.800 32.101 C 120.920 32.105,120.607 32.187,121.105 32.283 M173.105 32.283 C 173.602 32.379,174.322 32.375,174.705 32.275 C 175.087 32.175,174.680 32.096,173.800 32.101 C 172.920 32.105,172.607 32.187,173.105 32.283 M225.300 32.276 C 225.685 32.376,226.315 32.376,226.700 32.276 C 227.085 32.175,226.770 32.093,226.000 32.093 C 225.230 32.093,224.915 32.175,225.300 32.276 M277.300 32.276 C 277.685 32.376,278.315 32.376,278.700 32.276 C 279.085 32.175,278.770 32.093,278.000 32.093 C 277.230 32.093,276.915 32.175,277.300 32.276 M329.505 32.283 C 330.002 32.379,330.722 32.375,331.105 32.275 C 331.487 32.175,331.080 32.096,330.200 32.101 C 329.320 32.105,329.007 32.187,329.505 32.283 M324.981 50.600 C 324.981 58.740,325.034 62.013,325.100 57.874 C 325.165 53.734,325.165 47.074,325.099 43.074 C 325.034 39.073,324.981 42.460,324.981 50.600 M178.981 50.600 C 178.980 58.520,179.034 61.817,179.099 57.926 C 179.165 54.035,179.165 47.555,179.100 43.526 C 179.034 39.497,178.981 42.680,178.981 50.600 M220.580 50.600 C 220.580 58.300,220.634 61.393,220.699 57.474 C 220.765 53.555,220.765 47.255,220.699 43.474 C 220.634 39.693,220.580 42.900,220.580 50.600 M283.380 50.600 C 283.380 58.300,283.434 61.393,283.499 57.474 C 283.565 53.555,283.565 47.255,283.499 43.474 C 283.434 39.693,283.380 42.900,283.380 50.600 M335.380 50.600 C 335.380 58.300,335.434 61.393,335.499 57.474 C 335.565 53.555,335.565 47.255,335.499 43.474 C 335.434 39.693,335.380 42.900,335.380 50.600 M168.579 50.600 C 168.579 57.860,168.633 60.886,168.699 57.325 C 168.765 53.764,168.766 47.824,168.699 44.125 C 168.633 40.426,168.579 43.340,168.579 50.600 M74.979 50.800 C 74.979 57.950,75.033 60.875,75.099 57.300 C 75.166 53.725,75.166 47.875,75.099 44.300 C 75.033 40.725,74.979 43.650,74.979 50.800 M40.800 78.800 L 40.800 100.400 44.551 100.400 C 50.164 100.400,54.352 103.002,53.427 105.915 C 53.228 106.543,53.761 106.600,59.800 106.600 C 65.839 106.600,66.372 106.543,66.173 105.915 C 65.737 104.541,67.767 101.879,69.949 100.965 C 71.103 100.482,94.147 100.400,229.661 100.400 L 388.024 100.400 387.871 89.300 C 387.787 83.195,387.523 77.300,387.284 76.200 C 386.521 72.687,386.312 71.993,385.952 71.770 C 385.759 71.651,385.600 71.285,385.600 70.958 C 385.600 67.954,376.085 58.800,372.962 58.800 C 372.653 58.800,372.400 58.620,372.400 58.400 C 372.400 58.180,371.871 58.000,371.224 58.000 C 370.577 58.000,369.936 57.820,369.800 57.600 C 369.648 57.354,366.396 57.200,361.376 57.200 L 353.200 57.200 353.200 59.771 C 353.200 75.733,344.058 86.000,329.847 86.000 C 316.621 86.000,307.200 75.880,307.200 61.673 L 307.200 57.200 304.000 57.200 L 300.800 57.200 300.786 61.700 C 300.740 76.031,291.437 86.000,278.108 86.000 C 264.798 86.000,255.877 76.949,255.242 62.800 L 255.000 57.400 251.962 57.284 L 248.924 57.169 248.670 62.684 C 248.017 76.860,239.054 86.010,225.834 85.996 C 212.455 85.981,203.699 76.926,203.309 62.700 L 203.158 57.200 199.979 57.200 L 196.800 57.200 196.794 61.300 C 196.772 75.739,187.235 86.010,173.862 85.996 C 160.283 85.981,150.864 75.888,150.814 61.300 L 150.800 57.200 147.600 57.200 L 144.400 57.200 144.400 61.980 C 144.400 93.741,100.232 94.440,98.910 62.700 L 98.681 57.200 95.592 57.200 L 92.503 57.200 92.286 62.700 C 91.976 70.589,90.402 74.661,85.906 79.199 C 83.637 81.489,79.349 84.400,78.245 84.400 C 77.964 84.400,77.605 84.529,77.447 84.686 C 75.998 86.135,67.062 86.434,63.166 85.163 C 52.530 81.696,46.817 73.572,46.805 61.900 L 46.800 57.200 43.800 57.200 L 40.800 57.200 40.800 78.800 M225.300 69.076 C 225.685 69.176,226.315 69.176,226.700 69.076 C 227.085 68.975,226.770 68.893,226.000 68.893 C 225.230 68.893,224.915 68.975,225.300 69.076 M277.300 69.076 C 277.685 69.176,278.315 69.176,278.700 69.076 C 279.085 68.975,278.770 68.893,278.000 68.893 C 277.230 68.893,276.915 68.975,277.300 69.076 M20.927 113.100 C 25.947 113.163,34.047 113.163,38.927 113.100 C 43.807 113.036,39.700 112.984,29.800 112.984 C 19.900 112.984,15.907 113.036,20.927 113.100 M150.900 113.100 C 194.405 113.156,265.595 113.156,309.100 113.100 C 352.605 113.044,317.010 112.998,230.000 112.998 C 142.990 112.998,107.395 113.044,150.900 113.100 M11.797 229.200 C 11.797 292.890,11.844 318.945,11.900 287.100 C 11.956 255.255,11.956 203.145,11.900 171.300 C 11.844 139.455,11.797 165.510,11.797 229.200 M388.196 196.000 C 388.196 241.430,388.243 260.015,388.300 237.300 C 388.357 214.585,388.357 177.415,388.300 154.700 C 388.243 131.985,388.196 150.570,388.196 196.000 M38.979 151.800 C 38.979 159.060,39.033 162.086,39.099 158.525 C 39.165 154.964,39.166 149.024,39.099 145.325 C 39.033 141.626,38.979 144.540,38.979 151.800 M360.978 152.000 C 360.978 158.930,361.033 161.765,361.099 158.300 C 361.166 154.835,361.166 149.165,361.099 145.700 C 361.033 142.235,360.978 145.070,360.978 152.000 M126.300 177.500 C 166.835 177.556,233.165 177.556,273.700 177.500 C 314.235 177.444,281.070 177.398,200.000 177.398 C 118.930 177.398,85.765 177.444,126.300 177.500 M333.600 196.125 C 333.600 196.194,334.185 196.779,334.900 197.425 L 336.200 198.600 335.025 197.300 C 333.930 196.088,333.600 195.816,333.600 196.125 M131.767 213.200 C 131.767 217.490,131.826 219.245,131.898 217.100 C 131.970 214.955,131.970 211.445,131.898 209.300 C 131.826 207.155,131.767 208.910,131.767 213.200 M152.090 213.093 L 152.000 220.786 142.100 220.900 L 132.200 221.015 142.113 221.107 C 149.874 221.180,152.068 221.089,152.222 220.687 C 152.330 220.405,152.365 216.850,152.300 212.787 L 152.181 205.400 152.090 213.093 M189.767 213.200 C 189.767 217.490,189.826 219.245,189.898 217.100 C 189.970 214.955,189.970 211.445,189.898 209.300 C 189.826 207.155,189.767 208.910,189.767 213.200 M210.167 213.200 C 210.167 217.490,210.226 219.245,210.298 217.100 C 210.370 214.955,210.370 211.445,210.298 209.300 C 210.226 207.155,210.167 208.910,210.167 213.200 M247.786 213.200 L 247.800 221.000 257.700 221.011 L 267.600 221.021 257.809 220.904 L 248.017 220.786 247.895 213.093 L 247.773 205.400 247.786 213.200 M268.167 213.200 C 268.167 217.490,268.226 219.245,268.298 217.100 C 268.370 214.955,268.370 211.445,268.298 209.300 C 268.226 207.155,268.167 208.910,268.167 213.200 M79.323 221.099 C 82.141 221.168,86.641 221.168,89.323 221.099 C 92.005 221.030,89.700 220.973,84.200 220.973 C 78.700 220.974,76.505 221.030,79.323 221.099 M195.100 221.099 C 197.795 221.168,202.205 221.168,204.900 221.099 C 207.595 221.030,205.390 220.973,200.000 220.973 C 194.610 220.973,192.405 221.030,195.100 221.099 M310.923 221.099 C 313.741 221.168,318.241 221.168,320.923 221.099 C 323.605 221.030,321.300 220.973,315.800 220.973 C 310.300 220.974,308.105 221.030,310.923 221.099 M78.324 233.099 C 81.473 233.167,86.513 233.167,89.524 233.099 C 92.536 233.031,89.960 232.976,83.800 232.976 C 77.640 232.976,75.176 233.032,78.324 233.099 M136.500 233.099 C 139.525 233.167,144.475 233.167,147.500 233.099 C 150.525 233.031,148.050 232.975,142.000 232.975 C 135.950 232.975,133.475 233.031,136.500 233.099 M194.500 233.099 C 197.525 233.167,202.475 233.167,205.500 233.099 C 208.525 233.031,206.050 232.975,200.000 232.975 C 193.950 232.975,191.475 233.031,194.500 233.099 M252.500 233.099 C 255.525 233.167,260.475 233.167,263.500 233.099 C 266.525 233.031,264.050 232.975,258.000 232.975 C 251.950 232.975,249.475 233.031,252.500 233.099 M310.724 233.099 C 313.873 233.167,318.913 233.167,321.924 233.099 C 324.936 233.031,322.360 232.976,316.200 232.976 C 310.040 232.976,307.576 233.032,310.724 233.099 M271.600 252.525 C 271.600 252.594,272.185 253.179,272.900 253.825 L 274.200 255.000 273.025 253.700 C 271.930 252.488,271.600 252.216,271.600 252.525 M131.778 259.313 C 131.669 259.596,131.630 263.061,131.690 267.013 L 131.800 274.200 142.000 274.200 L 152.200 274.200 152.213 266.500 L 152.227 258.799 152.105 266.400 L 151.983 274.000 141.975 274.000 L 131.967 274.000 132.083 266.400 C 132.198 258.923,132.171 258.289,131.778 259.313 M189.787 266.800 L 189.800 274.200 200.000 274.200 L 210.200 274.200 210.213 266.800 L 210.226 259.400 210.104 266.700 L 209.982 274.000 200.000 274.000 L 190.018 274.000 189.896 266.700 L 189.774 259.400 189.787 266.800 M280.000 260.600 C 280.746 261.370,281.447 262.000,281.557 262.000 C 281.667 262.000,281.146 261.370,280.400 260.600 C 279.654 259.830,278.953 259.200,278.843 259.200 C 278.733 259.200,279.254 259.830,280.000 260.600 M238.928 270.000 C 238.928 271.430,239.001 272.015,239.089 271.300 C 239.178 270.585,239.178 269.415,239.089 268.700 C 239.001 267.985,238.928 268.570,238.928 270.000 M78.876 274.299 C 81.668 274.367,86.348 274.368,89.276 274.299 C 92.204 274.231,89.920 274.175,84.200 274.174 C 78.480 274.174,76.084 274.230,78.876 274.299 M78.325 300.299 C 81.693 300.366,87.093 300.366,90.325 300.299 C 93.556 300.232,90.800 300.177,84.200 300.177 C 77.600 300.177,74.956 300.232,78.325 300.299 M135.925 300.299 C 139.293 300.366,144.693 300.366,147.925 300.299 C 151.156 300.232,148.400 300.177,141.800 300.177 C 135.200 300.177,132.556 300.232,135.925 300.299 M194.100 300.299 C 197.345 300.366,202.655 300.366,205.900 300.299 C 209.145 300.232,206.490 300.177,200.000 300.177 C 193.510 300.177,190.855 300.232,194.100 300.299 M388.187 322.800 C 388.187 335.010,388.238 340.005,388.300 333.900 C 388.362 327.795,388.362 317.805,388.300 311.700 C 388.238 305.595,388.187 310.590,388.187 322.800 M131.867 312.667 C 131.363 313.170,131.562 327.002,132.080 327.520 C 132.427 327.867,135.252 328.000,142.272 328.000 L 151.985 328.000 152.206 327.100 C 152.328 326.605,152.372 323.140,152.304 319.400 L 152.179 312.600 152.090 319.900 L 152.000 327.200 141.983 327.200 L 131.966 327.200 132.083 319.800 C 132.147 315.729,132.185 312.399,132.167 312.400 C 132.148 312.400,132.013 312.520,131.867 312.667 M189.867 312.667 C 189.363 313.170,189.562 327.002,190.080 327.520 C 190.426 327.866,193.191 328.000,200.000 328.000 C 206.809 328.000,209.574 327.866,209.920 327.520 C 210.459 326.981,210.628 312.989,210.100 312.661 C 209.935 312.559,209.853 315.788,209.917 319.838 L 210.034 327.200 200.000 327.200 L 189.966 327.200 190.083 319.800 C 190.147 315.729,190.185 312.399,190.167 312.400 C 190.148 312.400,190.013 312.520,189.867 312.667 M340.200 316.800 C 341.283 317.900,342.260 318.800,342.370 318.800 C 342.480 318.800,341.683 317.900,340.600 316.800 C 339.517 315.700,338.540 314.800,338.430 314.800 C 338.320 314.800,339.117 315.700,340.200 316.800 M345.324 328.200 C 345.326 329.520,345.401 330.012,345.490 329.293 C 345.579 328.574,345.577 327.494,345.486 326.893 C 345.395 326.292,345.322 326.880,345.324 328.200 M74.000 327.600 C 74.817 328.128,93.874 328.128,94.200 327.600 C 94.362 327.337,90.839 327.202,83.924 327.206 C 76.981 327.210,73.604 327.344,74.000 327.600 M77.900 339.899 C 81.255 339.966,86.745 339.966,90.100 339.899 C 93.455 339.832,90.710 339.778,84.000 339.778 C 77.290 339.778,74.545 339.832,77.900 339.899 M135.900 339.899 C 139.255 339.966,144.745 339.966,148.100 339.899 C 151.455 339.832,148.710 339.778,142.000 339.778 C 135.290 339.778,132.545 339.832,135.900 339.899 M193.900 339.899 C 197.255 339.966,202.745 339.966,206.100 339.899 C 209.455 339.832,206.710 339.778,200.000 339.778 C 193.290 339.778,190.545 339.832,193.900 339.899 M18.400 360.600 C 19.146 361.370,19.847 362.000,19.957 362.000 C 20.067 362.000,19.546 361.370,18.800 360.600 C 18.054 359.830,17.353 359.200,17.243 359.200 C 17.133 359.200,17.654 359.830,18.400 360.600 M380.981 360.900 L 379.400 362.600 381.100 361.019 C 382.035 360.149,382.800 359.384,382.800 359.319 C 382.800 359.016,382.452 359.319,380.981 360.900 M116.300 367.900 C 162.335 367.956,237.665 367.956,283.700 367.900 C 329.735 367.844,292.070 367.798,200.000 367.798 C 107.930 367.798,70.265 367.844,116.300 367.900 " stroke="none" fill="#eb848b" fill-rule="evenodd"></path></g></svg>