<svg id="svg" version="1.1" xmlns="http://www.w3.org/2000/svg" xmlns:xlink="http://www.w3.org/1999/xlink" width="400" height="323.3846153846154" viewBox="0, 0, 400,323.3846153846154"><g id="svgg"><path id="path0" d="M0.000 161.692 L 0.000 323.385 200.000 323.385 L 400.000 323.385 400.000 161.692 L 400.000 0.000 200.000 0.000 L 0.000 0.000 0.000 161.692 M177.483 67.527 C 193.158 70.824,201.281 90.781,193.355 106.520 C 183.592 125.908,159.985 125.197,151.254 105.252 C 142.452 85.148,157.611 63.347,177.483 67.527 M169.692 73.218 C 155.780 76.235,150.247 93.521,158.976 106.698 C 168.950 121.754,189.156 113.869,190.362 94.450 C 191.147 81.807,180.503 70.873,169.692 73.218 M232.830 76.451 C 249.294 81.652,253.338 104.820,239.919 117.067 C 226.553 129.266,206.605 118.113,206.641 98.462 C 206.669 83.171,219.627 72.280,232.830 76.451 M223.761 82.279 C 215.786 84.888,211.127 93.589,213.058 102.268 C 214.151 107.179,218.134 112.930,221.538 114.512 C 222.131 114.787,223.018 115.200,223.510 115.429 C 228.744 117.870,236.249 113.911,239.817 106.828 C 246.145 94.262,235.743 78.358,223.761 82.279 M180.923 124.791 C 192.277 126.531,201.816 131.837,208.420 140.089 C 212.144 144.741,207.956 148.680,204.016 144.231 C 184.352 122.023,148.442 126.831,136.807 153.231 C 136.322 154.331,135.823 155.440,135.698 155.696 C 135.347 156.415,134.426 159.629,133.936 161.846 C 133.241 164.993,133.053 179.030,133.695 179.846 C 134.148 180.421,134.546 180.462,139.782 180.462 L 145.385 180.462 145.538 170.277 C 145.707 159.128,145.663 159.380,147.598 158.571 C 148.987 157.990,150.769 158.619,151.351 159.894 C 151.579 160.395,151.692 163.966,151.692 170.630 L 151.692 180.615 160.184 180.615 L 168.676 180.615 169.600 181.605 C 170.768 182.855,170.676 184.660,169.386 185.769 L 168.581 186.462 151.115 186.462 C 130.207 186.462,130.286 186.477,127.900 182.019 C 126.587 179.566,126.832 165.822,128.301 159.538 C 133.891 135.632,156.075 120.983,180.923 124.791 M236.000 125.037 C 243.407 126.750,249.505 130.129,254.839 135.475 C 256.324 136.963,257.538 138.250,257.538 138.334 C 257.538 138.419,258.073 139.211,258.726 140.095 C 261.106 143.318,260.391 146.154,257.196 146.154 C 255.924 146.154,255.388 145.757,253.660 143.540 C 252.378 141.896,248.165 137.587,247.340 137.077 C 247.067 136.908,246.238 136.341,245.498 135.819 C 244.302 134.973,241.947 133.702,239.231 132.438 C 232.742 129.417,221.749 129.584,214.400 132.815 C 210.574 134.497,207.694 132.623,209.071 129.348 C 210.784 125.275,226.293 122.792,236.000 125.037 M265.322 152.766 C 271.001 154.245,275.596 158.825,277.067 164.474 C 277.904 167.688,277.760 214.131,276.904 217.237 C 274.753 225.034,269.083 228.841,259.154 229.153 L 254.154 229.311 254.154 237.763 C 254.154 247.137,254.045 247.757,252.198 248.892 C 248.938 250.896,248.520 250.626,237.028 239.106 L 227.212 229.265 208.144 229.162 C 189.437 229.061,189.039 229.046,187.055 228.380 C 181.738 226.595,177.631 222.249,176.284 216.985 C 175.447 213.711,175.364 167.992,176.189 164.635 C 177.578 158.983,182.147 154.295,187.727 152.794 C 190.251 152.115,262.723 152.089,265.322 152.766 M189.947 158.470 C 186.440 159.178,183.021 162.317,182.123 165.652 C 181.900 166.482,181.802 174.710,181.821 191.055 L 181.849 215.231 182.759 217.091 C 183.891 219.404,185.334 220.870,187.617 222.028 L 189.385 222.923 209.245 223.077 C 226.944 223.214,229.188 223.286,229.872 223.734 C 230.294 224.011,234.511 228.095,239.243 232.811 L 247.846 241.385 248.000 233.791 C 248.217 223.090,248.026 223.306,257.483 223.077 C 264.677 222.903,266.006 222.527,268.570 219.936 C 271.734 216.741,271.726 216.818,271.625 189.488 L 271.538 166.294 270.527 164.240 C 268.974 161.087,266.432 159.095,263.177 158.483 C 261.299 158.129,191.692 158.117,189.947 158.470 M210.309 174.462 C 210.754 174.631,211.576 175.254,212.134 175.847 C 213.737 177.546,216.271 177.312,217.834 175.319 C 220.366 172.089,224.664 175.983,222.340 179.402 C 218.806 184.603,208.289 183.844,206.444 178.255 C 205.623 175.767,207.890 173.542,210.309 174.462 M235.385 175.329 C 237.037 177.246,239.435 177.535,240.968 176.003 C 242.952 174.019,243.956 173.730,245.565 174.680 C 249.253 176.858,245.335 182.382,239.685 182.972 C 234.155 183.550,228.607 179.158,230.469 175.678 C 231.376 173.984,234.061 173.794,235.385 175.329 M204.164 193.907 C 204.609 194.109,205.232 194.783,205.549 195.405 C 212.504 209.037,238.073 209.377,247.355 195.960 C 250.884 190.858,255.418 194.600,252.022 199.812 C 241.566 215.861,211.666 215.863,201.211 199.816 C 198.711 195.979,200.566 192.267,204.164 193.907 M169.569 197.571 C 170.981 199.083,170.519 201.796,168.734 202.475 C 168.274 202.650,160.813 202.769,150.336 202.769 L 132.712 202.769 131.364 203.482 C 130.378 204.004,129.806 204.601,129.238 205.704 L 128.462 207.213 128.368 222.003 C 128.242 241.803,128.251 241.824,136.923 241.855 C 142.497 241.875,143.329 242.678,143.404 248.104 C 143.432 250.077,143.507 251.692,143.572 251.692 C 143.907 251.692,149.846 245.699,149.846 245.361 C 149.846 245.143,150.119 244.878,150.454 244.772 C 150.788 244.666,151.307 244.274,151.607 243.901 C 153.346 241.742,152.602 241.846,166.272 241.844 C 173.667 241.843,179.066 241.718,179.739 241.531 C 181.761 240.969,183.685 238.157,183.691 235.755 C 183.694 234.167,186.045 232.856,187.676 233.532 C 191.623 235.167,189.205 243.395,183.883 246.441 C 181.365 247.881,180.298 247.986,167.847 248.007 L 156.241 248.028 149.981 254.218 C 142.662 261.455,143.368 260.915,141.231 260.908 C 137.838 260.897,137.215 259.703,137.182 253.149 L 137.157 248.071 134.609 248.028 C 128.992 247.932,124.308 244.791,122.923 240.190 C 122.131 237.560,122.244 206.250,123.054 204.052 C 124.336 200.568,127.450 197.728,130.887 196.907 C 131.415 196.781,140.133 196.664,150.261 196.647 L 168.676 196.615 169.569 197.571 M168.700 212.968 C 170.660 214.017,171.072 216.360,169.562 217.870 L 168.663 218.769 154.462 218.769 L 140.260 218.769 139.361 217.870 C 137.940 216.448,138.279 214.018,140.034 213.045 C 141.025 212.495,167.683 212.424,168.700 212.968 M159.481 225.786 C 160.863 227.228,160.489 229.726,158.757 230.622 C 157.923 231.053,156.629 231.106,149.026 231.021 L 140.256 230.923 139.359 229.918 C 138.084 228.491,138.104 226.817,139.408 225.720 L 140.355 224.923 149.505 224.923 L 158.654 224.923 159.481 225.786 " stroke="none" fill="#fbfbfb" fill-rule="evenodd"></path><path id="path1" d="M168.308 67.516 C 149.811 71.621,142.707 95.135,155.060 111.362 C 158.220 115.514,163.300 119.003,167.641 120.003 L 169.283 120.382 170.564 119.191 C 171.792 118.050,171.803 118.046,170.846 119.092 C 169.408 120.661,169.501 120.719,173.154 120.542 C 185.029 119.967,195.018 109.324,196.188 96.000 L 196.390 93.692 195.349 94.615 L 194.308 95.537 195.354 94.398 L 196.401 93.259 196.199 90.707 C 195.769 85.266,196.167 85.863,186.574 76.266 L 178.049 67.737 176.153 67.407 C 173.746 66.988,170.482 67.033,168.308 67.516 M186.604 75.988 C 190.995 80.382,194.646 83.918,194.718 83.846 C 194.942 83.622,192.721 79.199,191.444 77.326 C 188.683 73.278,181.547 68.000,178.837 68.000 C 178.718 68.000,182.213 71.595,186.604 75.988 M177.966 73.786 C 186.950 77.054,192.653 88.669,190.054 98.407 L 189.617 100.045 190.732 99.023 L 191.846 98.001 190.656 99.281 C 190.002 99.985,189.149 101.342,188.761 102.297 C 186.528 107.791,182.117 112.335,177.426 113.975 C 176.310 114.365,175.160 114.876,174.870 115.111 C 174.520 115.395,174.421 115.409,174.574 115.154 C 174.751 114.860,174.265 114.769,172.512 114.769 C 160.407 114.769,151.302 99.185,155.730 86.043 C 159.085 76.083,169.102 70.561,177.966 73.786 M193.846 96.096 C 193.846 96.149,193.396 96.599,192.846 97.096 L 191.846 98.000 192.750 97.000 C 193.592 96.068,193.846 95.859,193.846 96.096 M174.154 115.789 C 174.154 115.842,173.704 116.292,173.154 116.789 L 172.154 117.692 173.058 116.692 C 173.900 115.760,174.154 115.551,174.154 115.789 M165.806 124.759 C 152.981 126.863,141.488 134.208,134.827 144.556 C 132.794 147.713,130.390 152.616,130.558 153.260 C 130.643 153.583,130.598 153.777,130.458 153.690 C 130.060 153.444,128.526 158.583,127.845 162.447 C 127.146 166.409,127.218 179.995,127.946 181.642 C 130.030 186.354,129.801 186.308,151.027 186.308 L 168.669 186.308 169.411 185.444 C 169.878 184.902,170.154 184.197,170.154 183.546 C 170.154 180.726,169.765 180.615,159.861 180.615 L 151.692 180.615 151.692 170.913 C 151.692 160.604,151.559 159.521,150.200 158.794 C 149.143 158.228,147.799 158.411,146.793 159.258 L 145.846 160.055 145.846 170.335 L 145.846 180.615 140.048 180.615 C 132.777 180.615,133.122 180.849,132.974 175.823 C 132.736 167.752,133.627 160.870,135.544 155.983 C 136.171 154.385,136.703 152.777,136.727 152.410 C 136.750 152.044,136.826 151.800,136.896 151.870 C 136.965 151.939,137.173 151.716,137.357 151.374 C 138.788 148.717,141.756 144.653,143.826 142.515 C 145.191 141.106,146.290 139.767,146.269 139.540 C 146.245 139.286,146.415 139.197,146.707 139.309 C 147.053 139.441,147.131 139.354,146.992 138.992 C 146.856 138.637,146.932 138.543,147.258 138.668 C 147.913 138.920,149.068 137.832,148.546 137.455 C 148.270 137.257,148.318 137.226,148.706 137.351 C 149.026 137.454,149.801 137.194,150.552 136.731 C 153.447 134.945,153.305 135.079,152.882 134.518 C 152.552 134.080,152.558 134.059,152.923 134.385 C 153.556 134.949,153.991 134.853,153.499 134.257 C 153.117 133.794,153.141 133.780,153.752 134.105 C 154.420 134.461,156.000 134.064,156.000 133.540 C 156.000 133.426,156.173 133.321,156.385 133.307 C 156.596 133.292,158.175 132.790,159.893 132.190 C 175.086 126.889,193.338 131.484,203.215 143.098 C 205.741 146.067,206.656 146.546,208.242 145.726 C 211.038 144.280,209.932 141.311,204.716 136.266 C 195.432 127.286,179.366 122.535,165.806 124.759 M188.389 152.772 C 180.555 154.481,176.128 160.614,175.775 170.247 L 175.608 174.801 176.496 175.784 L 177.385 176.767 176.526 176.010 L 175.667 175.254 175.760 195.396 L 175.853 215.538 176.572 217.672 C 177.168 219.442,177.740 220.661,178.376 221.520 C 178.431 221.594,179.199 220.971,180.084 220.135 L 181.692 218.615 180.201 220.195 C 178.433 222.067,178.451 222.146,181.202 224.694 C 185.699 228.857,186.125 228.923,208.443 228.923 L 226.911 228.923 236.917 238.905 C 246.932 248.897,247.707 249.538,249.753 249.538 C 253.515 249.538,254.139 247.802,254.147 237.308 L 254.154 228.923 258.846 228.919 C 268.561 228.912,274.707 224.942,276.810 217.317 C 277.581 214.520,277.708 167.146,276.951 164.462 C 275.277 158.516,269.991 153.544,264.461 152.713 C 261.407 152.254,190.510 152.309,188.389 152.772 M266.088 159.356 C 268.359 160.588,269.636 161.943,270.738 164.294 L 271.538 166.000 271.538 190.769 L 271.538 215.538 270.628 217.337 C 268.317 221.902,265.554 223.134,257.252 223.297 C 248.160 223.477,248.495 223.076,248.370 233.923 C 248.320 238.281,248.247 241.846,248.209 241.846 C 248.170 241.846,244.215 237.921,239.420 233.123 C 234.625 228.326,230.304 224.166,229.819 223.879 C 228.960 223.372,224.307 222.923,224.308 223.347 C 224.308 223.452,216.520 223.469,207.000 223.385 L 189.692 223.231 187.653 222.233 C 185.784 221.318,183.937 219.702,183.146 218.287 C 182.868 217.792,182.758 217.775,182.261 218.152 C 181.732 218.551,181.727 218.544,182.179 218.046 C 182.623 217.557,182.617 217.371,182.112 215.909 C 181.606 214.446,181.558 212.873,181.549 197.712 L 181.538 181.117 180.846 180.330 L 180.154 179.543 180.846 180.127 L 181.538 180.711 181.538 173.950 C 181.538 164.965,182.294 162.598,185.958 160.097 C 188.908 158.083,186.607 158.186,227.231 158.250 L 264.154 158.308 266.088 159.356 M207.305 175.243 C 205.465 176.949,206.882 180.127,210.294 181.946 C 211.775 182.736,217.834 182.956,218.077 182.229 C 218.148 182.016,218.329 181.918,218.479 182.011 C 219.146 182.423,221.895 180.192,222.732 178.559 C 223.305 177.441,223.127 177.378,222.077 178.326 L 221.077 179.229 222.107 178.107 C 224.672 175.314,220.628 173.029,217.762 175.652 C 215.511 177.713,213.679 177.719,211.673 175.672 C 210.187 174.157,208.640 174.005,207.305 175.243 M231.053 175.361 C 229.521 176.893,230.291 179.356,232.875 181.197 C 237.307 184.352,245.539 182.467,246.724 178.025 C 247.544 174.949,243.919 173.129,241.731 175.518 C 239.785 177.643,237.503 177.697,235.435 175.670 C 233.842 174.109,232.407 174.008,231.053 175.361 M178.942 178.231 L 179.846 179.231 178.846 178.327 C 178.296 177.830,177.846 177.380,177.846 177.327 C 177.846 177.089,178.100 177.299,178.942 178.231 M220.923 179.478 C 220.923 179.530,220.404 180.049,219.769 180.632 L 218.615 181.692 219.676 180.538 C 220.663 179.464,220.923 179.243,220.923 179.478 M200.811 194.657 C 199.586 195.883,200.023 199.669,201.299 198.881 C 201.501 198.756,201.545 198.818,201.411 199.035 C 200.890 199.877,204.750 204.179,207.971 206.347 C 219.711 214.245,237.387 213.450,247.575 204.565 C 252.476 200.290,254.307 196.545,252.420 194.657 C 250.802 193.040,248.851 193.604,247.444 196.095 C 240.332 208.698,215.361 209.362,206.604 197.181 C 205.954 196.278,205.383 195.484,205.334 195.418 C 205.285 195.351,205.000 195.487,204.700 195.720 C 204.197 196.110,204.198 196.092,204.712 195.487 C 206.020 193.950,202.308 193.160,200.811 194.657 M203.692 196.712 C 203.692 196.765,203.242 197.215,202.692 197.712 L 201.692 198.615 202.596 197.615 C 203.438 196.683,203.692 196.474,203.692 196.712 M225.712 225.000 L 226.615 226.000 225.615 225.096 C 224.683 224.254,224.474 224.000,224.712 224.000 C 224.765 224.000,225.215 224.450,225.712 225.000 M228.173 227.462 L 229.077 228.462 228.077 227.558 C 227.145 226.715,226.935 226.462,227.173 226.462 C 227.226 226.462,227.676 226.912,228.173 227.462 M230.635 229.923 L 231.538 230.923 230.538 230.019 C 229.988 229.522,229.538 229.072,229.538 229.019 C 229.538 228.782,229.792 228.991,230.635 229.923 " stroke="none" fill="#223994" fill-rule="evenodd"></path><path id="path2" d="M222.308 76.596 C 206.080 81.446,201.356 103.618,213.923 115.949 C 224.169 126.002,238.410 123.013,245.090 109.407 C 248.378 102.711,248.516 93.280,245.404 88.000 C 245.055 87.408,244.492 86.371,244.154 85.696 C 240.698 78.807,229.924 74.319,222.308 76.596 M232.154 82.445 C 242.430 86.921,245.312 100.867,237.953 110.509 C 226.067 126.080,205.427 107.318,214.726 89.395 C 218.071 82.948,226.025 79.776,232.154 82.445 M221.538 124.628 C 218.501 125.141,215.178 126.142,211.846 127.545 C 211.338 127.759,210.703 128.005,210.433 128.093 C 209.376 128.435,208.801 130.397,209.381 131.684 C 210.163 133.418,211.520 133.743,213.788 132.740 C 224.049 128.202,237.527 129.514,246.222 135.896 C 247.050 136.504,247.905 136.907,248.160 136.810 C 248.437 136.703,248.615 136.815,248.615 137.093 C 248.615 137.784,251.769 140.848,252.605 140.970 C 253.219 141.060,254.119 142.151,254.534 143.310 C 254.579 143.436,254.717 143.505,254.841 143.463 C 254.965 143.422,255.153 143.734,255.259 144.156 C 255.365 144.578,255.583 144.923,255.744 144.923 C 255.905 144.923,255.951 145.062,255.846 145.231 C 255.612 145.610,256.382 145.641,256.785 145.268 C 256.945 145.119,257.593 144.833,258.224 144.631 C 258.854 144.430,259.352 144.171,259.329 144.055 C 259.306 143.940,259.401 143.584,259.540 143.263 C 259.708 142.875,259.647 142.566,259.358 142.340 C 259.119 142.153,258.683 141.481,258.390 140.846 C 258.096 140.212,257.646 139.692,257.390 139.692 C 257.093 139.692,256.923 139.402,256.923 138.895 C 256.923 137.768,252.956 133.735,252.152 134.043 C 251.752 134.197,251.659 134.150,251.826 133.879 C 252.774 132.345,242.441 126.799,235.606 125.174 C 232.694 124.482,224.323 124.157,221.538 124.628 M251.370 134.941 C 251.029 135.352,250.154 135.223,250.154 134.762 C 250.154 134.427,250.830 134.210,251.316 134.389 C 251.605 134.495,251.619 134.640,251.370 134.941 M256.429 139.871 C 256.872 141.028,256.646 141.583,255.772 141.482 C 254.749 141.364,254.449 140.379,255.256 139.790 C 255.976 139.263,256.201 139.279,256.429 139.871 M257.846 142.905 C 257.846 143.318,257.723 143.732,257.573 143.825 C 257.155 144.083,256.580 143.218,256.797 142.654 C 257.096 141.875,257.846 142.054,257.846 142.905 M129.622 197.673 C 126.230 199.109,123.554 202.323,122.792 205.874 C 122.285 208.238,122.367 236.536,122.888 238.962 C 124.004 244.162,128.139 247.325,134.261 247.662 L 137.599 247.846 137.646 253.275 C 137.688 258.144,137.753 258.772,138.278 259.352 C 138.991 260.140,139.434 260.194,139.174 259.462 C 139.048 259.108,139.319 259.237,139.963 259.837 C 140.806 260.622,141.029 260.698,141.545 260.375 C 141.875 260.169,142.330 260.000,142.556 260.000 C 142.781 260.000,143.254 259.668,143.607 259.263 C 143.960 258.857,144.438 258.407,144.670 258.263 C 144.902 258.118,145.331 257.624,145.623 257.164 C 145.934 256.675,146.334 256.396,146.585 256.492 C 146.821 256.583,147.119 256.488,147.247 256.281 C 147.421 256.000,147.232 255.954,146.509 256.098 C 145.975 256.205,145.538 256.164,145.538 256.006 C 145.538 255.849,146.034 255.627,146.640 255.514 C 147.246 255.400,147.814 255.117,147.904 254.884 C 147.993 254.652,148.371 254.462,148.745 254.462 C 149.198 254.462,150.437 253.430,152.479 251.352 L 155.534 248.242 154.306 247.202 C 153.383 246.422,153.219 246.162,153.648 246.158 C 153.962 246.156,154.639 246.507,155.152 246.939 L 156.085 247.724 168.581 247.631 L 181.077 247.538 182.760 246.653 C 188.136 243.824,191.226 237.318,188.492 234.585 C 186.393 232.485,184.379 233.611,183.684 237.272 C 182.814 241.862,182.438 241.970,166.658 242.154 L 153.470 242.308 152.581 243.373 C 152.092 243.959,151.692 244.547,151.692 244.681 C 151.692 244.814,151.529 244.923,151.330 244.923 C 151.130 244.923,149.608 246.273,147.948 247.923 C 145.166 250.687,144.441 251.692,145.228 251.692 C 145.395 251.692,145.298 251.966,145.011 252.301 C 144.724 252.636,144.412 252.784,144.317 252.631 C 144.097 252.275,143.004 252.366,142.663 252.769 C 142.520 252.939,142.513 252.801,142.647 252.462 C 143.373 250.630,143.151 244.719,142.333 244.074 C 141.896 243.731,141.538 243.302,141.538 243.120 C 141.538 242.416,140.204 242.154,136.626 242.154 C 128.141 242.154,128.270 242.465,128.299 222.075 C 128.325 204.481,128.202 205.483,130.567 203.571 L 131.749 202.615 150.209 202.462 L 168.669 202.308 169.412 201.444 C 170.339 200.365,170.365 199.030,169.481 197.834 L 168.807 196.923 150.019 196.957 C 131.353 196.992,131.220 196.996,129.622 197.673 M139.853 213.615 C 138.563 214.736,138.474 216.367,139.640 217.533 L 140.586 218.479 154.744 218.394 C 170.589 218.297,169.744 218.426,170.062 216.057 C 170.210 214.951,170.117 214.685,169.293 213.861 L 168.355 212.923 154.502 212.923 L 140.650 212.923 139.853 213.615 M141.319 225.138 C 138.647 225.490,137.943 229.085,140.306 230.307 C 141.930 231.146,157.786 230.858,158.978 229.967 C 160.248 229.018,160.248 226.674,158.978 225.726 C 158.134 225.095,144.968 224.657,141.319 225.138 M141.920 254.085 C 141.369 254.546,140.919 255.096,140.920 255.308 C 140.922 255.519,140.715 255.692,140.462 255.692 C 139.361 255.692,140.198 254.116,141.596 253.555 C 142.846 253.054,142.950 253.225,141.920 254.085 M143.637 257.486 C 143.739 258.179,142.985 258.444,142.615 257.845 C 142.487 257.639,142.233 257.639,141.848 257.845 C 140.897 258.354,139.940 258.231,140.057 257.615 C 140.130 257.233,140.560 257.024,141.541 256.895 C 143.363 256.655,143.521 256.699,143.637 257.486 " stroke="none" fill="#f8a431" fill-rule="evenodd"></path><path id="path3" d="M186.462 76.154 C 195.716 85.413,195.077 84.823,195.077 84.103 C 195.077 83.821,194.979 83.687,194.860 83.807 C 194.586 84.081,178.749 68.281,178.959 67.943 C 179.044 67.805,178.864 67.692,178.559 67.692 C 178.216 67.692,181.236 70.925,186.462 76.154 M157.522 72.846 L 156.462 74.000 157.615 72.940 C 158.689 71.953,158.911 71.692,158.676 71.692 C 158.624 71.692,158.105 72.212,157.522 72.846 M188.308 73.692 C 189.398 74.792,190.359 75.692,190.444 75.692 C 190.528 75.692,189.706 74.792,188.615 73.692 C 187.525 72.592,186.564 71.692,186.479 71.692 C 186.395 71.692,187.217 72.592,188.308 73.692 M155.356 75.000 C 154.038 76.470,153.438 77.231,153.596 77.231 C 153.681 77.231,154.334 76.538,155.047 75.692 C 156.419 74.065,156.642 73.566,155.356 75.000 M184.295 77.923 C 185.570 79.282,185.846 79.526,185.846 79.295 C 185.846 79.245,185.188 78.588,184.385 77.833 L 182.923 76.462 184.295 77.923 M193.445 80.765 C 193.726 81.356,194.011 81.784,194.078 81.717 C 194.219 81.576,193.285 79.692,193.074 79.692 C 192.996 79.692,193.163 80.175,193.445 80.765 M148.726 93.231 C 148.726 94.838,148.778 95.496,148.842 94.692 C 148.905 93.888,148.905 92.573,148.842 91.769 C 148.778 90.965,148.726 91.623,148.726 93.231 M154.545 93.231 C 154.545 93.992,154.605 94.304,154.679 93.923 C 154.752 93.542,154.752 92.919,154.679 92.538 C 154.605 92.158,154.545 92.469,154.545 93.231 M195.201 94.549 L 194.308 95.538 195.279 94.662 C 196.158 93.870,196.265 93.840,196.397 94.354 C 196.521 94.834,196.550 94.841,196.580 94.403 C 196.643 93.480,196.116 93.536,195.201 94.549 M192.750 97.000 L 191.846 98.000 192.846 97.096 C 193.396 96.599,193.846 96.149,193.846 96.096 C 193.846 95.859,193.592 96.068,192.750 97.000 M190.766 98.926 C 190.214 99.514,189.973 99.606,189.760 99.311 C 189.558 99.031,189.524 99.062,189.639 99.424 C 189.727 99.700,189.636 100.115,189.437 100.347 C 189.239 100.579,189.665 100.222,190.385 99.553 C 191.104 98.884,191.692 98.296,191.692 98.245 C 191.692 98.023,191.443 98.206,190.766 98.926 M183.692 109.692 C 182.945 110.454,182.403 111.077,182.487 111.077 C 182.572 111.077,183.253 110.454,184.000 109.692 C 184.747 108.931,185.290 108.308,185.205 108.308 C 185.120 108.308,184.440 108.931,183.692 109.692 M187.838 113.923 L 185.692 116.154 187.923 114.008 C 189.995 112.015,190.294 111.692,190.069 111.692 C 190.022 111.692,189.018 112.696,187.838 113.923 M157.872 114.846 C 157.942 114.888,158.415 115.269,158.923 115.692 L 159.846 116.462 159.100 115.615 C 158.690 115.150,158.217 114.769,158.049 114.769 C 157.881 114.769,157.801 114.804,157.872 114.846 M173.058 116.692 L 172.154 117.692 173.154 116.789 C 173.704 116.292,174.154 115.842,174.154 115.789 C 174.154 115.551,173.900 115.760,173.058 116.692 M170.308 119.385 C 169.647 120.062,169.238 120.604,169.399 120.589 C 169.681 120.564,171.896 118.154,171.637 118.154 C 171.567 118.154,170.969 118.708,170.308 119.385 M171.923 124.223 C 172.473 124.291,173.373 124.291,173.923 124.223 C 174.473 124.154,174.023 124.098,172.923 124.098 C 171.823 124.098,171.373 124.154,171.923 124.223 M154.243 127.938 C 153.979 128.106,154.068 128.298,154.551 128.598 C 155.159 128.977,155.189 128.971,154.833 128.541 C 154.508 128.148,154.508 128.031,154.833 127.900 C 155.052 127.813,155.092 127.732,154.923 127.721 C 154.754 127.711,154.448 127.808,154.243 127.938 M168.077 130.366 C 168.373 130.443,168.858 130.443,169.154 130.366 C 169.450 130.289,169.208 130.225,168.615 130.225 C 168.023 130.225,167.781 130.289,168.077 130.366 M176.385 130.366 C 176.681 130.443,177.165 130.443,177.462 130.366 C 177.758 130.289,177.515 130.225,176.923 130.225 C 176.331 130.225,176.088 130.289,176.385 130.366 M153.499 134.257 C 153.991 134.853,153.556 134.949,152.923 134.385 C 152.561 134.063,152.551 134.080,152.858 134.490 C 153.060 134.759,153.123 135.090,152.997 135.224 C 152.804 135.431,154.109 134.853,154.411 134.599 C 154.468 134.551,154.191 134.339,153.796 134.128 C 153.141 133.780,153.115 133.791,153.499 134.257 M205.077 136.615 C 206.082 137.631,206.973 138.462,207.058 138.462 C 207.142 138.462,206.389 137.631,205.385 136.615 C 204.380 135.600,203.488 134.769,203.404 134.769 C 203.319 134.769,204.072 135.600,205.077 136.615 M148.546 137.489 C 149.079 137.828,147.894 138.913,147.258 138.668 C 146.932 138.543,146.856 138.637,146.992 138.992 C 147.137 139.370,147.055 139.442,146.653 139.288 C 146.320 139.160,146.196 139.204,146.322 139.408 C 146.432 139.585,146.266 140.028,145.953 140.391 C 145.640 140.753,146.247 140.311,147.301 139.408 C 149.069 137.893,149.444 137.224,148.520 137.235 C 148.257 137.239,148.264 137.310,148.546 137.489 M199.415 139.462 C 199.488 139.504,200.169 140.092,200.928 140.769 L 202.308 142.000 201.091 140.692 C 200.422 139.973,199.742 139.385,199.579 139.385 C 199.415 139.385,199.342 139.419,199.415 139.462 M143.368 143.000 L 142.308 144.154 143.462 143.093 C 144.096 142.510,144.615 141.991,144.615 141.940 C 144.615 141.705,144.355 141.926,143.368 143.000 M137.600 150.831 C 137.397 151.034,137.231 151.388,137.231 151.618 C 137.231 151.848,137.094 151.952,136.927 151.848 C 136.750 151.739,136.702 151.867,136.811 152.151 C 137.030 152.722,136.995 152.751,137.621 151.462 C 138.154 150.365,138.151 150.280,137.600 150.831 M262.462 152.426 C 262.462 152.699,263.706 152.842,263.864 152.586 C 263.959 152.433,263.682 152.308,263.249 152.308 C 262.816 152.308,262.462 152.361,262.462 152.426 M180.291 157.154 L 179.231 158.308 180.385 157.247 C 181.459 156.260,181.680 156.000,181.445 156.000 C 181.394 156.000,180.874 156.519,180.291 157.154 M267.692 160.404 C 267.692 160.457,268.142 160.907,268.692 161.404 L 269.692 162.308 268.789 161.308 C 267.946 160.376,267.692 160.166,267.692 160.404 M145.470 170.616 C 145.423 176.116,145.488 180.616,145.615 180.616 C 145.742 180.615,145.846 176.115,145.846 170.615 C 145.846 165.115,145.781 160.615,145.701 160.615 C 145.620 160.615,145.517 165.115,145.470 170.616 M184.424 161.308 C 183.515 162.344,182.984 163.077,183.142 163.077 C 183.219 163.077,183.727 162.523,184.271 161.846 C 185.327 160.532,185.434 160.155,184.424 161.308 M127.208 173.231 C 127.208 177.038,127.253 178.596,127.307 176.692 C 127.361 174.788,127.361 171.673,127.307 169.769 C 127.253 167.865,127.208 169.423,127.208 173.231 M181.616 167.846 C 181.619 168.523,181.682 168.764,181.756 168.381 C 181.830 167.998,181.827 167.444,181.750 167.150 C 181.673 166.856,181.613 167.169,181.616 167.846 M181.662 173.692 C 181.662 176.231,181.710 177.228,181.767 175.909 C 181.825 174.590,181.825 172.513,181.767 171.294 C 181.708 170.074,181.661 171.154,181.662 173.692 M133.047 174.154 C 133.047 176.777,133.094 177.850,133.152 176.538 C 133.209 175.227,133.209 173.081,133.152 171.769 C 133.094 170.458,133.047 171.531,133.047 174.154 M243.462 174.366 C 243.758 174.443,244.242 174.443,244.538 174.366 C 244.835 174.289,244.592 174.225,244.000 174.225 C 243.408 174.225,243.165 174.289,243.462 174.366 M214.231 177.135 C 214.527 177.213,215.012 177.213,215.308 177.135 C 215.604 177.058,215.362 176.994,214.769 176.994 C 214.177 176.994,213.935 177.058,214.231 177.135 M177.846 177.327 C 177.846 177.380,178.296 177.830,178.846 178.327 L 179.846 179.231 178.942 178.231 C 178.100 177.299,177.846 177.089,177.846 177.327 M221.981 178.231 L 221.077 179.231 222.077 178.327 C 222.627 177.830,223.077 177.380,223.077 177.327 C 223.077 177.089,222.823 177.299,221.981 178.231 M207.846 180.308 C 208.507 180.985,209.117 181.538,209.202 181.538 C 209.286 181.538,208.815 180.985,208.154 180.308 C 207.493 179.631,206.883 179.077,206.798 179.077 C 206.714 179.077,207.185 179.631,207.846 180.308 M219.676 180.538 L 218.615 181.692 219.769 180.632 C 220.843 179.645,221.065 179.385,220.830 179.385 C 220.778 179.385,220.259 179.904,219.676 180.538 M181.682 198.000 C 181.682 207.138,181.721 210.833,181.769 206.209 C 181.817 201.586,181.817 194.109,181.769 189.594 C 181.721 185.079,181.682 188.862,181.682 198.000 M170.225 183.385 C 170.225 183.977,170.289 184.219,170.366 183.923 C 170.443 183.627,170.443 183.142,170.366 182.846 C 170.289 182.550,170.225 182.792,170.225 183.385 M213.923 182.990 C 214.388 183.060,215.150 183.060,215.615 182.990 C 216.081 182.919,215.700 182.861,214.769 182.861 C 213.838 182.861,213.458 182.919,213.923 182.990 M237.775 182.992 C 238.328 183.061,239.159 183.059,239.621 182.989 C 240.083 182.919,239.631 182.863,238.615 182.865 C 237.600 182.866,237.222 182.924,237.775 182.992 M245.251 198.551 C 243.680 200.311,243.573 200.483,244.737 199.385 C 246.010 198.183,247.617 196.283,247.329 196.320 C 247.275 196.327,246.340 197.331,245.251 198.551 M202.596 197.615 L 201.692 198.615 202.692 197.712 C 203.624 196.869,203.834 196.615,203.596 196.615 C 203.543 196.615,203.093 197.065,202.596 197.615 M208.154 199.077 C 208.815 199.754,209.425 200.308,209.510 200.308 C 209.594 200.308,209.123 199.754,208.462 199.077 C 207.801 198.400,207.190 197.846,207.106 197.846 C 207.021 197.846,207.493 198.400,208.154 199.077 M200.751 199.154 C 201.407 200.162,201.407 200.162,201.407 199.399 C 201.407 199.069,201.345 198.860,201.270 198.935 C 201.195 199.010,200.924 198.900,200.667 198.690 C 200.329 198.413,200.352 198.541,200.751 199.154 M202.154 201.327 C 202.154 201.380,202.604 201.830,203.154 202.327 L 204.154 203.231 203.250 202.231 C 202.408 201.299,202.154 201.089,202.154 201.327 M204.308 203.481 C 204.308 203.534,204.758 203.984,205.308 204.481 L 206.308 205.385 205.404 204.385 C 204.562 203.452,204.308 203.243,204.308 203.481 M247.827 204.385 L 246.923 205.385 247.923 204.481 C 248.473 203.984,248.923 203.534,248.923 203.481 C 248.923 203.243,248.669 203.452,247.827 204.385 M225.317 206.073 C 226.126 206.136,227.372 206.136,228.086 206.071 C 228.800 206.006,228.138 205.954,226.615 205.955 C 225.092 205.956,224.508 206.009,225.317 206.073 M224.081 211.913 C 224.549 211.984,225.241 211.982,225.620 211.909 C 225.998 211.836,225.615 211.778,224.769 211.780 C 223.923 211.783,223.613 211.842,224.081 211.913 M227.923 211.909 C 228.304 211.983,228.927 211.983,229.308 211.909 C 229.688 211.836,229.377 211.776,228.615 211.776 C 227.854 211.776,227.542 211.836,227.923 211.909 M179.881 220.272 C 178.152 222.028,178.167 222.107,180.660 224.462 L 182.289 226.000 180.529 224.100 C 178.414 221.816,178.433 222.055,180.219 220.241 C 181.017 219.432,181.600 218.769,181.515 218.769 C 181.431 218.769,180.695 219.445,179.881 220.272 M197.385 223.300 C 212.444 223.514,224.308 223.517,224.308 223.308 C 224.308 223.181,216.935 223.108,207.923 223.147 C 198.912 223.185,194.169 223.254,197.385 223.300 M255.462 223.305 C 256.604 223.364,258.473 223.364,259.615 223.305 C 260.758 223.246,259.823 223.197,257.538 223.197 C 255.254 223.197,254.319 223.246,255.462 223.305 M224.615 224.096 C 224.615 224.149,225.065 224.599,225.615 225.096 L 226.615 226.000 225.712 225.000 C 224.869 224.068,224.615 223.859,224.615 224.096 M227.077 226.558 C 227.077 226.611,227.527 227.061,228.077 227.558 L 229.077 228.462 228.173 227.462 C 227.331 226.529,227.077 226.320,227.077 226.558 M248.000 234.480 C 248.000 238.874,247.893 241.201,247.696 241.079 C 247.521 240.971,247.470 241.095,247.575 241.369 C 248.126 242.804,248.308 241.165,248.308 234.769 C 248.308 230.877,248.238 227.692,248.154 227.692 C 248.069 227.692,248.000 230.747,248.000 234.480 M200.099 229.154 C 205.146 229.201,213.315 229.201,218.253 229.154 C 223.191 229.106,219.062 229.067,209.077 229.067 C 199.092 229.067,195.052 229.106,200.099 229.154 M229.538 229.019 C 229.538 229.072,229.988 229.522,230.538 230.019 L 231.538 230.923 230.635 229.923 C 229.792 228.991,229.538 228.782,229.538 229.019 M256.063 229.151 C 257.198 229.210,259.137 229.210,260.371 229.152 C 261.605 229.093,260.677 229.045,258.308 229.044 C 255.938 229.044,254.929 229.092,256.063 229.151 " stroke="none" fill="#9aa6d3" fill-rule="evenodd"></path><path id="path4" d="M222.055 76.334 C 219.844 76.965,217.373 78.091,217.632 78.350 C 217.716 78.434,218.466 78.158,219.299 77.736 C 227.946 73.354,240.014 77.564,244.616 86.567 C 245.644 88.578,246.370 89.578,245.948 88.401 C 242.720 79.398,231.385 73.674,222.055 76.334 M215.538 79.550 C 214.042 80.814,212.812 81.986,212.154 82.775 C 211.815 83.181,212.681 82.489,214.077 81.236 C 215.473 79.984,216.615 78.917,216.615 78.864 C 216.615 78.675,216.446 78.783,215.538 79.550 M224.308 81.744 C 222.359 82.150,219.102 83.988,217.507 85.583 C 216.046 87.045,213.264 91.520,213.605 91.861 C 213.673 91.929,214.199 91.053,214.775 89.915 C 220.309 78.977,234.364 79.274,239.956 90.448 C 240.657 91.848,241.229 92.805,241.227 92.574 C 241.220 91.865,239.437 88.586,238.151 86.919 C 235.119 82.989,229.114 80.744,224.308 81.744 M209.943 85.781 C 209.250 86.917,208.589 88.192,208.475 88.615 C 208.347 89.088,208.571 88.868,209.056 88.046 C 209.491 87.309,209.846 86.648,209.846 86.577 C 209.846 86.506,210.213 85.895,210.660 85.218 C 211.108 84.541,211.414 83.927,211.339 83.852 C 211.265 83.777,210.637 84.646,209.943 85.781 M246.189 89.538 C 246.206 90.229,247.026 92.234,247.054 91.651 C 247.066 91.374,246.875 90.682,246.627 90.112 C 246.380 89.543,246.183 89.285,246.189 89.538 M247.618 97.077 C 247.686 99.108,247.788 100.908,247.846 101.077 C 248.052 101.679,247.923 95.214,247.711 94.308 C 247.592 93.800,247.551 95.046,247.618 97.077 M206.567 98.615 C 206.568 99.969,206.622 100.485,206.687 99.761 C 206.752 99.037,206.751 97.930,206.685 97.300 C 206.619 96.669,206.566 97.262,206.567 98.615 M212.411 98.462 C 212.411 99.731,212.465 100.250,212.532 99.615 C 212.598 98.981,212.598 97.942,212.532 97.308 C 212.465 96.673,212.411 97.192,212.411 98.462 M241.941 98.000 C 241.943 99.015,242.001 99.394,242.069 98.841 C 242.138 98.288,242.136 97.457,242.066 96.994 C 241.996 96.532,241.940 96.985,241.941 98.000 M212.633 101.561 C 212.616 102.315,213.513 105.367,213.694 105.171 C 213.742 105.119,213.526 104.108,213.216 102.923 C 212.905 101.738,212.643 101.125,212.633 101.561 M241.576 101.385 C 241.551 101.723,241.459 102.346,241.372 102.769 L 241.213 103.538 241.543 102.784 C 241.724 102.368,241.816 101.745,241.747 101.399 C 241.625 100.785,241.621 100.785,241.576 101.385 M206.791 102.487 C 206.803 102.896,206.938 103.508,207.091 103.846 C 207.286 104.275,207.313 104.089,207.183 103.231 C 206.965 101.802,206.760 101.412,206.791 102.487 M247.262 103.108 C 247.149 103.813,247.117 104.450,247.190 104.523 C 247.263 104.597,247.420 104.084,247.538 103.385 C 247.657 102.685,247.689 102.048,247.610 101.969 C 247.531 101.890,247.374 102.403,247.262 103.108 M240.000 106.417 C 238.965 108.655,236.829 111.649,235.578 112.615 C 235.250 112.869,234.209 113.596,233.266 114.231 C 232.323 114.865,231.696 115.385,231.872 115.385 C 234.183 115.385,241.910 106.209,241.175 104.338 C 241.121 104.201,240.592 105.137,240.000 106.417 M246.493 106.186 C 244.850 111.739,239.598 118.012,234.780 120.174 C 233.752 120.635,232.970 121.072,233.042 121.145 C 233.542 121.644,238.191 118.718,240.468 116.471 C 243.525 113.454,247.484 106.606,247.004 105.165 C 246.943 104.983,246.713 105.442,246.493 106.186 M213.855 105.617 C 213.752 108.288,222.226 116.953,223.599 115.581 C 223.699 115.481,223.518 115.318,223.198 115.218 C 220.497 114.381,216.753 110.874,214.998 107.538 C 214.374 106.354,213.860 105.489,213.855 105.617 M207.692 105.952 C 207.692 106.976,210.388 112.531,211.220 113.222 C 211.462 113.423,211.046 112.510,210.296 111.193 C 209.545 109.876,208.710 108.134,208.441 107.322 C 208.034 106.098,207.692 105.472,207.692 105.952 M212.227 114.615 C 213.798 116.872,219.865 121.259,221.362 121.223 C 221.544 121.218,220.723 120.698,219.538 120.067 C 216.695 118.553,216.223 118.204,213.715 115.765 C 212.543 114.625,211.873 114.108,212.227 114.615 M229.846 115.752 C 229.254 115.924,227.668 116.002,226.323 115.925 C 224.818 115.840,224.145 115.886,224.573 116.045 C 226.057 116.594,230.845 116.316,231.253 115.657 C 231.454 115.330,231.255 115.344,229.846 115.752 M222.923 121.674 C 223.693 121.945,225.305 122.096,227.231 122.078 L 230.308 122.049 227.077 121.840 C 225.300 121.726,223.362 121.544,222.769 121.437 C 221.716 121.246,221.720 121.251,222.923 121.674 M231.077 121.538 C 230.459 121.737,230.428 121.787,230.923 121.794 C 231.262 121.799,231.815 121.684,232.154 121.538 C 232.938 121.202,232.129 121.202,231.077 121.538 M225.627 124.228 C 226.606 124.289,228.129 124.288,229.011 124.226 C 229.894 124.165,229.092 124.114,227.231 124.115 C 225.369 124.116,224.647 124.166,225.627 124.228 M231.769 124.520 C 232.065 124.597,232.550 124.597,232.846 124.520 C 233.142 124.442,232.900 124.379,232.308 124.379 C 231.715 124.379,231.473 124.442,231.769 124.520 M217.538 125.231 C 216.920 125.429,216.890 125.479,217.385 125.486 C 217.723 125.491,218.277 125.376,218.615 125.231 C 219.399 124.894,218.591 124.894,217.538 125.231 M235.692 125.231 C 236.115 125.366,236.738 125.477,237.077 125.477 C 237.564 125.477,237.532 125.426,236.923 125.231 C 236.500 125.095,235.877 124.984,235.538 124.984 C 235.051 124.984,235.083 125.036,235.692 125.231 M214.154 126.277 C 209.953 127.801,209.541 128.067,208.948 129.625 C 208.489 130.833,208.803 130.653,209.419 129.356 C 209.707 128.749,210.164 128.180,210.433 128.093 C 210.703 128.005,211.338 127.756,211.846 127.539 C 212.354 127.322,213.635 126.834,214.692 126.454 C 216.445 125.825,216.998 125.528,216.385 125.545 C 216.258 125.549,215.254 125.878,214.154 126.277 M240.950 126.863 C 246.683 129.134,252.456 132.859,251.826 133.879 C 251.659 134.150,251.752 134.197,252.152 134.043 C 252.956 133.735,256.923 137.768,256.923 138.895 C 256.923 139.402,257.093 139.692,257.390 139.692 C 257.646 139.692,258.096 140.212,258.390 140.846 C 258.683 141.481,259.119 142.153,259.358 142.340 C 259.647 142.566,259.708 142.875,259.540 143.263 C 259.401 143.584,259.306 143.940,259.329 144.055 C 259.352 144.171,258.854 144.430,258.224 144.631 C 257.593 144.833,256.945 145.119,256.785 145.268 C 256.382 145.641,255.612 145.610,255.846 145.231 C 255.951 145.062,255.905 144.923,255.744 144.923 C 255.583 144.923,255.365 144.578,255.259 144.156 C 255.153 143.734,254.965 143.422,254.841 143.463 C 254.717 143.505,254.579 143.436,254.534 143.310 C 254.119 142.151,253.219 141.060,252.605 140.970 C 251.769 140.848,248.615 137.784,248.615 137.093 C 248.615 136.815,248.437 136.703,248.160 136.810 C 247.907 136.907,247.052 136.510,246.237 135.917 C 244.777 134.855,243.385 134.049,241.769 133.329 C 240.222 132.641,240.896 133.208,242.717 134.127 C 243.703 134.625,245.158 135.527,245.950 136.132 C 246.742 136.736,247.474 137.231,247.577 137.231 C 247.884 137.231,252.365 141.880,253.660 143.540 C 255.388 145.757,255.924 146.154,257.196 146.154 C 260.391 146.154,261.106 143.318,258.726 140.095 C 258.073 139.211,257.538 138.419,257.538 138.334 C 257.538 138.250,256.324 136.963,254.839 135.475 C 250.684 131.311,245.879 128.259,240.219 126.190 C 237.049 125.030,237.595 125.534,240.950 126.863 M227.006 130.069 C 227.559 130.138,228.389 130.136,228.852 130.066 C 229.314 129.996,228.862 129.940,227.846 129.941 C 226.831 129.943,226.452 130.001,227.006 130.069 M223.006 130.377 C 223.559 130.445,224.389 130.444,224.852 130.374 C 225.314 130.303,224.862 130.247,223.846 130.249 C 222.831 130.251,222.452 130.308,223.006 130.377 M230.692 130.371 C 231.073 130.444,231.696 130.444,232.077 130.371 C 232.458 130.298,232.146 130.238,231.385 130.238 C 230.623 130.238,230.312 130.298,230.692 130.371 M208.934 131.403 C 208.928 131.667,209.126 132.151,209.375 132.480 C 209.953 133.245,209.960 132.699,209.385 131.692 C 209.103 131.199,208.941 131.095,208.934 131.403 M237.077 131.692 C 237.415 131.838,237.900 131.957,238.154 131.957 C 238.445 131.957,238.388 131.859,238.000 131.692 C 237.662 131.547,237.177 131.428,236.923 131.428 C 236.632 131.428,236.689 131.526,237.077 131.692 M214.070 132.616 C 212.384 133.346,211.833 133.460,211.181 133.212 C 210.739 133.044,210.307 132.975,210.222 133.060 C 209.941 133.341,211.763 133.865,212.361 133.675 C 213.356 133.360,216.788 131.721,216.462 131.717 C 216.292 131.716,215.216 132.120,214.070 132.616 M239.213 132.471 C 239.541 132.720,240.026 132.918,240.290 132.912 C 240.597 132.905,240.493 132.743,240.000 132.462 C 238.993 131.886,238.448 131.893,239.213 132.471 M250.538 134.379 C 250.023 134.558,250.051 134.972,250.593 135.180 C 250.834 135.272,251.184 135.165,251.370 134.941 C 251.747 134.487,251.230 134.137,250.538 134.379 M255.256 139.790 C 254.449 140.379,254.749 141.364,255.772 141.482 C 256.646 141.583,256.872 141.028,256.429 139.871 C 256.201 139.279,255.976 139.263,255.256 139.790 M256.797 142.654 C 256.580 143.218,257.155 144.083,257.573 143.825 C 257.723 143.732,257.846 143.318,257.846 142.905 C 257.846 142.054,257.096 141.875,256.797 142.654 M140.846 196.846 C 145.965 196.893,154.342 196.893,159.462 196.846 C 164.581 196.799,160.392 196.760,150.154 196.760 C 139.915 196.760,135.727 196.799,140.846 196.846 M128.763 197.693 C 126.432 198.822,122.483 203.200,123.173 203.891 C 123.266 203.984,123.693 203.370,124.121 202.526 C 125.056 200.681,127.579 198.475,129.615 197.721 C 130.419 197.423,131.077 197.122,131.077 197.051 C 131.077 196.753,130.208 196.994,128.763 197.693 M169.216 197.444 C 169.395 197.816,169.679 198.205,169.848 198.309 C 170.438 198.674,170.176 200.555,169.412 201.444 L 168.669 202.308 150.233 202.462 L 131.798 202.615 130.642 203.497 C 129.191 204.604,128.304 206.036,128.329 207.231 C 128.348 208.104,128.370 208.087,128.737 206.917 C 130.076 202.641,129.408 202.769,150.385 202.769 C 160.831 202.769,168.274 202.650,168.734 202.475 C 170.439 201.827,170.955 199.200,169.675 197.692 C 169.126 197.046,168.988 196.972,169.216 197.444 M122.769 204.643 C 122.769 204.715,122.640 205.222,122.483 205.771 C 122.326 206.320,122.310 206.769,122.448 206.769 C 122.706 206.769,123.097 204.871,122.887 204.641 C 122.822 204.571,122.769 204.571,122.769 204.643 M140.034 213.045 C 138.279 214.018,137.940 216.448,139.361 217.870 L 140.260 218.769 154.462 218.769 L 168.663 218.769 169.562 217.870 C 171.072 216.360,170.660 214.017,168.700 212.968 C 167.683 212.424,141.025 212.495,140.034 213.045 M169.293 213.861 C 170.117 214.685,170.210 214.951,170.062 216.057 C 169.744 218.426,170.589 218.297,154.744 218.394 L 140.586 218.479 139.640 217.533 C 138.474 216.367,138.563 214.736,139.853 213.615 L 140.650 212.923 154.502 212.923 L 168.355 212.923 169.293 213.861 M139.408 225.720 C 137.795 227.077,138.652 230.803,140.566 230.757 C 140.899 230.749,140.777 230.582,140.217 230.278 C 137.940 229.044,138.707 225.470,141.319 225.145 L 142.308 225.022 141.331 224.972 C 140.678 224.939,140.041 225.187,139.408 225.720 M158.148 225.266 C 159.481 225.799,159.997 226.490,160.052 227.817 L 160.103 229.077 160.226 227.885 C 160.368 226.516,159.161 224.907,158.019 224.943 C 157.456 224.960,157.470 224.996,158.148 225.266 M158.978 229.940 C 158.147 230.587,157.758 230.622,149.747 230.781 L 141.385 230.947 149.692 231.011 C 158.294 231.077,160.000 230.834,160.000 229.543 C 160.000 229.143,160.005 229.141,158.978 229.940 M185.162 233.710 C 184.238 234.211,183.686 235.043,183.704 235.903 C 183.712 236.259,183.868 236.113,184.134 235.501 C 185.069 233.355,186.890 232.982,188.513 234.605 C 189.191 235.283,189.543 235.483,189.480 235.155 C 189.209 233.745,186.665 232.894,185.162 233.710 M183.279 237.834 C 183.036 239.050,181.086 241.164,179.887 241.511 C 179.357 241.665,179.172 241.803,179.477 241.818 C 180.978 241.894,183.200 239.767,183.574 237.897 C 183.682 237.362,183.700 236.923,183.615 236.923 C 183.531 236.923,183.380 237.333,183.279 237.834 M128.331 237.474 C 128.164 240.376,131.315 242.154,136.626 242.154 C 140.204 242.154,141.538 242.416,141.538 243.120 C 141.538 243.302,141.896 243.731,142.333 244.074 C 143.151 244.719,143.373 250.630,142.647 252.462 C 142.513 252.801,142.520 252.939,142.663 252.769 C 143.004 252.366,144.097 252.275,144.317 252.631 C 144.412 252.784,144.724 252.636,145.011 252.301 C 145.298 251.966,145.395 251.692,145.228 251.692 C 144.441 251.692,145.166 250.687,147.948 247.923 C 149.608 246.273,151.130 244.923,151.330 244.923 C 151.529 244.923,151.692 244.814,151.692 244.681 C 151.692 244.547,152.092 243.959,152.581 243.373 L 153.470 242.308 166.197 242.146 L 178.923 241.983 166.426 241.915 L 153.929 241.846 153.041 242.534 C 152.553 242.913,151.908 243.528,151.607 243.901 C 151.307 244.274,150.788 244.666,150.454 244.772 C 150.119 244.878,149.846 245.143,149.846 245.361 C 149.846 245.699,143.907 251.692,143.572 251.692 C 143.507 251.692,143.432 250.077,143.404 248.104 C 143.329 242.647,142.518 241.882,136.769 241.844 C 131.530 241.809,130.289 241.234,128.869 238.184 C 128.585 237.575,128.343 237.256,128.331 237.474 M122.529 238.154 C 122.525 238.577,122.634 239.269,122.769 239.692 C 123.100 240.726,123.100 239.609,122.769 238.308 C 122.558 237.479,122.534 237.463,122.529 238.154 M189.115 238.808 C 189.007 239.348,188.976 239.848,189.046 239.917 C 189.115 239.987,189.268 239.609,189.385 239.077 C 189.501 238.545,189.533 238.046,189.454 237.967 C 189.376 237.889,189.224 238.267,189.115 238.808 M187.860 242.001 C 186.848 243.871,185.214 245.362,182.755 246.656 L 181.077 247.538 168.581 247.631 L 156.085 247.724 155.152 246.939 C 154.639 246.507,153.962 246.156,153.648 246.158 C 153.219 246.162,153.383 246.422,154.306 247.202 L 155.534 248.242 152.479 251.352 C 150.437 253.430,149.198 254.462,148.745 254.462 C 148.371 254.462,147.993 254.652,147.904 254.884 C 147.814 255.117,147.246 255.400,146.640 255.514 C 146.034 255.627,145.538 255.849,145.538 256.006 C 145.538 256.164,145.975 256.205,146.509 256.098 C 147.232 255.954,147.421 256.000,147.247 256.281 C 147.119 256.488,146.821 256.583,146.585 256.492 C 146.334 256.396,145.934 256.675,145.623 257.164 C 145.331 257.624,144.902 258.118,144.670 258.263 C 144.438 258.407,143.960 258.857,143.607 259.263 C 143.254 259.668,142.781 260.000,142.556 260.000 C 142.330 260.000,141.875 260.169,141.545 260.375 C 141.029 260.698,140.806 260.622,139.963 259.837 C 139.319 259.237,139.048 259.108,139.174 259.462 C 139.434 260.194,138.991 260.140,138.278 259.352 C 137.753 258.772,137.688 258.144,137.646 253.275 L 137.599 247.846 134.261 247.662 C 131.838 247.529,130.501 247.296,129.385 246.814 C 128.431 246.403,128.078 246.330,128.456 246.623 C 129.489 247.423,131.939 247.983,134.609 248.028 L 137.157 248.071 137.182 253.149 C 137.215 259.703,137.838 260.897,141.231 260.908 C 143.368 260.915,142.662 261.455,149.981 254.218 L 156.241 248.028 167.847 248.007 C 183.291 247.980,185.522 247.307,188.316 241.830 C 189.281 239.937,188.898 240.081,187.860 242.001 M123.077 240.801 C 123.077 241.620,125.521 244.666,126.923 245.594 C 127.701 246.109,127.669 246.044,126.720 245.179 C 126.100 244.615,125.027 243.335,124.335 242.334 C 123.643 241.332,123.077 240.643,123.077 240.801 M141.596 253.555 C 140.198 254.116,139.361 255.692,140.462 255.692 C 140.715 255.692,140.922 255.519,140.920 255.308 C 140.919 255.096,141.369 254.546,141.920 254.085 C 142.950 253.225,142.846 253.054,141.596 253.555 M141.541 256.895 C 140.560 257.024,140.130 257.233,140.057 257.615 C 139.940 258.231,140.897 258.354,141.848 257.845 C 142.233 257.639,142.487 257.639,142.615 257.845 C 142.985 258.444,143.739 258.179,143.637 257.486 C 143.521 256.699,143.363 256.655,141.541 256.895 " stroke="none" fill="#f7cf95" fill-rule="evenodd"></path></g></svg>