<?xml version="1.0" standalone="no"?>
<!DOCTYPE svg PUBLIC "-//W3C//DTD SVG 20010904//EN"
 "http://www.w3.org/TR/2001/REC-SVG-20010904/DTD/svg10.dtd">
<svg version="1.0" xmlns="http://www.w3.org/2000/svg"
 width="920.000000pt" height="920.000000pt" viewBox="0 0 920.000000 920.000000"
 preserveAspectRatio="xMidYMid meet">

<g transform="translate(0.000000,920.000000) scale(0.100000,-0.100000)"
fill="#000000" stroke="none">
<path d="M4370 8197 c-141 -106 -424 -318 -630 -472 -1613 -1204 -2637 -1968
-2957 -2207 l-253 -188 0 -2435 0 -2435 4105 0 4105 0 0 2435 0 2436 -552 412
c-530 396 -760 568 -1623 1212 -214 160 -622 464 -905 676 -915 683 -1017 759
-1026 758 -5 0 -124 -87 -264 -192z m630 -1351 c442 -80 744 -355 851 -771 33
-131 33 -371 1 -500 -78 -306 -310 -583 -570 -684 -103 -39 -200 -54 -327 -49
-92 3 -106 6 -144 31 -29 19 -49 44 -63 74 l-20 45 -26 -25 c-89 -83 -209
-127 -346 -127 -153 0 -261 43 -361 144 -128 129 -180 306 -155 526 21 185 67
316 164 465 161 248 370 357 634 333 97 -8 185 -51 245 -118 25 -28 47 -50 49
-50 3 0 10 32 17 70 l13 70 183 0 183 0 -10 -42 c-11 -50 -97 -455 -169 -803
-54 -258 -55 -299 -14 -315 51 -19 167 43 262 141 233 239 301 605 168 895
-74 161 -214 299 -380 375 -274 124 -712 117 -1010 -16 -150 -67 -317 -210
-406 -348 -160 -246 -232 -593 -184 -872 47 -266 213 -511 430 -635 97 -55
266 -112 405 -136 146 -26 472 -26 615 0 249 45 432 135 575 280 l54 56 144 0
143 0 -33 -60 c-111 -203 -343 -382 -608 -469 -185 -61 -295 -76 -575 -76
-274 1 -342 9 -553 67 -151 41 -340 135 -449 223 -193 155 -332 401 -390 692
-26 133 -24 414 5 549 61 285 188 531 367 709 204 203 495 334 820 369 83 9
383 -3 465 -18z m-3537 -2040 c801 -537 1583 -1061 2035 -1364 194 -130 349
-239 345 -243 -5 -4 -330 -256 -723 -560 -393 -304 -983 -760 -1310 -1013
-327 -253 -680 -527 -785 -608 -104 -81 -193 -148 -197 -148 -5 0 -8 981 -8
2180 0 1199 2 2180 5 2180 4 0 290 -191 638 -424z m6987 -1756 c0 -1199 -2
-2180 -5 -2180 -5 0 -371 282 -1085 835 -508 394 -1094 847 -1492 1153 -240
186 -436 342 -434 347 2 10 239 170 1911 1289 484 324 927 622 985 662 58 40
108 73 113 73 4 1 7 -980 7 -2179z m-3330 56 c256 -198 533 -412 615 -476
1192 -923 1564 -1211 1975 -1528 267 -206 489 -379 495 -383 5 -5 -1593 -9
-3569 -9 l-3577 0 113 88 c143 111 350 271 693 537 149 115 338 261 420 325
83 64 251 194 375 290 124 96 353 274 510 395 157 122 362 280 455 352 94 73
359 278 590 457 231 178 424 322 430 318 5 -3 219 -168 475 -366z"/>
<path d="M4525 6057 c-66 -22 -101 -44 -153 -97 -116 -118 -191 -357 -180
-577 10 -196 91 -292 248 -293 169 0 298 140 375 405 79 273 40 475 -106 550
-41 22 -136 27 -184 12z"/>
</g>
</svg>
