<svg id="svg" version="1.1" xmlns="http://www.w3.org/2000/svg" xmlns:xlink="http://www.w3.org/1999/xlink" width="400" height="400" viewBox="0, 0, 400,400"><g id="svgg"><path id="path0" d="M184.800 8.000 C 184.800 8.235,183.352 8.409,181.300 8.422 C 177.847 8.443,174.481 8.767,169.000 9.607 C 167.460 9.843,165.390 10.136,164.400 10.257 C 163.410 10.378,162.429 10.640,162.220 10.839 C 162.011 11.037,161.066 11.200,160.120 11.200 C 159.174 11.200,158.400 11.380,158.400 11.600 C 158.400 11.820,157.691 12.000,156.824 12.000 C 155.957 12.000,155.136 12.180,155.000 12.400 C 154.864 12.620,154.144 12.800,153.400 12.800 C 152.656 12.800,151.936 12.980,151.800 13.200 C 151.664 13.420,150.933 13.600,150.176 13.600 C 149.419 13.600,148.800 13.780,148.800 14.000 C 148.800 14.220,148.181 14.400,147.424 14.400 C 146.667 14.400,145.936 14.580,145.800 14.800 C 145.664 15.020,145.124 15.200,144.600 15.200 C 144.076 15.200,143.536 15.380,143.400 15.600 C 143.264 15.820,142.713 16.000,142.176 16.000 C 141.639 16.000,141.200 16.180,141.200 16.400 C 141.200 16.620,140.660 16.800,140.000 16.800 C 139.340 16.800,138.800 16.980,138.800 17.200 C 138.800 17.420,138.260 17.600,137.600 17.600 C 136.940 17.600,136.400 17.780,136.400 18.000 C 136.400 18.220,135.860 18.400,135.200 18.400 C 134.540 18.400,134.000 18.580,134.000 18.800 C 134.000 19.020,133.561 19.200,133.024 19.200 C 132.487 19.200,131.936 19.380,131.800 19.600 C 131.664 19.820,131.203 20.000,130.776 20.000 C 130.349 20.000,130.000 20.180,130.000 20.400 C 130.000 20.620,129.645 20.800,129.212 20.800 C 128.779 20.800,127.783 21.160,127.000 21.600 C 126.217 22.040,125.221 22.400,124.788 22.400 C 124.355 22.400,124.000 22.580,124.000 22.800 C 124.000 23.020,123.640 23.200,123.200 23.200 C 122.760 23.200,122.400 23.380,122.400 23.600 C 122.400 23.820,122.040 24.000,121.600 24.000 C 121.160 24.000,120.800 24.141,120.800 24.313 C 120.800 24.485,119.954 24.875,118.920 25.180 C 116.624 25.859,107.147 30.670,106.867 31.300 C 106.793 31.465,106.388 31.600,105.967 31.600 C 105.545 31.600,105.200 31.780,105.200 32.000 C 105.200 32.220,104.964 32.400,104.675 32.400 C 104.387 32.400,103.764 32.760,103.292 33.200 C 102.820 33.640,102.156 34.000,101.817 34.000 C 101.478 34.000,101.200 34.180,101.200 34.400 C 101.200 34.620,100.880 34.800,100.488 34.800 C 100.097 34.800,99.517 35.160,99.200 35.600 C 98.883 36.040,98.386 36.400,98.095 36.400 C 97.804 36.400,97.180 36.760,96.708 37.200 C 96.236 37.640,95.613 38.000,95.325 38.000 C 95.036 38.000,94.800 38.180,94.800 38.400 C 94.800 38.620,94.530 38.800,94.200 38.800 C 93.870 38.800,93.600 38.950,93.600 39.132 C 93.600 39.315,93.105 39.719,92.500 40.030 C 91.895 40.340,91.130 40.884,90.800 41.238 C 90.470 41.592,89.579 42.202,88.820 42.593 C 88.060 42.984,87.192 43.550,86.891 43.852 C 86.590 44.153,86.184 44.400,85.990 44.400 C 85.795 44.400,85.186 44.850,84.636 45.400 C 84.086 45.950,83.470 46.400,83.266 46.400 C 83.063 46.400,82.155 47.120,81.248 48.000 C 80.341 48.880,79.455 49.600,79.278 49.600 C 78.908 49.600,75.964 52.211,71.949 56.100 C 70.415 57.585,69.022 58.800,68.851 58.800 C 68.413 58.800,60.786 66.329,59.592 67.940 C 59.047 68.677,57.430 70.508,56.000 72.008 C 51.950 76.257,49.600 78.927,49.600 79.278 C 49.600 79.455,48.880 80.341,48.000 81.248 C 47.120 82.155,46.400 83.063,46.400 83.266 C 46.400 83.470,45.950 84.086,45.400 84.636 C 44.850 85.186,44.400 85.795,44.400 85.990 C 44.400 86.184,44.153 86.590,43.852 86.891 C 43.550 87.192,42.984 88.060,42.593 88.820 C 42.202 89.579,41.592 90.470,41.238 90.800 C 40.884 91.130,40.340 91.895,40.030 92.500 C 39.719 93.105,39.315 93.600,39.132 93.600 C 38.950 93.600,38.800 93.870,38.800 94.200 C 38.800 94.530,38.620 94.800,38.400 94.800 C 38.180 94.800,38.000 95.036,38.000 95.325 C 38.000 95.613,37.640 96.236,37.200 96.708 C 36.760 97.180,36.400 97.804,36.400 98.095 C 36.400 98.386,36.040 98.883,35.600 99.200 C 35.160 99.517,34.800 100.097,34.800 100.488 C 34.800 100.880,34.620 101.200,34.400 101.200 C 34.180 101.200,34.000 101.478,34.000 101.817 C 34.000 102.156,33.640 102.820,33.200 103.292 C 32.760 103.764,32.400 104.387,32.400 104.675 C 32.400 104.964,32.220 105.200,32.000 105.200 C 31.780 105.200,31.600 105.545,31.600 105.967 C 31.600 106.388,31.465 106.793,31.300 106.867 C 30.670 107.147,25.859 116.624,25.180 118.920 C 24.875 119.954,24.485 120.800,24.313 120.800 C 24.141 120.800,24.000 121.160,24.000 121.600 C 24.000 122.040,23.820 122.400,23.600 122.400 C 23.380 122.400,23.200 122.760,23.200 123.200 C 23.200 123.640,23.020 124.000,22.800 124.000 C 22.580 124.000,22.400 124.355,22.400 124.788 C 22.400 125.221,22.040 126.217,21.600 127.000 C 21.160 127.783,20.800 128.779,20.800 129.212 C 20.800 129.645,20.620 130.000,20.400 130.000 C 20.180 130.000,20.000 130.349,20.000 130.776 C 20.000 131.203,19.820 131.664,19.600 131.800 C 19.380 131.936,19.200 132.487,19.200 133.024 C 19.200 133.561,19.020 134.000,18.800 134.000 C 18.580 134.000,18.400 134.540,18.400 135.200 C 18.400 135.860,18.220 136.400,18.000 136.400 C 17.780 136.400,17.600 136.940,17.600 137.600 C 17.600 138.260,17.420 138.800,17.200 138.800 C 16.980 138.800,16.800 139.340,16.800 140.000 C 16.800 140.660,16.620 141.200,16.400 141.200 C 16.180 141.200,16.000 141.639,16.000 142.176 C 16.000 142.713,15.820 143.264,15.600 143.400 C 15.380 143.536,15.200 144.076,15.200 144.600 C 15.200 145.124,15.020 145.664,14.800 145.800 C 14.580 145.936,14.400 146.667,14.400 147.424 C 14.400 148.181,14.220 148.800,14.000 148.800 C 13.780 148.800,13.600 149.419,13.600 150.176 C 13.600 150.933,13.420 151.664,13.200 151.800 C 12.980 151.936,12.800 152.656,12.800 153.400 C 12.800 154.144,12.620 154.864,12.400 155.000 C 12.180 155.136,12.000 155.957,12.000 156.824 C 12.000 157.691,11.820 158.400,11.600 158.400 C 11.380 158.400,11.200 159.174,11.200 160.120 C 11.200 161.066,11.037 162.011,10.839 162.220 C 10.640 162.429,10.378 163.410,10.257 164.400 C 10.136 165.390,9.843 167.460,9.607 169.000 C 8.779 174.403,8.443 177.829,8.422 181.076 C 8.410 182.878,8.220 184.464,8.000 184.600 C 7.453 184.938,7.453 215.062,8.000 215.400 C 8.220 215.536,8.410 217.122,8.422 218.924 C 8.443 222.171,8.779 225.597,9.607 231.000 C 9.843 232.540,10.136 234.610,10.257 235.600 C 10.378 236.590,10.640 237.571,10.839 237.780 C 11.037 237.989,11.200 238.934,11.200 239.880 C 11.200 240.826,11.380 241.600,11.600 241.600 C 11.820 241.600,12.000 242.309,12.000 243.176 C 12.000 244.043,12.180 244.864,12.400 245.000 C 12.620 245.136,12.800 245.856,12.800 246.600 C 12.800 247.344,12.980 248.064,13.200 248.200 C 13.420 248.336,13.600 249.067,13.600 249.824 C 13.600 250.581,13.780 251.200,14.000 251.200 C 14.220 251.200,14.400 251.819,14.400 252.576 C 14.400 253.333,14.580 254.064,14.800 254.200 C 15.020 254.336,15.200 254.876,15.200 255.400 C 15.200 255.924,15.380 256.464,15.600 256.600 C 15.820 256.736,16.000 257.287,16.000 257.824 C 16.000 258.361,16.180 258.800,16.400 258.800 C 16.620 258.800,16.800 259.340,16.800 260.000 C 16.800 260.660,16.980 261.200,17.200 261.200 C 17.420 261.200,17.600 261.740,17.600 262.400 C 17.600 263.060,17.780 263.600,18.000 263.600 C 18.220 263.600,18.400 264.140,18.400 264.800 C 18.400 265.460,18.580 266.000,18.800 266.000 C 19.020 266.000,19.200 266.439,19.200 266.976 C 19.200 267.513,19.380 268.064,19.600 268.200 C 19.820 268.336,20.000 268.797,20.000 269.224 C 20.000 269.651,20.180 270.000,20.400 270.000 C 20.620 270.000,20.800 270.355,20.800 270.788 C 20.800 271.221,21.160 272.217,21.600 273.000 C 22.040 273.783,22.400 274.779,22.400 275.212 C 22.400 275.645,22.580 276.000,22.800 276.000 C 23.020 276.000,23.200 276.360,23.200 276.800 C 23.200 277.240,23.380 277.600,23.600 277.600 C 23.820 277.600,24.000 277.960,24.000 278.400 C 24.000 278.840,24.141 279.200,24.313 279.200 C 24.485 279.200,24.875 280.046,25.180 281.080 C 25.486 282.114,26.537 284.499,27.517 286.380 C 28.497 288.261,29.502 290.204,29.749 290.697 C 29.997 291.190,30.335 291.595,30.500 291.597 C 30.665 291.599,30.800 291.960,30.800 292.400 C 30.800 292.840,30.980 293.200,31.200 293.200 C 31.420 293.200,31.600 293.560,31.600 294.000 C 31.600 294.440,31.780 294.800,32.000 294.800 C 32.220 294.800,32.400 295.036,32.400 295.325 C 32.400 295.613,32.760 296.236,33.200 296.708 C 33.640 297.180,34.000 297.844,34.000 298.183 C 34.000 298.522,34.180 298.800,34.400 298.800 C 34.620 298.800,34.800 299.120,34.800 299.512 C 34.800 299.903,35.160 300.483,35.600 300.800 C 36.040 301.117,36.400 301.614,36.400 301.905 C 36.400 302.196,36.760 302.820,37.200 303.292 C 37.640 303.764,38.000 304.387,38.000 304.675 C 38.000 304.964,38.180 305.200,38.400 305.200 C 38.620 305.200,38.800 305.470,38.800 305.800 C 38.800 306.130,38.950 306.400,39.132 306.400 C 39.315 306.400,39.719 306.895,40.030 307.500 C 40.340 308.105,40.884 308.870,41.238 309.200 C 41.592 309.530,42.202 310.421,42.593 311.180 C 42.984 311.940,43.550 312.808,43.852 313.109 C 44.153 313.410,44.400 313.805,44.400 313.986 C 44.400 314.167,44.940 314.893,45.600 315.600 C 46.260 316.307,46.800 317.040,46.800 317.229 C 46.800 317.418,47.430 318.203,48.200 318.973 C 48.970 319.743,49.600 320.524,49.600 320.708 C 49.600 321.072,51.906 323.696,56.000 327.992 C 57.430 329.492,59.050 331.323,59.600 332.060 C 60.856 333.743,66.193 339.071,67.955 340.400 C 68.684 340.950,70.508 342.570,72.008 344.000 C 76.304 348.094,78.928 350.400,79.292 350.400 C 79.476 350.400,80.257 351.030,81.027 351.800 C 81.797 352.570,82.582 353.200,82.771 353.200 C 82.960 353.200,83.693 353.740,84.400 354.400 C 85.107 355.060,85.833 355.600,86.014 355.600 C 86.195 355.600,86.590 355.847,86.891 356.148 C 87.192 356.450,88.060 357.016,88.820 357.407 C 89.579 357.798,90.470 358.408,90.800 358.762 C 91.130 359.116,91.895 359.660,92.500 359.970 C 93.105 360.281,93.600 360.685,93.600 360.868 C 93.600 361.050,93.870 361.200,94.200 361.200 C 94.530 361.200,94.800 361.380,94.800 361.600 C 94.800 361.820,95.036 362.000,95.325 362.000 C 95.613 362.000,96.236 362.360,96.708 362.800 C 97.180 363.240,97.804 363.600,98.095 363.600 C 98.386 363.600,98.883 363.960,99.200 364.400 C 99.517 364.840,100.097 365.200,100.488 365.200 C 100.880 365.200,101.200 365.380,101.200 365.600 C 101.200 365.820,101.478 366.000,101.817 366.000 C 102.156 366.000,102.820 366.360,103.292 366.800 C 103.764 367.240,104.387 367.600,104.675 367.600 C 104.964 367.600,105.200 367.780,105.200 368.000 C 105.200 368.220,105.560 368.400,106.000 368.400 C 106.440 368.400,106.800 368.580,106.800 368.800 C 106.800 369.020,107.160 369.200,107.600 369.200 C 108.040 369.200,108.400 369.336,108.400 369.502 C 108.400 369.669,108.985 370.059,109.700 370.370 C 110.415 370.681,111.090 371.049,111.200 371.188 C 111.565 371.647,117.371 374.363,119.100 374.883 C 120.035 375.165,120.800 375.531,120.800 375.697 C 120.800 375.864,121.160 376.000,121.600 376.000 C 122.040 376.000,122.400 376.180,122.400 376.400 C 122.400 376.620,122.760 376.800,123.200 376.800 C 123.640 376.800,124.000 376.980,124.000 377.200 C 124.000 377.420,124.439 377.600,124.976 377.600 C 125.513 377.600,126.064 377.780,126.200 378.000 C 126.336 378.220,126.797 378.400,127.224 378.400 C 127.651 378.400,128.000 378.580,128.000 378.800 C 128.000 379.020,128.450 379.200,129.000 379.200 C 129.550 379.200,130.000 379.380,130.000 379.600 C 130.000 379.820,130.349 380.000,130.776 380.000 C 131.203 380.000,131.664 380.180,131.800 380.400 C 131.936 380.620,132.487 380.800,133.024 380.800 C 133.561 380.800,134.000 380.980,134.000 381.200 C 134.000 381.420,134.540 381.600,135.200 381.600 C 135.860 381.600,136.400 381.780,136.400 382.000 C 136.400 382.220,136.940 382.400,137.600 382.400 C 138.260 382.400,138.800 382.580,138.800 382.800 C 138.800 383.020,139.340 383.200,140.000 383.200 C 140.660 383.200,141.200 383.380,141.200 383.600 C 141.200 383.820,141.639 384.000,142.176 384.000 C 142.713 384.000,143.264 384.180,143.400 384.400 C 143.536 384.620,144.076 384.800,144.600 384.800 C 145.124 384.800,145.664 384.980,145.800 385.200 C 145.936 385.420,146.667 385.600,147.424 385.600 C 148.181 385.600,148.800 385.780,148.800 386.000 C 148.800 386.220,149.419 386.400,150.176 386.400 C 150.933 386.400,151.664 386.580,151.800 386.800 C 151.936 387.020,152.656 387.200,153.400 387.200 C 154.144 387.200,154.864 387.380,155.000 387.600 C 155.136 387.820,155.957 388.000,156.824 388.000 C 157.691 388.000,158.400 388.180,158.400 388.400 C 158.400 388.620,159.174 388.800,160.120 388.800 C 161.066 388.800,162.011 388.963,162.220 389.161 C 162.429 389.360,163.410 389.622,164.400 389.743 C 165.390 389.864,167.460 390.157,169.000 390.393 C 174.481 391.233,177.847 391.557,181.300 391.578 C 183.352 391.591,184.800 391.765,184.800 392.000 C 184.800 392.260,190.133 392.400,200.000 392.400 C 209.867 392.400,215.200 392.260,215.200 392.000 C 215.200 391.765,216.648 391.591,218.700 391.578 C 222.153 391.557,225.519 391.233,231.000 390.393 C 232.540 390.157,234.610 389.864,235.600 389.743 C 236.590 389.622,237.571 389.360,237.780 389.161 C 237.989 388.963,238.934 388.800,239.880 388.800 C 240.826 388.800,241.600 388.620,241.600 388.400 C 241.600 388.180,242.309 388.000,243.176 388.000 C 244.043 388.000,244.852 387.839,244.974 387.642 C 245.095 387.445,245.871 387.182,246.697 387.058 C 250.278 386.517,251.200 386.291,251.200 385.956 C 251.200 385.760,251.819 385.600,252.576 385.600 C 253.333 385.600,254.064 385.420,254.200 385.200 C 254.336 384.980,254.876 384.800,255.400 384.800 C 255.924 384.800,256.464 384.620,256.600 384.400 C 256.736 384.180,257.287 384.000,257.824 384.000 C 258.361 384.000,258.800 383.820,258.800 383.600 C 258.800 383.380,259.340 383.200,260.000 383.200 C 260.660 383.200,261.200 383.020,261.200 382.800 C 261.200 382.580,261.740 382.400,262.400 382.400 C 263.060 382.400,263.600 382.220,263.600 382.000 C 263.600 381.780,264.140 381.600,264.800 381.600 C 265.460 381.600,266.000 381.420,266.000 381.200 C 266.000 380.980,266.439 380.800,266.976 380.800 C 267.513 380.800,268.064 380.620,268.200 380.400 C 268.336 380.180,268.797 380.000,269.224 380.000 C 269.651 380.000,270.000 379.820,270.000 379.600 C 270.000 379.380,270.439 379.200,270.976 379.200 C 271.513 379.200,272.064 379.020,272.200 378.800 C 272.336 378.580,272.797 378.400,273.224 378.400 C 273.651 378.400,274.000 378.220,274.000 378.000 C 274.000 377.780,274.450 377.600,275.000 377.600 C 275.550 377.600,276.000 377.420,276.000 377.200 C 276.000 376.980,276.360 376.800,276.800 376.800 C 277.240 376.800,277.600 376.620,277.600 376.400 C 277.600 376.180,277.960 376.000,278.400 376.000 C 278.840 376.000,279.200 375.859,279.200 375.687 C 279.200 375.515,280.055 375.129,281.100 374.830 C 282.145 374.530,284.530 373.474,286.400 372.483 C 288.270 371.492,290.204 370.483,290.697 370.241 C 291.190 369.998,291.595 369.665,291.597 369.500 C 291.599 369.335,291.960 369.200,292.400 369.200 C 292.840 369.200,293.200 369.020,293.200 368.800 C 293.200 368.580,293.560 368.400,294.000 368.400 C 294.440 368.400,294.800 368.220,294.800 368.000 C 294.800 367.780,295.036 367.600,295.325 367.600 C 295.613 367.600,296.236 367.240,296.708 366.800 C 297.180 366.360,297.844 366.000,298.183 366.000 C 298.522 366.000,298.800 365.820,298.800 365.600 C 298.800 365.380,299.120 365.200,299.512 365.200 C 299.903 365.200,300.483 364.840,300.800 364.400 C 301.117 363.960,301.614 363.600,301.905 363.600 C 302.196 363.600,302.820 363.240,303.292 362.800 C 303.764 362.360,304.387 362.000,304.675 362.000 C 304.964 362.000,305.200 361.820,305.200 361.600 C 305.200 361.380,305.470 361.200,305.800 361.200 C 306.130 361.200,306.400 361.050,306.400 360.868 C 306.400 360.685,306.895 360.281,307.500 359.970 C 308.105 359.660,308.870 359.116,309.200 358.762 C 309.530 358.408,310.421 357.798,311.180 357.407 C 311.940 357.016,312.808 356.450,313.109 356.148 C 313.410 355.847,313.816 355.600,314.010 355.600 C 314.205 355.600,314.814 355.150,315.364 354.600 C 315.914 354.050,316.530 353.600,316.734 353.600 C 316.937 353.600,317.845 352.880,318.752 352.000 C 319.659 351.120,320.545 350.400,320.722 350.400 C 321.073 350.400,323.743 348.050,327.992 344.000 C 329.492 342.570,331.323 340.956,332.060 340.414 C 333.722 339.192,339.052 333.848,340.400 332.052 C 340.950 331.319,342.570 329.492,344.000 327.992 C 348.094 323.696,350.400 321.072,350.400 320.708 C 350.400 320.524,351.030 319.743,351.800 318.973 C 352.570 318.203,353.200 317.418,353.200 317.229 C 353.200 317.040,353.740 316.307,354.400 315.600 C 355.060 314.893,355.600 314.167,355.600 313.986 C 355.600 313.805,355.847 313.410,356.148 313.109 C 356.450 312.808,357.016 311.940,357.407 311.180 C 357.798 310.421,358.408 309.530,358.762 309.200 C 359.116 308.870,359.660 308.105,359.970 307.500 C 360.281 306.895,360.685 306.400,360.868 306.400 C 361.050 306.400,361.200 306.130,361.200 305.800 C 361.200 305.470,361.380 305.200,361.600 305.200 C 361.820 305.200,362.000 304.964,362.000 304.675 C 362.000 304.387,362.360 303.764,362.800 303.292 C 363.240 302.820,363.600 302.196,363.600 301.905 C 363.600 301.614,363.960 301.117,364.400 300.800 C 364.840 300.483,365.200 299.903,365.200 299.512 C 365.200 299.120,365.380 298.800,365.600 298.800 C 365.820 298.800,366.000 298.522,366.000 298.183 C 366.000 297.844,366.360 297.180,366.800 296.708 C 367.240 296.236,367.600 295.613,367.600 295.325 C 367.600 295.036,367.780 294.800,368.000 294.800 C 368.220 294.800,368.400 294.440,368.400 294.000 C 368.400 293.560,368.580 293.200,368.800 293.200 C 369.020 293.200,369.200 292.840,369.200 292.400 C 369.200 291.960,369.335 291.599,369.500 291.597 C 369.665 291.595,370.003 291.190,370.251 290.697 C 370.498 290.204,371.503 288.261,372.483 286.380 C 373.463 284.499,374.514 282.114,374.820 281.080 C 375.125 280.046,375.515 279.200,375.687 279.200 C 375.859 279.200,376.000 278.840,376.000 278.400 C 376.000 277.960,376.180 277.600,376.400 277.600 C 376.620 277.600,376.800 277.240,376.800 276.800 C 376.800 276.360,376.980 276.000,377.200 276.000 C 377.420 276.000,377.600 275.645,377.600 275.212 C 377.600 274.779,377.960 273.783,378.400 273.000 C 378.840 272.217,379.200 271.221,379.200 270.788 C 379.200 270.355,379.380 270.000,379.600 270.000 C 379.820 270.000,380.000 269.651,380.000 269.224 C 380.000 268.797,380.180 268.336,380.400 268.200 C 380.620 268.064,380.800 267.513,380.800 266.976 C 380.800 266.439,380.980 266.000,381.200 266.000 C 381.420 266.000,381.600 265.460,381.600 264.800 C 381.600 264.140,381.780 263.600,382.000 263.600 C 382.220 263.600,382.400 263.060,382.400 262.400 C 382.400 261.740,382.580 261.200,382.800 261.200 C 383.020 261.200,383.200 260.660,383.200 260.000 C 383.200 259.340,383.380 258.800,383.600 258.800 C 383.820 258.800,384.000 258.361,384.000 257.824 C 384.000 257.287,384.180 256.736,384.400 256.600 C 384.620 256.464,384.800 255.924,384.800 255.400 C 384.800 254.876,384.980 254.336,385.200 254.200 C 385.420 254.064,385.600 253.333,385.600 252.576 C 385.600 251.819,385.780 251.200,386.000 251.200 C 386.220 251.200,386.400 250.581,386.400 249.824 C 386.400 249.067,386.580 248.336,386.800 248.200 C 387.020 248.064,387.200 247.344,387.200 246.600 C 387.200 245.856,387.380 245.136,387.600 245.000 C 387.820 244.864,388.000 244.043,388.000 243.176 C 388.000 242.309,388.180 241.600,388.400 241.600 C 388.620 241.600,388.800 240.826,388.800 239.880 C 388.800 238.934,388.963 237.989,389.161 237.780 C 389.360 237.571,389.622 236.590,389.743 235.600 C 389.864 234.610,390.157 232.540,390.393 231.000 C 391.233 225.519,391.557 222.153,391.578 218.700 C 391.591 216.648,391.765 215.200,392.000 215.200 C 392.260 215.200,392.400 209.867,392.400 200.000 C 392.400 190.133,392.260 184.800,392.000 184.800 C 391.765 184.800,391.591 183.352,391.578 181.300 C 391.557 177.847,391.233 174.481,390.393 169.000 C 390.157 167.460,389.864 165.390,389.743 164.400 C 389.622 163.410,389.360 162.429,389.161 162.220 C 388.963 162.011,388.800 161.066,388.800 160.120 C 388.800 159.174,388.620 158.400,388.400 158.400 C 388.180 158.400,388.000 157.691,388.000 156.824 C 388.000 155.957,387.820 155.136,387.600 155.000 C 387.380 154.864,387.200 154.144,387.200 153.400 C 387.200 152.656,387.020 151.936,386.800 151.800 C 386.580 151.664,386.400 150.933,386.400 150.176 C 386.400 149.419,386.220 148.800,386.000 148.800 C 385.780 148.800,385.600 148.181,385.600 147.424 C 385.600 146.667,385.420 145.936,385.200 145.800 C 384.980 145.664,384.800 145.124,384.800 144.600 C 384.800 144.076,384.620 143.536,384.400 143.400 C 384.180 143.264,384.000 142.713,384.000 142.176 C 384.000 141.639,383.820 141.200,383.600 141.200 C 383.380 141.200,383.200 140.671,383.200 140.024 C 383.200 139.377,383.020 138.736,382.800 138.600 C 382.580 138.464,382.400 137.913,382.400 137.376 C 382.400 136.839,382.220 136.400,382.000 136.400 C 381.780 136.400,381.600 135.860,381.600 135.200 C 381.600 134.540,381.420 134.000,381.200 134.000 C 380.980 134.000,380.800 133.561,380.800 133.024 C 380.800 132.487,380.620 131.936,380.400 131.800 C 380.180 131.664,380.000 131.203,380.000 130.776 C 380.000 130.349,379.820 130.000,379.600 130.000 C 379.380 130.000,379.200 129.561,379.200 129.024 C 379.200 128.487,379.020 127.936,378.800 127.800 C 378.580 127.664,378.400 127.203,378.400 126.776 C 378.400 126.349,378.220 126.000,378.000 126.000 C 377.780 126.000,377.600 125.550,377.600 125.000 C 377.600 124.450,377.420 124.000,377.200 124.000 C 376.980 124.000,376.800 123.640,376.800 123.200 C 376.800 122.760,376.620 122.400,376.400 122.400 C 376.180 122.400,376.000 122.040,376.000 121.600 C 376.000 121.160,375.859 120.800,375.687 120.800 C 375.515 120.800,375.125 119.954,374.820 118.920 C 374.514 117.886,373.463 115.501,372.483 113.620 C 371.503 111.739,370.498 109.796,370.251 109.303 C 370.003 108.810,369.665 108.405,369.500 108.403 C 369.335 108.401,369.200 108.040,369.200 107.600 C 369.200 107.160,369.020 106.800,368.800 106.800 C 368.580 106.800,368.400 106.440,368.400 106.000 C 368.400 105.560,368.220 105.200,368.000 105.200 C 367.780 105.200,367.600 104.964,367.600 104.675 C 367.600 104.387,367.240 103.764,366.800 103.292 C 366.360 102.820,366.000 102.156,366.000 101.817 C 366.000 101.478,365.820 101.200,365.600 101.200 C 365.380 101.200,365.200 100.880,365.200 100.488 C 365.200 100.097,364.840 99.517,364.400 99.200 C 363.960 98.883,363.600 98.303,363.600 97.912 C 363.600 97.520,363.420 97.200,363.200 97.200 C 362.980 97.200,362.800 96.930,362.800 96.600 C 362.800 96.270,362.620 96.000,362.400 96.000 C 362.180 96.000,362.000 95.730,362.000 95.400 C 362.000 95.070,361.820 94.800,361.600 94.800 C 361.380 94.800,361.200 94.530,361.200 94.200 C 361.200 93.870,361.050 93.600,360.868 93.600 C 360.685 93.600,360.281 93.105,359.970 92.500 C 359.660 91.895,359.132 91.130,358.797 90.800 C 358.463 90.470,357.836 89.525,357.404 88.700 C 356.972 87.875,356.491 87.200,356.336 87.200 C 356.181 87.200,355.938 86.834,355.796 86.387 C 355.654 85.940,355.102 85.138,354.569 84.605 C 354.036 84.072,353.600 83.475,353.600 83.278 C 353.600 83.080,353.103 82.397,352.496 81.759 C 351.888 81.122,350.949 79.977,350.408 79.216 C 349.326 77.692,347.958 76.166,343.900 71.960 C 342.415 70.420,341.200 68.990,341.200 68.780 C 341.200 68.284,331.716 58.800,331.220 58.800 C 331.010 58.800,329.585 57.585,328.051 56.100 C 324.036 52.211,321.092 49.600,320.722 49.600 C 320.545 49.600,319.659 48.880,318.752 48.000 C 317.845 47.120,316.937 46.400,316.734 46.400 C 316.530 46.400,315.928 45.964,315.395 45.431 C 314.862 44.898,314.060 44.346,313.613 44.204 C 313.166 44.062,312.800 43.819,312.800 43.664 C 312.800 43.509,312.125 43.028,311.300 42.596 C 310.475 42.164,309.530 41.537,309.200 41.203 C 308.870 40.868,308.105 40.340,307.500 40.030 C 306.895 39.719,306.400 39.315,306.400 39.132 C 306.400 38.950,306.130 38.800,305.800 38.800 C 305.470 38.800,305.200 38.620,305.200 38.400 C 305.200 38.180,304.930 38.000,304.600 38.000 C 304.270 38.000,304.000 37.820,304.000 37.600 C 304.000 37.380,303.730 37.200,303.400 37.200 C 303.070 37.200,302.800 37.020,302.800 36.800 C 302.800 36.580,302.480 36.400,302.088 36.400 C 301.697 36.400,301.117 36.040,300.800 35.600 C 300.483 35.160,299.903 34.800,299.512 34.800 C 299.120 34.800,298.800 34.620,298.800 34.400 C 298.800 34.180,298.522 34.000,298.183 34.000 C 297.844 34.000,297.180 33.640,296.708 33.200 C 296.236 32.760,295.613 32.400,295.325 32.400 C 295.036 32.400,294.800 32.220,294.800 32.000 C 294.800 31.780,294.440 31.600,294.000 31.600 C 293.560 31.600,293.200 31.420,293.200 31.200 C 293.200 30.980,292.840 30.800,292.400 30.800 C 291.960 30.800,291.599 30.665,291.597 30.500 C 291.595 30.335,291.190 30.002,290.697 29.759 C 290.204 29.517,288.270 28.508,286.400 27.517 C 284.530 26.526,282.145 25.470,281.100 25.170 C 280.055 24.871,279.200 24.485,279.200 24.313 C 279.200 24.141,278.840 24.000,278.400 24.000 C 277.960 24.000,277.600 23.820,277.600 23.600 C 277.600 23.380,277.240 23.200,276.800 23.200 C 276.360 23.200,276.000 23.020,276.000 22.800 C 276.000 22.580,275.550 22.400,275.000 22.400 C 274.450 22.400,274.000 22.220,274.000 22.000 C 274.000 21.780,273.651 21.600,273.224 21.600 C 272.797 21.600,272.336 21.420,272.200 21.200 C 272.064 20.980,271.513 20.800,270.976 20.800 C 270.439 20.800,270.000 20.620,270.000 20.400 C 270.000 20.180,269.651 20.000,269.224 20.000 C 268.797 20.000,268.336 19.820,268.200 19.600 C 268.064 19.380,267.513 19.200,266.976 19.200 C 266.439 19.200,266.000 19.020,266.000 18.800 C 266.000 18.580,265.460 18.400,264.800 18.400 C 264.140 18.400,263.600 18.220,263.600 18.000 C 263.600 17.780,263.060 17.600,262.400 17.600 C 261.740 17.600,261.200 17.420,261.200 17.200 C 261.200 16.980,260.660 16.800,260.000 16.800 C 259.340 16.800,258.800 16.620,258.800 16.400 C 258.800 16.180,258.361 16.000,257.824 16.000 C 257.287 16.000,256.736 15.820,256.600 15.600 C 256.464 15.380,255.924 15.200,255.400 15.200 C 254.876 15.200,254.336 15.020,254.200 14.800 C 254.064 14.580,253.333 14.400,252.576 14.400 C 251.819 14.400,251.200 14.240,251.200 14.044 C 251.200 13.709,250.278 13.483,246.697 12.942 C 245.871 12.818,245.095 12.555,244.974 12.358 C 244.852 12.161,244.043 12.000,243.176 12.000 C 242.309 12.000,241.600 11.820,241.600 11.600 C 241.600 11.380,240.826 11.200,239.880 11.200 C 238.934 11.200,237.989 11.037,237.780 10.839 C 237.571 10.640,236.590 10.378,235.600 10.257 C 234.610 10.136,232.540 9.843,231.000 9.607 C 225.519 8.767,222.153 8.443,218.700 8.422 C 216.648 8.409,215.200 8.235,215.200 8.000 C 215.200 7.740,209.867 7.600,200.000 7.600 C 190.133 7.600,184.800 7.740,184.800 8.000 M201.800 32.800 C 201.949 33.042,204.796 33.200,209.000 33.200 C 213.204 33.200,216.051 33.358,216.200 33.600 C 216.336 33.820,217.776 34.000,219.400 34.000 C 221.024 34.000,222.464 34.180,222.600 34.400 C 222.736 34.620,223.906 34.800,225.200 34.800 C 226.494 34.800,227.664 34.980,227.800 35.200 C 227.936 35.420,228.926 35.600,230.000 35.600 C 231.074 35.600,232.064 35.780,232.200 36.000 C 232.336 36.220,233.146 36.400,234.000 36.400 C 234.854 36.400,235.652 36.561,235.774 36.758 C 235.895 36.955,236.671 37.214,237.497 37.335 C 240.241 37.736,241.791 38.051,242.600 38.372 C 243.366 38.676,243.952 38.853,248.000 40.004 C 248.990 40.285,250.571 40.759,251.514 41.058 C 252.457 41.356,253.672 41.600,254.214 41.600 C 254.756 41.600,255.200 41.780,255.200 42.000 C 255.200 42.220,255.639 42.400,256.176 42.400 C 256.713 42.400,257.264 42.580,257.400 42.800 C 257.536 43.020,257.997 43.200,258.424 43.200 C 258.851 43.200,259.200 43.380,259.200 43.600 C 259.200 43.820,259.650 44.000,260.200 44.000 C 260.750 44.000,261.200 44.180,261.200 44.400 C 261.200 44.620,261.549 44.800,261.976 44.800 C 262.403 44.800,262.864 44.980,263.000 45.200 C 263.136 45.420,263.687 45.600,264.224 45.600 C 264.761 45.600,265.200 45.780,265.200 46.000 C 265.200 46.220,265.560 46.400,266.000 46.400 C 266.440 46.400,266.800 46.580,266.800 46.800 C 266.800 47.020,267.160 47.200,267.600 47.200 C 268.040 47.200,268.400 47.380,268.400 47.600 C 268.400 47.820,268.760 48.000,269.200 48.000 C 269.640 48.000,270.000 48.180,270.000 48.400 C 270.000 48.620,270.225 48.799,270.500 48.797 C 270.987 48.793,277.602 51.968,278.000 52.396 C 278.110 52.514,279.100 53.056,280.200 53.600 C 281.300 54.144,282.290 54.682,282.400 54.795 C 282.597 54.997,285.045 56.360,287.400 57.579 C 288.060 57.921,288.660 58.335,288.733 58.500 C 288.807 58.665,289.146 58.800,289.486 58.800 C 289.827 58.800,290.397 59.116,290.753 59.503 C 291.109 59.889,291.895 60.460,292.500 60.770 C 293.105 61.081,293.600 61.485,293.600 61.668 C 293.600 61.850,293.830 62.000,294.112 62.000 C 294.393 62.000,294.883 62.360,295.200 62.800 C 295.517 63.240,295.980 63.600,296.229 63.600 C 296.478 63.600,297.246 64.140,297.937 64.800 C 298.628 65.460,299.374 66.000,299.596 66.000 C 299.818 66.000,300.741 66.720,301.648 67.600 C 302.555 68.480,303.461 69.200,303.662 69.200 C 303.862 69.200,304.657 69.830,305.427 70.600 C 306.197 71.370,306.978 72.000,307.162 72.000 C 307.346 72.000,308.735 73.188,310.249 74.639 C 311.762 76.091,313.701 77.846,314.558 78.539 C 316.550 80.151,319.840 83.440,321.463 85.442 C 322.158 86.299,323.913 88.254,325.363 89.787 C 326.813 91.319,328.000 92.677,328.000 92.803 C 328.000 92.930,328.630 93.701,329.400 94.518 C 330.170 95.334,330.800 96.160,330.800 96.353 C 330.800 96.546,331.520 97.445,332.400 98.352 C 333.280 99.259,334.000 100.231,334.000 100.512 C 334.000 100.793,334.360 101.283,334.800 101.600 C 335.240 101.917,335.600 102.407,335.600 102.688 C 335.600 102.970,335.780 103.200,336.000 103.200 C 336.220 103.200,336.400 103.430,336.400 103.712 C 336.400 103.993,336.760 104.483,337.200 104.800 C 337.640 105.117,338.000 105.607,338.000 105.888 C 338.000 106.170,338.150 106.400,338.332 106.400 C 338.515 106.400,338.919 106.895,339.230 107.500 C 339.540 108.105,340.111 108.891,340.497 109.247 C 340.884 109.603,341.200 110.173,341.200 110.514 C 341.200 110.854,341.335 111.193,341.500 111.267 C 341.665 111.340,342.079 111.940,342.421 112.600 C 343.640 114.955,345.003 117.403,345.205 117.600 C 345.318 117.710,345.856 118.700,346.400 119.800 C 346.944 120.900,347.486 121.890,347.605 122.000 C 348.073 122.435,351.200 128.897,351.200 129.431 C 351.200 129.744,351.380 130.000,351.600 130.000 C 351.820 130.000,352.000 130.360,352.000 130.800 C 352.000 131.240,352.180 131.600,352.400 131.600 C 352.620 131.600,352.800 131.960,352.800 132.400 C 352.800 132.840,352.980 133.200,353.200 133.200 C 353.420 133.200,353.600 133.560,353.600 134.000 C 353.600 134.440,353.780 134.800,354.000 134.800 C 354.220 134.800,354.400 135.340,354.400 136.000 C 354.400 136.660,354.580 137.200,354.800 137.200 C 355.020 137.200,355.200 137.560,355.200 138.000 C 355.200 138.440,355.380 138.800,355.600 138.800 C 355.820 138.800,356.000 139.250,356.000 139.800 C 356.000 140.350,356.180 140.800,356.400 140.800 C 356.620 140.800,356.800 141.162,356.800 141.605 C 356.800 142.048,356.959 142.723,357.153 143.105 C 357.840 144.454,358.337 145.820,358.790 147.600 C 359.042 148.590,359.430 150.030,359.652 150.800 C 359.874 151.570,360.147 152.650,360.258 153.200 C 360.369 153.750,360.606 154.560,360.785 155.000 C 360.963 155.440,361.322 156.610,361.582 157.600 C 361.841 158.590,362.222 159.953,362.427 160.628 C 362.632 161.304,362.800 162.303,362.800 162.848 C 362.800 163.394,362.962 164.011,363.159 164.220 C 363.497 164.578,363.716 165.734,364.251 170.000 C 364.376 170.990,364.640 171.971,364.839 172.180 C 365.037 172.389,365.200 173.593,365.200 174.856 C 365.200 176.119,365.380 177.264,365.600 177.400 C 365.820 177.536,366.000 178.976,366.000 180.600 C 366.000 182.224,366.180 183.664,366.400 183.800 C 366.643 183.950,366.800 186.863,366.800 191.200 C 366.800 195.537,366.957 198.450,367.200 198.600 C 367.420 198.736,367.600 199.366,367.600 200.000 C 367.600 200.634,367.420 201.264,367.200 201.400 C 366.957 201.550,366.800 204.463,366.800 208.800 C 366.800 213.137,366.643 216.050,366.400 216.200 C 366.180 216.336,366.000 217.776,366.000 219.400 C 366.000 221.024,365.820 222.464,365.600 222.600 C 365.380 222.736,365.200 223.881,365.200 225.144 C 365.200 226.407,365.037 227.611,364.839 227.820 C 364.640 228.029,364.376 229.010,364.251 230.000 C 363.716 234.266,363.497 235.422,363.159 235.780 C 362.962 235.989,362.800 236.606,362.800 237.152 C 362.800 237.697,362.632 238.696,362.427 239.372 C 362.222 240.047,361.841 241.410,361.582 242.400 C 361.322 243.390,360.963 244.560,360.785 245.000 C 360.606 245.440,360.369 246.250,360.258 246.800 C 360.147 247.350,359.874 248.430,359.652 249.200 C 359.430 249.970,359.042 251.410,358.790 252.400 C 358.337 254.180,357.840 255.546,357.153 256.895 C 356.959 257.277,356.800 257.952,356.800 258.395 C 356.800 258.838,356.620 259.200,356.400 259.200 C 356.180 259.200,356.000 259.549,356.000 259.976 C 356.000 260.403,355.820 260.864,355.600 261.000 C 355.380 261.136,355.200 261.597,355.200 262.024 C 355.200 262.451,355.020 262.800,354.800 262.800 C 354.580 262.800,354.400 263.340,354.400 264.000 C 354.400 264.660,354.220 265.200,354.000 265.200 C 353.780 265.200,353.600 265.560,353.600 266.000 C 353.600 266.440,353.420 266.800,353.200 266.800 C 352.980 266.800,352.800 267.160,352.800 267.600 C 352.800 268.040,352.620 268.400,352.400 268.400 C 352.180 268.400,352.000 268.760,352.000 269.200 C 352.000 269.640,351.820 270.000,351.600 270.000 C 351.380 270.000,351.200 270.245,351.200 270.544 C 351.200 271.201,348.724 276.145,348.300 276.333 C 348.135 276.407,348.000 276.812,348.000 277.233 C 348.000 277.655,347.854 278.000,347.675 278.000 C 347.496 278.000,347.102 278.630,346.800 279.400 C 346.498 280.170,346.104 280.800,345.925 280.800 C 345.746 280.800,345.600 281.160,345.600 281.600 C 345.600 282.040,345.465 282.402,345.300 282.404 C 345.135 282.407,344.280 283.802,343.400 285.504 C 342.520 287.207,341.710 288.690,341.599 288.800 C 341.489 288.910,341.144 289.495,340.832 290.100 C 340.520 290.705,340.115 291.200,339.932 291.200 C 339.750 291.200,339.600 291.442,339.600 291.738 C 339.600 292.034,339.240 292.602,338.800 293.000 C 338.360 293.398,338.000 293.926,338.000 294.174 C 338.000 294.421,337.640 294.883,337.200 295.200 C 336.760 295.517,336.400 296.007,336.400 296.288 C 336.400 296.570,336.220 296.800,336.000 296.800 C 335.780 296.800,335.600 297.030,335.600 297.312 C 335.600 297.593,335.240 298.083,334.800 298.400 C 334.360 298.717,334.000 299.207,334.000 299.488 C 334.000 299.769,333.280 300.741,332.400 301.648 C 331.520 302.555,330.800 303.461,330.800 303.662 C 330.800 303.862,330.170 304.657,329.400 305.427 C 328.630 306.197,328.000 306.969,328.000 307.142 C 328.000 307.315,327.055 308.443,325.900 309.649 C 324.745 310.854,322.810 312.985,321.600 314.383 C 318.841 317.573,317.574 318.839,314.384 321.600 C 312.986 322.810,310.871 324.745,309.685 325.900 C 308.499 327.055,307.371 328.000,307.178 328.000 C 306.985 328.000,306.197 328.630,305.427 329.400 C 304.657 330.170,303.862 330.800,303.662 330.800 C 303.461 330.800,302.555 331.520,301.648 332.400 C 300.741 333.280,299.769 334.000,299.488 334.000 C 299.207 334.000,298.717 334.360,298.400 334.800 C 298.083 335.240,297.593 335.600,297.312 335.600 C 297.030 335.600,296.800 335.780,296.800 336.000 C 296.800 336.220,296.570 336.400,296.288 336.400 C 296.007 336.400,295.517 336.760,295.200 337.200 C 294.883 337.640,294.393 338.000,294.112 338.000 C 293.830 338.000,293.600 338.150,293.600 338.332 C 293.600 338.515,293.105 338.919,292.500 339.230 C 291.895 339.540,291.109 340.111,290.753 340.497 C 290.397 340.884,289.827 341.200,289.486 341.200 C 289.146 341.200,288.807 341.335,288.733 341.500 C 288.660 341.665,287.790 342.205,286.800 342.701 C 284.786 343.708,282.703 344.894,282.400 345.205 C 282.290 345.318,281.300 345.858,280.200 346.405 C 279.100 346.952,278.140 347.535,278.067 347.700 C 277.993 347.865,277.603 348.000,277.200 348.000 C 276.797 348.000,276.407 348.135,276.333 348.300 C 276.145 348.724,271.201 351.200,270.544 351.200 C 270.245 351.200,270.000 351.380,270.000 351.600 C 270.000 351.820,269.640 352.000,269.200 352.000 C 268.760 352.000,268.400 352.180,268.400 352.400 C 268.400 352.620,268.040 352.800,267.600 352.800 C 267.160 352.800,266.800 352.980,266.800 353.200 C 266.800 353.420,266.440 353.600,266.000 353.600 C 265.560 353.600,265.200 353.780,265.200 354.000 C 265.200 354.220,264.660 354.400,264.000 354.400 C 263.340 354.400,262.800 354.580,262.800 354.800 C 262.800 355.020,262.440 355.200,262.000 355.200 C 261.560 355.200,261.200 355.380,261.200 355.600 C 261.200 355.820,260.750 356.000,260.200 356.000 C 259.650 356.000,259.200 356.180,259.200 356.400 C 259.200 356.620,258.838 356.800,258.395 356.800 C 257.952 356.800,257.277 356.959,256.895 357.153 C 255.546 357.840,254.180 358.337,252.400 358.790 C 251.410 359.042,249.970 359.430,249.200 359.652 C 248.430 359.874,247.350 360.147,246.800 360.258 C 246.250 360.369,245.440 360.606,245.000 360.785 C 244.560 360.963,243.390 361.322,242.400 361.582 C 241.410 361.841,240.047 362.222,239.372 362.427 C 238.696 362.632,237.672 362.800,237.095 362.800 C 236.519 362.800,235.936 362.980,235.800 363.200 C 235.664 363.420,234.764 363.600,233.800 363.600 C 232.836 363.600,231.936 363.780,231.800 364.000 C 231.664 364.220,230.764 364.400,229.800 364.400 C 228.836 364.400,227.936 364.580,227.800 364.800 C 227.664 365.020,226.494 365.200,225.200 365.200 C 223.906 365.200,222.736 365.380,222.600 365.600 C 222.464 365.820,221.024 366.000,219.400 366.000 C 217.776 366.000,216.336 366.180,216.200 366.400 C 216.051 366.642,213.204 366.800,209.000 366.800 C 204.796 366.800,201.949 366.958,201.800 367.200 C 201.664 367.420,200.854 367.600,200.000 367.600 C 199.146 367.600,198.336 367.420,198.200 367.200 C 198.051 366.958,195.204 366.800,191.000 366.800 C 186.796 366.800,183.949 366.642,183.800 366.400 C 183.664 366.180,182.224 366.000,180.600 366.000 C 178.976 366.000,177.536 365.820,177.400 365.600 C 177.264 365.380,176.083 365.200,174.776 365.200 C 173.469 365.200,172.400 365.037,172.400 364.837 C 172.400 364.637,171.455 364.373,170.300 364.250 C 165.863 363.777,164.400 363.507,164.400 363.160 C 164.400 362.962,163.828 362.800,163.128 362.800 C 162.429 362.800,161.304 362.632,160.628 362.427 C 159.953 362.222,158.590 361.841,157.600 361.582 C 156.610 361.322,155.440 360.963,155.000 360.785 C 154.560 360.606,153.750 360.369,153.200 360.258 C 152.650 360.147,151.480 359.850,150.600 359.598 C 149.720 359.346,148.160 358.928,147.133 358.670 C 146.106 358.411,145.131 358.065,144.966 357.900 C 144.802 357.735,144.257 357.600,143.757 357.600 C 143.257 357.600,142.736 357.420,142.600 357.200 C 142.464 356.980,142.003 356.800,141.576 356.800 C 141.149 356.800,140.800 356.620,140.800 356.400 C 140.800 356.180,140.350 356.000,139.800 356.000 C 139.250 356.000,138.800 355.820,138.800 355.600 C 138.800 355.380,138.440 355.200,138.000 355.200 C 137.560 355.200,137.200 355.020,137.200 354.800 C 137.200 354.580,136.660 354.400,136.000 354.400 C 135.340 354.400,134.800 354.220,134.800 354.000 C 134.800 353.780,134.440 353.600,134.000 353.600 C 133.560 353.600,133.200 353.420,133.200 353.200 C 133.200 352.980,132.840 352.800,132.400 352.800 C 131.960 352.800,131.600 352.620,131.600 352.400 C 131.600 352.180,131.240 352.000,130.800 352.000 C 130.360 352.000,130.000 351.820,130.000 351.600 C 130.000 351.380,129.755 351.200,129.456 351.200 C 128.799 351.200,123.855 348.724,123.667 348.300 C 123.593 348.135,123.188 348.000,122.767 348.000 C 122.345 348.000,122.000 347.854,122.000 347.675 C 122.000 347.496,121.370 347.102,120.600 346.800 C 119.830 346.498,119.200 346.104,119.200 345.925 C 119.200 345.746,118.840 345.600,118.400 345.600 C 117.960 345.600,117.600 345.451,117.600 345.268 C 117.600 345.086,116.694 344.513,115.587 343.994 C 114.480 343.476,113.378 342.815,113.138 342.526 C 112.898 342.237,112.364 342.000,111.951 342.000 C 111.538 342.000,111.200 341.820,111.200 341.600 C 111.200 341.380,110.964 341.200,110.675 341.200 C 110.387 341.200,109.764 340.840,109.292 340.400 C 108.820 339.960,108.274 339.600,108.079 339.600 C 107.884 339.600,107.398 339.240,107.000 338.800 C 106.602 338.360,106.074 338.000,105.826 338.000 C 105.579 338.000,105.117 337.640,104.800 337.200 C 104.483 336.760,103.993 336.400,103.712 336.400 C 103.430 336.400,103.200 336.220,103.200 336.000 C 103.200 335.780,102.970 335.600,102.688 335.600 C 102.407 335.600,101.917 335.240,101.600 334.800 C 101.283 334.360,100.793 334.000,100.512 334.000 C 100.231 334.000,99.259 333.280,98.352 332.400 C 97.445 331.520,96.546 330.800,96.353 330.800 C 96.160 330.800,95.334 330.170,94.518 329.400 C 93.701 328.630,92.931 328.000,92.805 328.000 C 92.680 328.000,91.142 326.640,89.389 324.977 C 87.635 323.314,85.506 321.379,84.658 320.677 C 82.310 318.733,81.172 317.604,79.141 315.200 C 78.119 313.990,76.094 311.746,74.641 310.213 C 73.189 308.681,72.000 307.323,72.000 307.197 C 72.000 307.070,71.370 306.299,70.600 305.482 C 69.830 304.666,69.200 303.840,69.200 303.647 C 69.200 303.454,68.480 302.555,67.600 301.648 C 66.720 300.741,66.000 299.769,66.000 299.488 C 66.000 299.207,65.640 298.717,65.200 298.400 C 64.760 298.083,64.400 297.593,64.400 297.312 C 64.400 297.030,64.220 296.800,64.000 296.800 C 63.780 296.800,63.600 296.570,63.600 296.288 C 63.600 296.007,63.240 295.517,62.800 295.200 C 62.360 294.883,62.000 294.393,62.000 294.112 C 62.000 293.830,61.850 293.600,61.668 293.600 C 61.485 293.600,61.081 293.105,60.770 292.500 C 60.460 291.895,59.889 291.109,59.503 290.753 C 59.116 290.397,58.800 289.827,58.800 289.486 C 58.800 289.146,58.665 288.807,58.500 288.733 C 58.335 288.660,57.921 288.060,57.579 287.400 C 56.360 285.045,54.997 282.597,54.795 282.400 C 54.682 282.290,54.144 281.300,53.600 280.200 C 53.056 279.100,52.514 278.110,52.396 278.000 C 51.968 277.602,48.793 270.987,48.797 270.500 C 48.799 270.225,48.620 270.000,48.400 270.000 C 48.180 270.000,48.000 269.640,48.000 269.200 C 48.000 268.760,47.820 268.400,47.600 268.400 C 47.380 268.400,47.200 268.040,47.200 267.600 C 47.200 267.160,47.020 266.800,46.800 266.800 C 46.580 266.800,46.400 266.440,46.400 266.000 C 46.400 265.560,46.220 265.200,46.000 265.200 C 45.780 265.200,45.600 264.660,45.600 264.000 C 45.600 263.340,45.420 262.800,45.200 262.800 C 44.980 262.800,44.800 262.440,44.800 262.000 C 44.800 261.560,44.620 261.200,44.400 261.200 C 44.180 261.200,44.000 260.750,44.000 260.200 C 44.000 259.650,43.820 259.200,43.600 259.200 C 43.380 259.200,43.200 258.851,43.200 258.424 C 43.200 257.997,43.020 257.536,42.800 257.400 C 42.580 257.264,42.400 256.713,42.400 256.176 C 42.400 255.639,42.259 255.200,42.086 255.200 C 41.913 255.200,41.572 254.255,41.327 253.100 C 41.083 251.945,40.672 250.280,40.414 249.400 C 40.155 248.520,39.853 247.350,39.742 246.800 C 39.631 246.250,39.394 245.440,39.215 245.000 C 39.037 244.560,38.678 243.390,38.418 242.400 C 38.159 241.410,37.778 240.047,37.573 239.372 C 37.368 238.696,37.200 237.697,37.200 237.152 C 37.200 236.606,37.038 235.989,36.841 235.780 C 36.503 235.422,36.284 234.266,35.749 230.000 C 35.624 229.010,35.360 228.029,35.161 227.820 C 34.963 227.611,34.800 226.407,34.800 225.144 C 34.800 223.881,34.620 222.736,34.400 222.600 C 34.180 222.464,34.000 221.024,34.000 219.400 C 34.000 217.776,33.820 216.336,33.600 216.200 C 33.357 216.050,33.200 213.137,33.200 208.800 C 33.200 204.463,33.043 201.550,32.800 201.400 C 32.281 201.079,32.281 198.921,32.800 198.600 C 33.043 198.450,33.200 195.537,33.200 191.200 C 33.200 186.863,33.357 183.950,33.600 183.800 C 33.820 183.664,34.000 182.224,34.000 180.600 C 34.000 178.976,34.180 177.536,34.400 177.400 C 34.620 177.264,34.800 176.094,34.800 174.800 C 34.800 173.506,34.980 172.336,35.200 172.200 C 35.420 172.064,35.600 171.074,35.600 170.000 C 35.600 168.926,35.780 167.936,36.000 167.800 C 36.220 167.664,36.400 166.854,36.400 166.000 C 36.400 165.146,36.580 164.336,36.800 164.200 C 37.020 164.064,37.200 163.481,37.200 162.905 C 37.200 162.328,37.368 161.304,37.573 160.628 C 37.778 159.953,38.159 158.590,38.418 157.600 C 38.678 156.610,39.037 155.440,39.215 155.000 C 39.394 154.560,39.631 153.750,39.742 153.200 C 39.853 152.650,40.155 151.480,40.414 150.600 C 40.672 149.720,41.083 148.055,41.327 146.900 C 41.572 145.745,41.913 144.800,42.086 144.800 C 42.259 144.800,42.400 144.361,42.400 143.824 C 42.400 143.287,42.580 142.736,42.800 142.600 C 43.020 142.464,43.200 142.003,43.200 141.576 C 43.200 141.149,43.380 140.800,43.600 140.800 C 43.820 140.800,44.000 140.350,44.000 139.800 C 44.000 139.250,44.180 138.800,44.400 138.800 C 44.620 138.800,44.800 138.440,44.800 138.000 C 44.800 137.560,44.980 137.200,45.200 137.200 C 45.420 137.200,45.600 136.660,45.600 136.000 C 45.600 135.340,45.780 134.800,46.000 134.800 C 46.220 134.800,46.400 134.440,46.400 134.000 C 46.400 133.560,46.580 133.200,46.800 133.200 C 47.020 133.200,47.200 132.840,47.200 132.400 C 47.200 131.960,47.380 131.600,47.600 131.600 C 47.820 131.600,48.000 131.240,48.000 130.800 C 48.000 130.360,48.180 130.000,48.400 130.000 C 48.620 130.000,48.800 129.729,48.800 129.398 C 48.800 128.857,51.904 122.489,52.405 122.000 C 52.518 121.890,53.056 120.900,53.600 119.800 C 54.144 118.700,54.682 117.710,54.795 117.600 C 54.997 117.403,56.360 114.955,57.579 112.600 C 57.921 111.940,58.335 111.340,58.500 111.267 C 58.665 111.193,58.800 110.854,58.800 110.514 C 58.800 110.173,59.116 109.603,59.503 109.247 C 59.889 108.891,60.460 108.105,60.770 107.500 C 61.081 106.895,61.485 106.400,61.668 106.400 C 61.850 106.400,62.000 106.170,62.000 105.888 C 62.000 105.607,62.360 105.117,62.800 104.800 C 63.240 104.483,63.600 103.993,63.600 103.712 C 63.600 103.430,63.780 103.200,64.000 103.200 C 64.220 103.200,64.400 102.930,64.400 102.600 C 64.400 102.270,64.550 102.000,64.732 102.000 C 64.915 102.000,65.320 101.510,65.632 100.911 C 65.945 100.311,66.875 99.120,67.700 98.262 C 68.525 97.405,69.200 96.546,69.200 96.353 C 69.200 96.160,69.830 95.334,70.600 94.518 C 71.370 93.701,72.000 92.930,72.000 92.803 C 72.000 92.677,73.189 91.319,74.641 89.787 C 76.094 88.254,78.119 86.014,79.141 84.808 C 81.457 82.077,82.077 81.457,84.808 79.141 C 86.014 78.119,88.254 76.094,89.787 74.641 C 91.319 73.189,92.669 72.000,92.787 72.000 C 92.904 72.000,93.788 71.280,94.751 70.400 C 95.713 69.520,96.652 68.800,96.837 68.800 C 97.022 68.800,97.766 68.215,98.490 67.500 C 99.214 66.785,100.300 65.945,100.903 65.632 C 101.506 65.320,102.000 64.915,102.000 64.732 C 102.000 64.550,102.270 64.400,102.600 64.400 C 102.930 64.400,103.200 64.220,103.200 64.000 C 103.200 63.780,103.430 63.600,103.712 63.600 C 103.993 63.600,104.483 63.240,104.800 62.800 C 105.117 62.360,105.607 62.000,105.888 62.000 C 106.170 62.000,106.400 61.850,106.400 61.668 C 106.400 61.485,106.895 61.081,107.500 60.770 C 108.105 60.460,108.891 59.889,109.247 59.503 C 109.603 59.116,110.173 58.800,110.514 58.800 C 110.854 58.800,111.193 58.665,111.267 58.500 C 111.340 58.335,112.750 57.493,114.400 56.629 C 116.050 55.766,117.490 54.953,117.600 54.824 C 117.710 54.695,118.700 54.144,119.800 53.600 C 120.900 53.056,121.890 52.518,122.000 52.405 C 122.489 51.904,128.857 48.800,129.398 48.800 C 129.729 48.800,130.000 48.620,130.000 48.400 C 130.000 48.180,130.360 48.000,130.800 48.000 C 131.240 48.000,131.600 47.820,131.600 47.600 C 131.600 47.380,131.960 47.200,132.400 47.200 C 132.840 47.200,133.200 47.020,133.200 46.800 C 133.200 46.580,133.560 46.400,134.000 46.400 C 134.440 46.400,134.800 46.220,134.800 46.000 C 134.800 45.780,135.239 45.600,135.776 45.600 C 136.313 45.600,136.864 45.420,137.000 45.200 C 137.136 44.980,137.597 44.800,138.024 44.800 C 138.451 44.800,138.800 44.620,138.800 44.400 C 138.800 44.180,139.250 44.000,139.800 44.000 C 140.350 44.000,140.800 43.820,140.800 43.600 C 140.800 43.380,141.239 43.200,141.776 43.200 C 142.313 43.200,142.864 43.020,143.000 42.800 C 143.136 42.580,143.597 42.400,144.024 42.400 C 144.451 42.400,144.800 42.259,144.800 42.086 C 144.800 41.913,145.745 41.572,146.900 41.327 C 148.055 41.083,149.720 40.672,150.600 40.414 C 151.480 40.155,152.650 39.853,153.200 39.742 C 153.750 39.631,154.560 39.394,155.000 39.215 C 155.440 39.037,156.610 38.678,157.600 38.418 C 158.590 38.159,159.953 37.778,160.628 37.573 C 161.304 37.368,162.328 37.200,162.905 37.200 C 163.481 37.200,164.064 37.020,164.200 36.800 C 164.336 36.580,165.146 36.400,166.000 36.400 C 166.854 36.400,167.664 36.220,167.800 36.000 C 167.936 35.780,168.926 35.600,170.000 35.600 C 171.074 35.600,172.064 35.420,172.200 35.200 C 172.336 34.980,173.506 34.800,174.800 34.800 C 176.094 34.800,177.264 34.620,177.400 34.400 C 177.536 34.180,178.976 34.000,180.600 34.000 C 182.224 34.000,183.664 33.820,183.800 33.600 C 183.949 33.358,186.796 33.200,191.000 33.200 C 195.204 33.200,198.051 33.042,198.200 32.800 C 198.336 32.580,199.146 32.400,200.000 32.400 C 200.854 32.400,201.664 32.580,201.800 32.800 M138.000 127.184 C 137.450 127.369,136.246 127.538,135.324 127.560 C 134.402 127.582,133.536 127.780,133.400 128.000 C 133.264 128.220,132.623 128.400,131.976 128.400 C 131.329 128.400,130.800 128.580,130.800 128.800 C 130.800 129.020,130.535 129.200,130.212 129.200 C 128.230 129.200,120.000 135.781,120.000 137.365 C 120.000 137.617,119.640 138.083,119.200 138.400 C 118.760 138.717,118.400 139.297,118.400 139.688 C 118.400 140.080,118.220 140.400,118.000 140.400 C 117.780 140.400,117.600 140.760,117.600 141.200 C 117.600 141.640,117.420 142.000,117.200 142.000 C 116.980 142.000,116.800 142.439,116.800 142.976 C 116.800 143.513,116.620 144.064,116.400 144.200 C 116.180 144.336,116.000 145.056,116.000 145.800 C 116.000 146.544,115.820 147.264,115.600 147.400 C 115.373 147.540,115.200 149.537,115.200 152.024 C 115.200 154.675,115.358 156.400,115.600 156.400 C 115.820 156.400,116.000 157.120,116.000 158.000 C 116.000 158.880,116.180 159.600,116.400 159.600 C 116.620 159.600,116.800 160.140,116.800 160.800 C 116.800 161.460,116.980 162.000,117.200 162.000 C 117.420 162.000,117.600 162.360,117.600 162.800 C 117.600 163.240,117.780 163.600,118.000 163.600 C 118.220 163.600,118.400 163.920,118.400 164.312 C 118.400 164.703,118.760 165.283,119.200 165.600 C 119.640 165.917,120.000 166.411,120.000 166.697 C 120.000 168.539,129.058 175.200,131.563 175.200 C 131.997 175.200,132.464 175.380,132.600 175.600 C 132.736 175.820,133.647 176.000,134.624 176.000 C 135.601 176.000,136.400 176.180,136.400 176.400 C 136.400 176.635,137.800 176.800,139.800 176.800 C 141.800 176.800,143.200 176.635,143.200 176.400 C 143.200 176.180,144.100 176.000,145.200 176.000 C 146.300 176.000,147.200 175.820,147.200 175.600 C 147.200 175.380,147.729 175.200,148.376 175.200 C 149.023 175.200,149.652 175.040,149.773 174.844 C 149.894 174.649,150.472 174.368,151.058 174.221 C 153.618 173.579,159.135 168.616,160.768 165.488 C 161.080 164.889,161.485 164.400,161.668 164.400 C 161.850 164.400,162.000 164.040,162.000 163.600 C 162.000 163.160,162.180 162.800,162.400 162.800 C 162.620 162.800,162.800 162.260,162.800 161.600 C 162.800 160.940,162.980 160.400,163.200 160.400 C 163.420 160.400,163.600 159.860,163.600 159.200 C 163.600 158.540,163.780 158.000,164.000 158.000 C 164.249 158.000,164.400 155.741,164.400 152.024 C 164.400 148.471,164.238 145.947,164.000 145.800 C 163.780 145.664,163.600 145.124,163.600 144.600 C 163.600 144.076,163.420 143.536,163.200 143.400 C 162.980 143.264,162.800 142.713,162.800 142.176 C 162.800 141.639,162.620 141.200,162.400 141.200 C 162.180 141.200,162.000 140.880,162.000 140.488 C 162.000 140.097,161.640 139.517,161.200 139.200 C 160.760 138.883,160.400 138.387,160.400 138.098 C 160.400 137.810,159.815 136.981,159.100 136.257 C 158.385 135.533,157.350 134.401,156.800 133.742 C 154.373 130.831,149.226 128.297,144.200 127.539 C 139.922 126.893,139.016 126.841,138.000 127.184 M258.000 127.177 C 257.670 127.403,256.680 127.593,255.800 127.600 C 252.220 127.626,245.615 130.846,243.200 133.742 C 242.650 134.401,241.615 135.533,240.900 136.257 C 240.185 136.981,239.600 137.810,239.600 138.098 C 239.600 138.387,239.240 138.883,238.800 139.200 C 238.360 139.517,238.000 140.097,238.000 140.488 C 238.000 140.880,237.820 141.200,237.600 141.200 C 237.380 141.200,237.200 141.639,237.200 142.176 C 237.200 142.713,237.020 143.264,236.800 143.400 C 236.580 143.536,236.400 144.076,236.400 144.600 C 236.400 145.124,236.220 145.664,236.000 145.800 C 235.762 145.947,235.600 148.471,235.600 152.024 C 235.600 155.741,235.751 158.000,236.000 158.000 C 236.220 158.000,236.400 158.540,236.400 159.200 C 236.400 159.860,236.580 160.400,236.800 160.400 C 237.020 160.400,237.200 160.940,237.200 161.600 C 237.200 162.260,237.380 162.800,237.600 162.800 C 237.820 162.800,238.000 163.160,238.000 163.600 C 238.000 164.040,238.150 164.400,238.332 164.400 C 238.515 164.400,238.920 164.889,239.232 165.488 C 240.865 168.616,246.382 173.579,248.942 174.221 C 249.528 174.368,250.106 174.649,250.227 174.844 C 250.348 175.040,250.977 175.200,251.624 175.200 C 252.271 175.200,252.800 175.380,252.800 175.600 C 252.800 175.820,253.700 176.000,254.800 176.000 C 255.900 176.000,256.800 176.180,256.800 176.400 C 256.800 176.635,258.200 176.800,260.200 176.800 C 262.200 176.800,263.600 176.635,263.600 176.400 C 263.600 176.180,264.399 176.000,265.376 176.000 C 266.353 176.000,267.264 175.820,267.400 175.600 C 267.536 175.380,268.015 175.200,268.465 175.200 C 270.853 175.200,280.000 168.474,280.000 166.719 C 280.000 166.421,280.360 165.917,280.800 165.600 C 281.240 165.283,281.600 164.703,281.600 164.312 C 281.600 163.920,281.780 163.600,282.000 163.600 C 282.220 163.600,282.400 163.240,282.400 162.800 C 282.400 162.360,282.580 162.000,282.800 162.000 C 283.020 162.000,283.200 161.460,283.200 160.800 C 283.200 160.140,283.380 159.600,283.600 159.600 C 283.820 159.600,284.000 158.880,284.000 158.000 C 284.000 157.120,284.180 156.400,284.400 156.400 C 284.642 156.400,284.800 154.675,284.800 152.024 C 284.800 149.537,284.627 147.540,284.400 147.400 C 284.180 147.264,284.000 146.544,284.000 145.800 C 284.000 145.056,283.820 144.336,283.600 144.200 C 283.380 144.064,283.200 143.513,283.200 142.976 C 283.200 142.439,283.020 142.000,282.800 142.000 C 282.580 142.000,282.400 141.640,282.400 141.200 C 282.400 140.760,282.220 140.400,282.000 140.400 C 281.780 140.400,281.600 140.080,281.600 139.688 C 281.600 139.297,281.240 138.717,280.800 138.400 C 280.360 138.083,280.000 137.589,280.000 137.303 C 280.000 136.316,273.907 130.800,272.816 130.800 C 272.587 130.800,272.399 130.665,272.397 130.500 C 272.393 130.141,270.456 129.200,269.720 129.200 C 269.434 129.200,269.200 129.020,269.200 128.800 C 269.200 128.580,268.671 128.400,268.024 128.400 C 267.377 128.400,266.750 128.243,266.631 128.050 C 266.512 127.858,265.466 127.596,264.307 127.469 C 263.148 127.342,261.390 127.132,260.400 127.002 C 259.401 126.870,258.333 126.948,258.000 127.177 M101.200 223.600 C 101.200 223.820,100.660 224.000,100.000 224.000 C 99.340 224.000,98.800 224.180,98.800 224.400 C 98.800 224.620,98.526 224.800,98.191 224.800 C 96.101 224.800,92.000 229.652,92.000 232.125 C 92.000 232.690,91.820 233.264,91.600 233.400 C 91.380 233.536,91.200 234.706,91.200 236.000 C 91.200 237.294,91.380 238.464,91.600 238.600 C 91.820 238.736,92.000 239.228,92.000 239.694 C 92.000 240.719,94.751 246.400,95.248 246.400 C 95.441 246.400,95.600 246.720,95.600 247.112 C 95.600 247.503,95.960 248.083,96.400 248.400 C 96.840 248.717,97.200 249.180,97.200 249.429 C 97.200 249.678,97.740 250.446,98.400 251.137 C 99.060 251.828,99.600 252.556,99.600 252.756 C 99.600 252.956,100.500 254.038,101.600 255.161 C 102.700 256.285,103.600 257.295,103.600 257.406 C 103.600 258.021,117.036 270.800,117.682 270.800 C 117.861 270.800,118.572 271.340,119.263 272.000 C 119.954 272.660,120.680 273.200,120.876 273.200 C 121.214 273.200,121.691 273.539,122.985 274.700 C 123.292 274.975,123.786 275.200,124.083 275.200 C 124.380 275.200,124.883 275.560,125.200 276.000 C 125.517 276.440,126.007 276.800,126.288 276.800 C 126.570 276.800,126.800 276.980,126.800 277.200 C 126.800 277.420,127.078 277.600,127.417 277.600 C 127.756 277.600,128.420 277.960,128.892 278.400 C 129.364 278.840,129.987 279.200,130.275 279.200 C 130.564 279.200,130.800 279.380,130.800 279.600 C 130.800 279.820,131.160 280.000,131.600 280.000 C 132.040 280.000,132.400 280.152,132.400 280.337 C 132.400 280.523,133.255 281.108,134.300 281.637 C 135.345 282.167,136.260 282.735,136.333 282.900 C 136.407 283.065,136.812 283.200,137.233 283.200 C 137.655 283.200,138.000 283.380,138.000 283.600 C 138.000 283.820,138.272 284.000,138.605 284.000 C 138.938 284.000,139.523 284.157,139.905 284.350 C 142.880 285.848,144.153 286.400,144.638 286.400 C 144.947 286.400,145.200 286.580,145.200 286.800 C 145.200 287.020,145.635 287.200,146.167 287.200 C 146.698 287.200,147.193 287.343,147.267 287.519 C 147.463 287.988,157.484 291.161,159.700 291.456 C 160.745 291.595,161.600 291.864,161.600 292.054 C 161.600 292.244,162.309 292.400,163.176 292.400 C 164.043 292.400,164.864 292.580,165.000 292.800 C 165.136 293.020,165.957 293.200,166.824 293.200 C 167.691 293.200,168.400 293.380,168.400 293.600 C 168.400 293.820,169.300 294.000,170.400 294.000 C 171.500 294.000,172.400 294.180,172.400 294.400 C 172.400 294.625,173.525 294.800,174.976 294.800 C 176.393 294.800,177.664 294.980,177.800 295.200 C 177.936 295.420,179.567 295.600,181.424 295.600 C 183.408 295.600,184.800 295.765,184.800 296.000 C 184.800 296.260,190.133 296.400,200.000 296.400 C 209.867 296.400,215.200 296.260,215.200 296.000 C 215.200 295.765,216.592 295.600,218.576 295.600 C 220.433 295.600,222.064 295.420,222.200 295.200 C 222.336 294.980,223.607 294.800,225.024 294.800 C 226.475 294.800,227.600 294.625,227.600 294.400 C 227.600 294.180,228.500 294.000,229.600 294.000 C 230.700 294.000,231.600 293.820,231.600 293.600 C 231.600 293.380,232.309 293.200,233.176 293.200 C 234.043 293.200,234.864 293.020,235.000 292.800 C 235.136 292.580,235.957 292.400,236.824 292.400 C 237.691 292.400,238.400 292.244,238.400 292.054 C 238.400 291.864,239.255 291.592,240.300 291.450 C 242.185 291.192,247.249 289.807,248.400 289.233 C 248.730 289.069,249.855 288.685,250.900 288.380 C 251.945 288.075,252.800 287.685,252.800 287.513 C 252.800 287.341,253.135 287.200,253.544 287.200 C 253.953 287.200,255.438 286.638,256.844 285.951 C 258.250 285.264,260.092 284.364,260.938 283.951 C 261.784 283.538,262.714 283.200,263.004 283.200 C 263.295 283.200,263.593 283.065,263.667 282.900 C 263.740 282.735,264.655 282.167,265.700 281.637 C 266.745 281.108,267.600 280.523,267.600 280.337 C 267.600 280.152,267.960 280.000,268.400 280.000 C 268.840 280.000,269.200 279.820,269.200 279.600 C 269.200 279.380,269.478 279.200,269.817 279.200 C 270.156 279.200,270.820 278.840,271.292 278.400 C 271.764 277.960,272.387 277.600,272.675 277.600 C 272.964 277.600,273.200 277.420,273.200 277.200 C 273.200 276.980,273.430 276.800,273.712 276.800 C 273.993 276.800,274.483 276.440,274.800 276.000 C 275.117 275.560,275.620 275.200,275.917 275.200 C 276.214 275.200,276.708 274.975,277.015 274.700 C 278.309 273.539,278.786 273.200,279.124 273.200 C 279.320 273.200,280.046 272.660,280.737 272.000 C 281.428 271.340,282.139 270.800,282.318 270.800 C 283.385 270.800,300.400 253.785,300.400 252.718 C 300.400 252.539,300.940 251.828,301.600 251.137 C 302.260 250.446,302.800 249.678,302.800 249.429 C 302.800 249.180,303.160 248.717,303.600 248.400 C 304.040 248.083,304.400 247.503,304.400 247.112 C 304.400 246.720,304.559 246.400,304.752 246.400 C 305.233 246.400,308.000 240.734,308.000 239.750 C 308.000 239.316,308.198 238.762,308.439 238.521 C 309.335 237.625,308.278 231.392,306.834 229.055 C 305.719 227.250,302.894 224.800,301.928 224.800 C 301.528 224.800,301.200 224.620,301.200 224.400 C 301.200 224.180,300.570 224.000,299.800 224.000 C 299.030 224.000,298.400 223.820,298.400 223.600 C 298.400 223.378,297.333 223.200,296.000 223.200 C 294.667 223.200,293.600 223.378,293.600 223.600 C 293.600 223.820,293.060 224.000,292.400 224.000 C 291.740 224.000,291.200 224.180,291.200 224.400 C 291.200 224.620,290.951 224.800,290.646 224.800 C 289.412 224.800,285.600 227.500,285.600 228.374 C 285.600 228.608,285.454 228.800,285.275 228.800 C 285.096 228.800,284.702 229.430,284.400 230.200 C 284.098 230.970,283.704 231.600,283.525 231.600 C 283.346 231.600,283.200 231.825,283.199 232.100 C 283.199 232.375,282.659 233.230,282.000 234.000 C 281.341 234.770,280.801 235.535,280.801 235.699 C 280.800 235.864,280.170 236.666,279.400 237.482 C 278.630 238.299,278.000 239.108,278.000 239.280 C 278.000 239.722,269.703 248.000,269.260 248.000 C 269.060 248.000,268.155 248.720,267.248 249.600 C 266.341 250.480,265.446 251.200,265.259 251.200 C 265.072 251.200,264.394 251.695,263.752 252.300 C 263.111 252.905,262.094 253.655,261.493 253.968 C 260.892 254.280,260.400 254.685,260.400 254.868 C 260.400 255.050,260.212 255.200,259.983 255.200 C 259.754 255.200,259.180 255.560,258.708 256.000 C 258.236 256.440,257.613 256.800,257.325 256.800 C 257.036 256.800,256.800 256.980,256.800 257.200 C 256.800 257.420,256.440 257.600,256.000 257.600 C 255.560 257.600,255.200 257.780,255.200 258.000 C 255.200 258.220,254.945 258.400,254.632 258.400 C 253.965 258.400,251.460 259.665,251.267 260.100 C 251.193 260.265,250.878 260.400,250.567 260.400 C 250.255 260.400,248.516 261.120,246.702 262.000 C 244.888 262.880,243.088 263.600,242.702 263.600 C 242.316 263.600,242.000 263.780,242.000 264.000 C 242.000 264.220,241.460 264.400,240.800 264.400 C 240.140 264.400,239.600 264.580,239.600 264.800 C 239.600 265.020,239.060 265.200,238.400 265.200 C 237.740 265.200,237.200 265.380,237.200 265.600 C 237.200 265.820,236.660 266.000,236.000 266.000 C 235.340 266.000,234.800 266.180,234.800 266.400 C 234.800 266.620,234.271 266.800,233.624 266.800 C 232.977 266.800,232.336 266.980,232.200 267.200 C 232.064 267.420,231.344 267.600,230.600 267.600 C 229.856 267.600,229.136 267.780,229.000 268.000 C 228.864 268.220,228.043 268.400,227.176 268.400 C 226.309 268.400,225.600 268.580,225.600 268.800 C 225.600 269.020,224.711 269.200,223.624 269.200 C 222.537 269.200,221.536 269.380,221.400 269.600 C 221.264 269.820,219.914 270.000,218.400 270.000 C 216.886 270.000,215.536 270.180,215.400 270.400 C 215.258 270.629,213.196 270.800,210.576 270.800 C 207.792 270.800,206.000 270.957,206.000 271.200 C 206.000 271.449,203.733 271.600,200.000 271.600 C 196.267 271.600,194.000 271.449,194.000 271.200 C 194.000 270.957,192.208 270.800,189.424 270.800 C 186.804 270.800,184.742 270.629,184.600 270.400 C 184.464 270.180,183.114 270.000,181.600 270.000 C 180.086 270.000,178.736 269.820,178.600 269.600 C 178.464 269.380,177.463 269.200,176.376 269.200 C 175.289 269.200,174.400 269.020,174.400 268.800 C 174.400 268.580,173.691 268.400,172.824 268.400 C 171.957 268.400,171.136 268.220,171.000 268.000 C 170.864 267.780,170.133 267.600,169.376 267.600 C 168.619 267.600,168.000 267.420,168.000 267.200 C 168.000 266.980,167.370 266.800,166.600 266.800 C 165.830 266.800,165.200 266.620,165.200 266.400 C 165.200 266.180,164.660 266.000,164.000 266.000 C 163.340 266.000,162.800 265.820,162.800 265.600 C 162.800 265.380,162.260 265.200,161.600 265.200 C 160.940 265.200,160.400 265.020,160.400 264.800 C 160.400 264.580,159.860 264.400,159.200 264.400 C 158.540 264.400,158.000 264.220,158.000 264.000 C 158.000 263.780,157.728 263.600,157.395 263.600 C 157.062 263.600,156.477 263.441,156.095 263.247 C 155.713 263.052,154.950 262.705,154.400 262.474 C 153.850 262.244,151.672 261.233,149.560 260.228 C 147.448 259.222,145.513 258.400,145.260 258.400 C 145.007 258.400,144.800 258.220,144.800 258.000 C 144.800 257.780,144.522 257.600,144.183 257.600 C 143.844 257.600,143.180 257.240,142.708 256.800 C 142.236 256.360,141.613 256.000,141.325 256.000 C 141.036 256.000,140.800 255.820,140.800 255.600 C 140.800 255.380,140.530 255.200,140.200 255.200 C 139.870 255.200,139.600 255.050,139.600 254.868 C 139.600 254.685,139.108 254.280,138.507 253.968 C 137.906 253.655,136.889 252.905,136.248 252.300 C 135.606 251.695,134.928 251.200,134.741 251.200 C 134.554 251.200,133.659 250.480,132.752 249.600 C 131.845 248.720,130.940 248.000,130.740 248.000 C 130.297 248.000,122.000 239.722,122.000 239.280 C 122.000 239.108,121.370 238.299,120.600 237.482 C 119.830 236.666,119.200 235.864,119.199 235.699 C 119.199 235.535,118.659 234.770,118.000 234.000 C 117.341 233.230,116.801 232.375,116.801 232.100 C 116.800 231.825,116.654 231.600,116.475 231.600 C 116.296 231.600,115.902 230.970,115.600 230.200 C 115.298 229.430,114.904 228.800,114.725 228.800 C 114.546 228.800,114.400 228.607,114.400 228.371 C 114.400 227.466,110.775 224.800,109.544 224.800 C 109.135 224.800,108.800 224.620,108.800 224.400 C 108.800 224.180,108.260 224.000,107.600 224.000 C 106.940 224.000,106.400 223.820,106.400 223.600 C 106.400 223.374,105.267 223.200,103.800 223.200 C 102.333 223.200,101.200 223.374,101.200 223.600 " stroke="none" fill="#040404" fill-rule="evenodd"></path><path id="path1" d="" stroke="none" fill="#080404" fill-rule="evenodd"></path><path id="path2" d="" stroke="none" fill="#080404" fill-rule="evenodd"></path><path id="path3" d="" stroke="none" fill="#080404" fill-rule="evenodd"></path><path id="path4" d="" stroke="none" fill="#080404" fill-rule="evenodd"></path></g></svg>