<?xml version="1.0" standalone="no"?>
<!DOCTYPE svg PUBLIC "-//W3C//DTD SVG 20010904//EN"
 "http://www.w3.org/TR/2001/REC-SVG-20010904/DTD/svg10.dtd">
<svg version="1.0" xmlns="http://www.w3.org/2000/svg"
 width="800.000000pt" height="800.000000pt" viewBox="0 0 800.000000 800.000000"
 preserveAspectRatio="xMidYMid meet">

<g transform="translate(0.000000,800.000000) scale(0.100000,-0.100000)"
fill="#000000" stroke="none">
<path d="M4045 7622 c-64 -31 -111 -77 -147 -145 -33 -60 -33 -194 0 -254 53
-101 140 -162 241 -169 31 -2 126 -9 212 -14 898 -59 1704 -527 2195 -1275
290 -443 439 -903 464 -1435 10 -211 21 -256 81 -324 116 -132 320 -136 443
-10 20 20 46 57 58 83 22 43 23 57 22 226 -9 1043 -567 2086 -1454 2715 -562
398 -1271 630 -1930 630 -117 0 -129 -2 -185 -28z m460 -133 c906 -88 1749
-565 2305 -1304 130 -173 207 -297 305 -490 221 -434 338 -884 352 -1350 5
-188 5 -190 -19 -225 -46 -69 -144 -91 -208 -47 -69 46 -74 61 -82 239 -30
676 -252 1263 -677 1787 -518 641 -1346 1058 -2156 1087 -193 7 -221 13 -265
59 -33 34 -35 40 -35 105 0 65 2 71 35 105 19 19 48 40 65 45 33 10 222 4 380
-11z"/>
<path d="M1635 6840 c-203 -44 -383 -135 -524 -266 -60 -55 -224 -234 -415
-452 -122 -139 -184 -244 -237 -404 -90 -267 -100 -539 -33 -868 275 -1349
1049 -2562 2167 -3397 824 -615 1810 -997 2827 -1094 386 -37 738 42 1015 226
112 74 164 123 338 315 218 240 301 378 358 595 21 79 24 112 24 275 0 171 -2
192 -28 285 -50 181 -153 365 -274 491 -84 86 -436 402 -516 463 -91 68 -249
144 -372 178 -93 26 -114 28 -290 28 -212 0 -282 -13 -439 -80 -189 -81 -291
-163 -514 -409 -147 -161 -223 -262 -267 -354 -17 -34 -35 -62 -41 -62 -24 0
-438 215 -554 288 -518 326 -951 756 -1271 1264 -79 124 -153 257 -147 263 2
2 25 13 52 25 70 29 201 118 270 181 91 83 343 366 396 444 91 134 145 268
175 430 23 123 16 367 -13 477 -54 200 -153 376 -290 515 -118 120 -475 432
-553 483 -99 65 -218 118 -340 150 -122 33 -377 38 -504 10z m395 -284 c94
-20 215 -69 288 -117 60 -39 332 -279 480 -423 85 -82 140 -158 187 -259 49
-104 66 -176 72 -313 9 -192 -35 -353 -135 -501 -56 -83 -322 -375 -391 -429
-74 -58 -186 -116 -291 -150 -94 -30 -133 -60 -148 -117 -15 -54 -2 -91 88
-259 390 -724 937 -1294 1630 -1700 175 -103 484 -251 635 -303 101 -36 167 1
211 118 68 180 105 236 313 463 158 172 227 228 346 285 116 54 183 70 330 76
110 4 144 2 217 -16 177 -42 265 -95 492 -300 315 -283 371 -345 442 -494 57
-123 69 -183 69 -357 -1 -149 -2 -159 -34 -252 -48 -139 -108 -229 -286 -426
-171 -189 -242 -248 -380 -316 -271 -134 -500 -154 -980 -85 -974 141 -1895
557 -2675 1207 -157 131 -523 499 -654 657 -297 358 -494 662 -696 1070 -179
362 -296 675 -391 1042 -67 262 -91 410 -92 568 -2 299 74 518 248 717 386
441 470 515 651 579 140 49 321 63 454 35z"/>
<path d="M4038 6514 c-64 -20 -149 -99 -179 -166 -52 -119 -20 -261 77 -347
62 -54 113 -68 292 -81 179 -12 315 -37 462 -86 449 -150 820 -477 1028 -906
104 -216 157 -425 171 -685 8 -136 12 -159 35 -208 109 -221 433 -222 540 -2
34 68 41 144 27 302 -28 332 -99 591 -236 870 -363 738 -1079 1234 -1899 1314
-146 15 -261 13 -318 -5z m384 -150 c722 -93 1364 -550 1692 -1202 149 -297
235 -645 236 -953 0 -94 -15 -130 -73 -173 -39 -29 -125 -29 -164 0 -53 40
-73 80 -73 153 -2 512 -244 1043 -635 1394 -331 296 -733 460 -1190 486 -148
8 -168 15 -212 81 -44 64 -22 161 47 208 29 19 45 22 141 22 59 0 163 -7 231
-16z"/>
</g>
</svg>
