<svg id="svg" version="1.1" xmlns="http://www.w3.org/2000/svg" xmlns:xlink="http://www.w3.org/1999/xlink" width="400" height="400" viewBox="0, 0, 400,400"><g id="svgg"><path id="path0" d="M263.800 13.886 C 238.343 17.406,227.352 48.766,245.000 67.528 C 264.428 88.183,298.773 75.542,300.281 47.182 C 301.341 27.257,283.678 11.137,263.800 13.886 M276.400 20.766 C 297.079 27.829,300.879 55.381,282.830 67.380 C 260.275 82.375,232.851 57.530,245.323 33.400 C 250.954 22.506,264.897 16.837,276.400 20.766 M132.459 22.811 C 127.251 23.891,123.562 28.283,122.965 34.112 L 122.690 36.800 105.545 36.800 C 88.933 36.800,88.375 36.825,87.600 37.600 C 86.830 38.370,86.800 38.933,86.800 52.564 L 86.800 66.728 80.690 66.864 C 71.904 67.059,68.088 69.109,65.254 75.152 L 64.200 77.400 64.200 110.400 L 64.200 143.400 65.264 145.670 C 67.056 149.493,70.350 152.373,74.500 153.744 C 75.132 153.952,75.200 154.671,75.200 161.143 C 75.200 169.530,75.347 169.934,78.516 170.292 C 80.746 170.543,80.712 170.370,79.776 176.749 C 78.751 183.735,77.620 188.691,75.734 194.458 C 73.311 201.869,73.456 201.716,70.544 199.932 C 57.910 192.191,44.842 194.674,39.757 205.782 C 32.303 222.063,62.930 227.539,73.625 211.837 C 74.888 209.983,74.370 209.787,80.693 214.500 C 105.272 232.818,117.691 236.378,132.002 229.209 C 146.941 221.725,160.784 199.492,165.007 176.200 C 165.366 174.220,165.781 172.036,165.930 171.347 L 166.200 170.094 172.200 174.286 C 181.266 180.619,183.632 181.603,189.773 181.595 C 199.384 181.583,201.785 179.866,215.909 162.907 L 225.400 151.510 225.600 260.455 C 225.783 360.282,225.855 369.536,226.457 371.028 C 233.518 388.531,257.422 392.282,268.213 377.582 L 269.756 375.480 270.374 376.440 C 279.202 390.137,300.583 389.242,308.141 374.860 C 311.022 369.377,310.797 378.651,310.827 264.016 C 310.843 202.017,310.999 160.920,311.216 161.400 C 311.415 161.840,315.283 174.980,319.812 190.600 C 329.804 225.058,329.691 224.709,331.597 227.245 C 340.910 239.639,360.397 233.905,361.119 218.557 C 361.278 215.183,361.156 214.429,359.470 208.357 C 345.802 159.136,333.813 116.555,333.128 114.800 C 329.205 104.751,320.464 97.162,309.334 94.142 C 305.110 92.996,231.290 92.996,227.066 94.142 C 213.819 97.737,210.590 101.112,196.587 126.000 C 191.574 134.910,187.421 142.265,187.358 142.345 C 187.295 142.425,180.438 137.836,172.122 132.147 C 155.874 121.034,154.003 120.031,149.500 120.010 L 147.200 120.000 147.200 77.473 C 147.200 48.828,147.059 34.172,146.769 32.573 C 145.534 25.772,139.157 21.422,132.459 22.811 M137.615 29.300 C 138.919 29.957,139.643 30.681,140.300 31.985 L 141.200 33.770 141.190 77.785 L 141.179 121.800 139.158 123.172 C 129.597 129.659,129.607 144.520,139.176 151.200 L 141.182 152.600 141.191 176.471 L 141.200 200.342 142.254 201.171 C 143.461 202.120,143.965 202.181,145.361 201.545 C 147.131 200.739,147.200 199.842,147.200 177.759 L 147.200 156.837 153.833 161.476 L 160.465 166.116 160.202 168.558 C 157.962 189.331,146.429 212.117,133.479 221.358 C 120.169 230.856,109.326 228.258,84.000 209.501 C 81.030 207.302,78.450 205.366,78.268 205.199 C 78.085 205.032,78.294 204.192,78.732 203.333 C 81.303 198.294,84.270 187.344,85.542 178.200 C 86.001 174.900,86.447 171.750,86.534 171.200 C 86.620 170.650,86.716 175.105,86.746 181.100 C 86.797 191.427,86.842 192.042,87.600 192.800 C 88.375 193.575,88.933 193.600,105.584 193.600 L 122.768 193.600 122.884 206.159 C 123.014 220.261,123.043 220.400,125.862 220.400 C 129.119 220.400,128.800 230.608,128.800 126.285 L 128.800 33.770 129.700 31.985 C 130.630 30.141,133.204 28.400,135.000 28.400 C 135.457 28.400,136.634 28.805,137.615 29.300 M122.800 115.000 L 122.800 187.600 107.800 187.600 L 92.800 187.600 92.800 179.000 L 92.800 170.400 97.031 170.400 C 101.174 170.400,101.286 170.376,102.431 169.231 L 103.600 168.062 103.600 160.705 L 103.600 153.348 104.982 152.689 C 106.785 151.829,109.475 149.383,110.632 147.550 C 112.853 144.031,112.828 144.487,112.709 109.557 L 112.600 77.382 111.283 74.708 C 108.652 69.365,104.668 67.098,97.500 66.867 L 92.800 66.716 92.800 54.558 L 92.800 42.400 107.800 42.400 L 122.800 42.400 122.800 115.000 M103.131 74.151 C 104.195 74.889,105.155 76.045,105.803 77.370 L 106.814 79.437 106.707 111.084 L 106.600 142.731 105.383 144.462 C 102.936 147.945,102.739 147.986,88.585 147.993 C 74.350 148.001,73.782 147.884,71.405 144.466 L 70.200 142.732 70.085 128.966 L 69.970 115.200 76.741 115.200 C 84.460 115.200,85.333 114.915,85.333 112.399 C 85.333 109.640,84.129 109.200,76.578 109.200 L 70.000 109.200 70.000 101.800 L 70.000 94.400 76.869 94.400 C 84.701 94.400,85.200 94.230,85.200 91.567 C 85.200 88.761,84.214 88.400,76.546 88.400 L 70.000 88.400 70.000 83.819 C 70.000 77.815,71.101 75.333,74.525 73.621 C 76.134 72.816,76.695 72.788,88.835 72.892 L 101.470 73.000 103.131 74.151 M309.808 100.488 C 317.386 103.059,323.691 108.588,326.818 115.405 C 328.788 119.697,355.201 215.036,355.191 217.814 C 355.150 229.106,338.946 231.802,335.072 221.161 C 334.719 220.193,329.099 201.040,322.582 178.600 C 309.309 132.893,310.064 134.894,306.663 136.444 C 304.722 137.328,304.800 132.474,304.800 252.746 C 304.800 378.461,305.001 368.683,302.337 372.879 C 295.507 383.636,279.780 382.512,274.266 370.872 L 273.000 368.200 272.800 307.342 C 272.576 239.140,272.846 244.800,269.814 244.800 C 266.718 244.800,267.024 238.518,266.800 306.668 C 266.576 374.587,266.840 368.779,263.764 373.425 C 256.884 383.811,238.643 382.518,233.097 371.250 L 231.800 368.617 231.600 255.408 C 231.490 193.144,231.255 141.909,231.078 141.554 C 230.612 140.619,228.914 139.956,227.740 140.251 C 227.034 140.428,222.808 145.200,213.836 155.953 C 197.655 175.346,197.593 175.397,190.000 175.399 C 184.666 175.400,183.328 174.791,173.600 167.933 L 166.600 162.998 166.312 158.678 C 165.987 153.809,165.487 152.390,163.899 151.832 C 161.200 150.883,159.501 152.817,159.972 156.300 C 160.129 157.455,160.197 158.400,160.123 158.400 C 159.761 158.400,142.419 146.133,141.251 145.050 C 134.312 138.618,138.770 126.782,148.392 126.093 C 152.195 125.821,152.654 126.075,170.662 138.412 C 179.364 144.374,186.878 149.402,187.360 149.585 C 189.667 150.462,189.945 150.068,201.200 129.961 C 214.427 106.331,216.627 103.754,226.230 100.640 C 230.243 99.339,232.306 99.277,269.200 99.338 L 306.600 99.400 309.808 100.488 M92.312 154.397 L 97.625 154.400 97.512 159.300 L 97.400 164.200 89.300 164.308 L 81.200 164.417 81.200 159.475 C 81.200 153.659,81.087 153.847,84.400 154.154 C 85.830 154.286,89.391 154.396,92.312 154.397 M61.664 202.025 C 63.957 202.929,70.000 206.432,70.000 206.858 C 70.000 207.844,64.617 212.528,62.164 213.676 C 54.055 217.470,42.925 214.377,45.014 208.909 C 47.304 202.911,55.410 199.560,61.664 202.025 M142.258 229.626 L 141.209 230.451 141.104 300.126 C 141.001 368.996,140.991 369.815,140.200 371.128 C 137.729 375.228,131.711 374.961,129.628 370.659 C 128.801 368.949,128.800 368.872,128.800 303.943 L 128.800 238.939 127.874 238.070 C 126.732 236.996,125.191 236.955,123.944 237.965 L 123.000 238.729 123.000 304.665 C 123.000 366.714,123.042 370.704,123.705 372.365 C 127.162 381.016,138.876 382.729,144.465 375.400 C 147.165 371.859,147.000 376.762,147.000 300.265 L 147.000 230.731 145.878 229.765 C 144.504 228.584,143.626 228.550,142.258 229.626 M7.029 304.229 C 6.291 304.966,6.252 305.375,6.814 306.426 C 7.578 307.854,9.285 307.244,9.689 305.400 C 9.846 304.681,9.918 304.711,10.396 305.700 C 10.930 306.803,11.600 307.176,11.600 306.369 C 11.600 304.649,8.200 303.057,7.029 304.229 M8.728 305.269 C 8.658 305.746,8.375 306.211,8.100 306.302 C 7.375 306.541,6.972 305.190,7.642 304.766 C 8.544 304.194,8.864 304.343,8.728 305.269 M7.289 308.623 C 6.209 309.379,6.162 310.061,7.131 310.938 C 8.536 312.209,11.600 311.354,11.600 309.691 C 11.600 309.058,9.974 308.000,9.000 308.000 C 8.548 308.000,7.778 308.280,7.289 308.623 M10.167 309.043 C 11.126 309.411,10.925 310.354,9.829 310.628 C 8.590 310.940,7.200 310.505,7.200 309.806 C 7.200 308.955,8.839 308.533,10.167 309.043 M7.029 313.029 C 6.291 313.766,6.252 314.175,6.814 315.226 C 7.580 316.657,9.588 315.934,9.611 314.220 C 9.620 313.499,9.704 313.533,10.303 314.500 C 11.105 315.793,11.614 315.939,11.313 314.790 C 10.820 312.904,8.222 311.835,7.029 313.029 M8.728 314.069 C 8.658 314.546,8.375 315.011,8.100 315.102 C 7.375 315.341,6.972 313.990,7.642 313.566 C 8.544 312.994,8.864 313.143,8.728 314.069 M8.911 317.300 C 8.698 317.575,8.408 318.126,8.265 318.525 C 7.945 319.420,7.200 319.036,7.200 317.976 C 7.200 317.549,7.020 317.200,6.800 317.200 C 6.580 317.200,6.400 317.740,6.400 318.400 C 6.400 319.169,6.604 319.600,6.967 319.600 C 7.279 319.600,7.778 319.694,8.077 319.808 C 8.416 319.938,8.795 319.550,9.090 318.768 C 9.648 317.288,10.607 317.398,10.584 318.939 C 10.567 320.104,11.086 320.361,11.465 319.374 C 12.092 317.742,9.928 315.985,8.911 317.300 M8.892 321.300 C 8.669 321.575,8.407 322.160,8.311 322.600 C 8.154 323.319,8.082 323.289,7.604 322.300 C 6.969 320.989,6.284 320.817,6.754 322.088 C 7.574 324.303,10.801 325.087,11.395 323.214 C 11.936 321.512,9.951 319.995,8.892 321.300 M10.600 322.628 C 10.600 323.047,10.285 323.450,9.900 323.524 C 9.196 323.659,8.887 322.447,9.475 321.858 C 9.948 321.386,10.600 321.832,10.600 322.628 M8.911 325.700 C 8.698 325.975,8.408 326.526,8.265 326.925 C 7.945 327.820,7.200 327.436,7.200 326.376 C 7.200 325.949,7.020 325.600,6.800 325.600 C 6.580 325.600,6.400 326.140,6.400 326.800 C 6.400 327.569,6.604 328.000,6.967 328.000 C 7.279 328.000,7.778 328.094,8.077 328.208 C 8.416 328.338,8.795 327.950,9.090 327.168 C 9.648 325.688,10.607 325.798,10.584 327.339 C 10.567 328.504,11.086 328.761,11.465 327.774 C 12.092 326.142,9.928 324.385,8.911 325.700 M9.600 329.631 C 9.600 329.883,8.992 330.009,8.132 329.935 C 6.129 329.762,6.021 330.514,7.870 331.770 C 9.772 333.063,10.400 333.070,10.400 331.800 C 10.400 331.178,10.627 330.800,11.000 330.800 C 11.796 330.800,11.759 330.409,10.900 329.757 C 10.041 329.105,9.600 329.062,9.600 329.631 M9.600 331.214 C 9.600 331.896,9.474 331.961,8.822 331.612 C 7.574 330.944,7.464 330.400,8.576 330.400 C 9.339 330.400,9.600 330.607,9.600 331.214 M7.289 334.223 C 6.209 334.979,6.162 335.661,7.131 336.538 C 8.536 337.809,11.600 336.954,11.600 335.291 C 11.600 334.658,9.974 333.600,9.000 333.600 C 8.548 333.600,7.778 333.880,7.289 334.223 M10.167 334.643 C 11.126 335.011,10.925 335.954,9.829 336.228 C 8.590 336.540,7.200 336.105,7.200 335.406 C 7.200 334.555,8.839 334.133,10.167 334.643 M9.033 338.346 C 8.915 338.537,8.373 338.607,7.828 338.503 C 6.797 338.306,5.982 339.800,6.586 340.777 C 7.067 341.555,7.491 341.211,7.298 340.200 C 7.158 339.467,7.279 339.200,7.753 339.200 C 8.109 339.200,8.400 339.470,8.400 339.800 C 8.400 340.699,9.075 340.523,9.327 339.558 C 9.632 338.390,10.604 338.839,10.584 340.139 C 10.567 341.304,11.086 341.561,11.465 340.574 C 12.035 339.089,9.826 337.064,9.033 338.346 M7.822 341.964 C 7.670 342.211,7.377 342.309,7.172 342.183 C 6.968 342.056,6.800 342.128,6.800 342.343 C 6.800 342.558,7.025 342.825,7.300 342.936 C 7.691 343.095,7.684 343.221,7.266 343.514 C 6.713 343.903,7.736 344.635,8.563 344.442 C 8.763 344.396,9.047 344.553,9.195 344.791 C 9.377 345.086,9.773 345.101,10.431 344.838 C 11.128 344.560,11.203 344.444,10.700 344.425 C 10.315 344.411,10.000 344.136,10.000 343.813 C 10.000 343.425,10.238 343.310,10.700 343.474 C 11.298 343.686,11.283 343.605,10.600 342.912 C 9.998 342.302,9.665 342.209,9.256 342.536 C 8.890 342.828,8.858 343.019,9.159 343.120 C 9.686 343.295,9.342 344.000,8.730 344.000 C 8.497 344.000,8.396 343.660,8.504 343.244 C 8.753 342.295,8.227 341.308,7.822 341.964 M5.600 348.800 C 5.600 349.039,7.133 349.200,9.400 349.200 C 11.667 349.200,13.200 349.039,13.200 348.800 C 13.200 348.561,11.667 348.400,9.400 348.400 C 7.133 348.400,5.600 348.561,5.600 348.800 M10.511 352.466 C 9.650 353.328,9.608 353.331,8.812 352.611 C 8.363 352.204,7.861 352.006,7.698 352.170 C 7.534 352.334,7.825 352.813,8.344 353.234 L 9.289 354.000 7.444 354.000 C 6.072 354.000,5.600 354.153,5.600 354.600 C 5.600 355.080,6.200 355.200,8.600 355.200 C 11.000 355.200,11.600 355.080,11.600 354.600 C 11.600 354.247,11.229 353.996,10.700 353.991 L 9.800 353.982 10.753 353.250 C 11.277 352.847,11.636 352.307,11.550 352.050 C 11.452 351.757,11.065 351.912,10.511 352.466 M7.600 356.771 C 7.600 357.829,8.660 358.800,9.814 358.800 C 10.779 358.800,11.600 357.800,11.600 356.626 C 11.600 355.658,10.872 355.887,10.728 356.900 C 10.634 357.559,10.332 357.800,9.600 357.800 C 8.868 357.800,8.566 357.559,8.472 356.900 C 8.316 355.802,7.600 355.696,7.600 356.771 M8.229 360.229 C 7.491 360.966,7.452 361.375,8.014 362.426 C 8.850 363.987,11.600 363.089,11.600 361.255 C 11.600 360.598,10.394 359.600,9.600 359.600 C 9.191 359.600,8.574 359.883,8.229 360.229 M10.600 361.395 C 10.600 362.277,9.356 362.716,8.704 362.064 C 8.032 361.392,8.695 360.330,9.698 360.472 C 10.288 360.556,10.600 360.875,10.600 361.395 M7.600 364.000 C 7.600 364.220,7.330 364.400,7.000 364.400 C 6.670 364.400,6.400 364.580,6.400 364.800 C 6.400 365.020,6.655 365.200,6.967 365.200 C 7.278 365.200,7.638 365.425,7.767 365.700 C 7.953 366.100,8.047 366.100,8.233 365.700 C 8.362 365.425,9.087 365.200,9.846 365.200 C 11.188 365.200,12.083 364.323,11.395 363.683 C 11.227 363.527,11.010 363.625,10.912 363.900 C 10.701 364.491,8.400 364.583,8.400 364.000 C 8.400 363.780,8.220 363.600,8.000 363.600 C 7.780 363.600,7.600 363.780,7.600 364.000 M8.481 367.597 C 7.717 368.941,7.064 368.970,6.872 367.669 C 6.699 366.494,6.000 366.560,6.000 367.751 C 6.000 369.747,8.176 370.204,9.077 368.396 C 9.743 367.059,10.604 367.119,10.584 368.500 C 10.567 369.698,11.081 369.975,11.465 368.974 C 12.295 366.812,9.629 365.581,8.481 367.597 M8.080 372.880 C 7.428 373.532,7.477 374.220,8.229 374.971 C 9.098 375.840,10.685 375.762,11.186 374.826 C 11.712 373.843,11.719 372.800,11.200 372.800 C 10.980 372.800,10.800 373.149,10.800 373.576 C 10.800 374.003,10.620 374.464,10.400 374.600 C 10.167 374.744,10.000 374.337,10.000 373.624 C 10.000 372.311,9.026 371.934,8.080 372.880 M9.200 374.024 C 9.200 374.477,9.020 374.736,8.800 374.600 C 8.580 374.464,8.400 374.093,8.400 373.776 C 8.400 373.459,8.580 373.200,8.800 373.200 C 9.020 373.200,9.200 373.571,9.200 374.024 M7.895 377.554 C 7.634 378.246,7.100 378.816,6.650 378.883 C 4.444 379.211,5.666 380.000,8.379 380.000 C 11.582 380.000,12.187 379.485,11.154 377.637 C 10.263 376.042,8.483 375.996,7.895 377.554 M10.167 377.443 C 11.282 377.871,10.893 378.800,9.600 378.800 C 8.867 378.800,8.400 378.593,8.400 378.267 C 8.400 377.280,9.006 376.997,10.167 377.443 M8.229 381.429 C 7.491 382.166,7.452 382.575,8.014 383.626 C 8.850 385.187,11.600 384.289,11.600 382.455 C 11.600 381.798,10.394 380.800,9.600 380.800 C 9.191 380.800,8.574 381.083,8.229 381.429 M10.600 382.595 C 10.600 383.477,9.356 383.916,8.704 383.264 C 8.032 382.592,8.695 381.530,9.698 381.672 C 10.288 381.756,10.600 382.075,10.600 382.595 M5.600 386.000 C 5.600 386.220,6.050 386.400,6.600 386.400 C 7.200 386.400,7.600 386.629,7.600 386.971 C 7.600 388.772,10.520 389.453,11.261 387.826 C 12.076 386.037,11.516 385.600,8.413 385.600 C 6.804 385.600,5.600 385.771,5.600 386.000 M10.724 387.100 C 10.639 387.542,10.224 387.800,9.600 387.800 C 8.976 387.800,8.561 387.542,8.476 387.100 C 8.371 386.553,8.617 386.400,9.600 386.400 C 10.583 386.400,10.829 386.553,10.724 387.100 M8.800 390.188 C 5.496 391.306,5.516 391.895,8.900 393.037 C 10.425 393.551,11.600 393.768,11.600 393.536 C 11.600 393.310,11.240 393.031,10.800 392.916 C 9.832 392.663,9.631 390.400,10.576 390.400 C 11.124 390.400,11.837 389.680,11.540 389.428 C 11.463 389.362,10.230 389.704,8.800 390.188 M9.118 392.215 C 8.858 392.475,7.200 391.926,7.200 391.581 C 7.200 391.017,8.993 390.971,9.135 391.531 C 9.210 391.824,9.202 392.131,9.118 392.215 " stroke="none" fill="#353535" fill-rule="evenodd"></path><path id="path1" d="M249.781 27.300 L 248.200 29.000 249.900 27.419 C 251.481 25.948,251.784 25.600,251.481 25.600 C 251.416 25.600,250.651 26.365,249.781 27.300 M128.997 126.200 C 128.997 177.020,129.043 197.869,129.100 172.532 C 129.157 147.195,129.157 105.615,129.100 80.132 C 129.043 54.649,128.997 75.380,128.997 126.200 M140.993 78.000 C 140.993 102.090,141.041 111.945,141.100 99.900 C 141.159 87.855,141.159 68.145,141.100 56.100 C 141.041 44.055,140.993 53.910,140.993 78.000 M86.578 52.600 C 86.579 59.640,86.633 62.464,86.699 58.875 C 86.766 55.286,86.766 49.526,86.699 46.075 C 86.633 42.624,86.578 45.560,86.578 52.600 M236.137 45.800 C 236.139 47.560,236.209 48.230,236.293 47.289 C 236.378 46.349,236.377 44.909,236.291 44.089 C 236.205 43.270,236.136 44.040,236.137 45.800 M300.493 45.600 C 300.493 46.370,300.575 46.685,300.676 46.300 C 300.776 45.915,300.776 45.285,300.676 44.900 C 300.575 44.515,300.493 44.830,300.493 45.600 M81.511 66.693 C 82.451 66.778,83.891 66.777,84.711 66.691 C 85.530 66.605,84.760 66.536,83.000 66.537 C 81.240 66.539,80.570 66.609,81.511 66.693 M95.500 66.689 C 96.215 66.778,97.385 66.778,98.100 66.689 C 98.815 66.601,98.230 66.528,96.800 66.528 C 95.370 66.528,94.785 66.601,95.500 66.689 M112.982 95.200 C 112.982 103.670,113.035 107.135,113.099 102.900 C 113.164 98.665,113.164 91.735,113.099 87.500 C 113.035 83.265,112.982 86.730,112.982 95.200 M63.790 110.400 C 63.790 126.790,63.839 133.495,63.900 125.300 C 63.960 117.105,63.960 103.695,63.900 95.500 C 63.839 87.305,63.790 94.010,63.790 110.400 M70.905 94.687 C 71.514 94.779,72.414 94.777,72.905 94.682 C 73.397 94.587,72.900 94.511,71.800 94.514 C 70.700 94.517,70.297 94.595,70.905 94.687 M239.100 99.499 C 242.895 99.565,249.105 99.565,252.900 99.499 C 256.695 99.434,253.590 99.380,246.000 99.380 C 238.410 99.380,235.305 99.434,239.100 99.499 M262.100 99.476 C 262.485 99.576,263.115 99.576,263.500 99.476 C 263.885 99.375,263.570 99.293,262.800 99.293 C 262.030 99.293,261.715 99.375,262.100 99.476 M274.500 99.500 C 279.945 99.563,288.855 99.563,294.300 99.500 C 299.745 99.437,295.290 99.385,284.400 99.385 C 273.510 99.385,269.055 99.437,274.500 99.500 M210.581 103.300 L 209.000 105.000 210.700 103.419 C 211.635 102.549,212.400 101.784,212.400 101.719 C 212.400 101.416,212.052 101.719,210.581 103.300 M275.200 104.052 C 224.181 104.363,224.200 104.361,218.085 110.144 C 214.292 113.730,211.742 117.973,200.573 139.276 C 193.560 152.651,190.805 155.364,186.275 153.356 C 185.354 152.948,178.840 148.758,171.800 144.045 C 149.373 129.032,149.167 128.925,146.146 130.767 C 142.777 132.822,142.157 135.123,143.172 141.800 C 143.573 144.440,143.848 146.695,143.782 146.811 C 143.682 146.989,159.182 157.992,159.983 158.310 C 160.135 158.370,160.131 157.470,159.974 156.310 C 159.501 152.817,161.197 150.882,163.899 151.832 C 165.487 152.390,165.987 153.809,166.312 158.678 L 166.600 162.998 173.600 167.933 C 183.328 174.791,184.666 175.400,190.000 175.399 C 197.593 175.397,197.655 175.346,213.836 155.953 C 227.157 139.988,227.660 139.498,229.733 140.442 C 231.888 141.424,231.723 138.801,232.405 182.800 C 233.095 227.271,233.572 256.510,233.799 268.200 C 233.919 274.360,234.189 290.560,234.398 304.200 C 235.047 346.472,235.196 355.087,235.451 364.954 C 235.658 372.984,235.610 374.458,235.149 374.195 C 234.847 374.023,235.320 374.640,236.200 375.566 C 243.226 382.957,258.221 381.792,263.764 373.425 C 266.840 368.779,266.576 374.587,266.800 306.668 C 267.024 238.518,266.718 244.800,269.814 244.800 C 272.846 244.800,272.576 239.140,272.800 307.342 L 273.000 368.200 274.266 370.872 C 279.780 382.512,295.507 383.636,302.337 372.879 C 305.001 368.683,304.800 378.461,304.800 252.746 C 304.800 132.474,304.722 137.328,306.663 136.444 C 310.064 134.894,309.309 132.893,322.582 178.600 C 329.099 201.040,334.719 220.193,335.072 221.161 C 338.946 231.802,355.150 229.106,355.191 217.814 C 355.201 215.198,328.928 120.121,326.975 115.706 C 325.178 111.642,321.511 107.170,318.000 104.761 L 316.600 103.800 275.200 104.052 M112.928 114.400 C 112.928 115.830,113.001 116.415,113.089 115.700 C 113.178 114.985,113.178 113.815,113.089 113.100 C 113.001 112.385,112.928 112.970,112.928 114.400 M70.905 115.487 C 71.514 115.579,72.414 115.577,72.905 115.482 C 73.397 115.387,72.900 115.311,71.800 115.314 C 70.700 115.317,70.297 115.395,70.905 115.487 M112.893 118.400 C 112.893 119.170,112.975 119.485,113.076 119.100 C 113.176 118.715,113.176 118.085,113.076 117.700 C 112.975 117.315,112.893 117.630,112.893 118.400 M112.974 130.800 C 112.974 136.410,113.030 138.705,113.099 135.900 C 113.168 133.095,113.168 128.505,113.099 125.700 C 113.030 122.895,112.974 125.190,112.974 130.800 M224.562 152.462 C 224.385 152.748,224.452 152.815,224.737 152.639 C 225.085 152.424,225.224 178.678,225.300 259.277 L 225.401 366.200 225.501 259.100 C 225.563 192.374,225.458 152.000,225.224 152.000 C 225.017 152.000,224.719 152.208,224.562 152.462 M140.893 154.000 C 140.893 154.770,140.975 155.085,141.076 154.700 C 141.176 154.315,141.176 153.685,141.076 153.300 C 140.975 152.915,140.893 153.230,140.893 154.000 M140.987 178.000 C 140.987 190.210,141.038 195.205,141.100 189.100 C 141.162 182.995,141.162 173.005,141.100 166.900 C 141.038 160.795,140.987 165.790,140.987 178.000 M310.800 263.600 C 310.800 319.993,310.889 366.044,310.998 365.935 C 311.261 365.672,311.266 161.532,311.003 161.270 C 310.891 161.158,310.800 207.207,310.800 263.600 M82.100 164.287 C 82.705 164.378,83.695 164.378,84.300 164.287 C 84.905 164.195,84.410 164.120,83.200 164.120 C 81.990 164.120,81.495 164.195,82.100 164.287 M159.952 166.887 C 160.137 167.998,160.193 168.055,160.319 167.254 C 160.401 166.733,160.303 166.143,160.101 165.941 C 159.879 165.719,159.821 166.093,159.952 166.887 M86.567 183.600 C 86.567 187.890,86.626 189.645,86.698 187.500 C 86.770 185.355,86.770 181.845,86.698 179.700 C 86.626 177.555,86.567 179.310,86.567 183.600 M97.327 193.900 C 102.127 193.964,109.867 193.963,114.527 193.899 C 119.187 193.836,115.260 193.783,105.800 193.783 C 96.340 193.783,92.527 193.836,97.327 193.900 M56.505 195.087 C 57.114 195.179,58.014 195.177,58.505 195.082 C 58.997 194.987,58.500 194.911,57.400 194.914 C 56.300 194.917,55.897 194.995,56.505 195.087 M117.300 226.687 C 117.905 226.778,118.895 226.778,119.500 226.687 C 120.105 226.595,119.610 226.520,118.400 226.520 C 117.190 226.520,116.695 226.595,117.300 226.687 M140.995 296.200 C 140.995 332.280,141.042 346.981,141.100 328.868 C 141.158 310.756,141.158 281.236,141.100 263.268 C 141.042 245.301,140.995 260.120,140.995 296.200 M128.995 304.000 C 128.995 339.750,129.042 354.375,129.100 336.500 C 129.158 318.625,129.158 289.375,129.100 271.500 C 129.042 253.625,128.995 268.250,128.995 304.000 M9.416 317.974 C 9.264 318.220,9.400 318.298,9.747 318.165 C 10.109 318.026,10.402 318.221,10.507 318.669 C 10.660 319.322,10.674 319.318,10.639 318.631 C 10.595 317.764,9.807 317.341,9.416 317.974 M9.416 321.974 C 9.261 322.225,9.406 322.296,9.779 322.153 C 10.174 322.001,10.400 322.138,10.400 322.528 C 10.400 322.865,10.126 323.226,9.792 323.330 C 9.367 323.462,9.397 323.499,9.892 323.454 C 10.299 323.417,10.600 323.065,10.600 322.628 C 10.600 321.772,9.810 321.336,9.416 321.974 M9.416 326.374 C 9.264 326.620,9.400 326.698,9.747 326.565 C 10.109 326.426,10.402 326.621,10.507 327.069 C 10.660 327.722,10.674 327.718,10.639 327.031 C 10.595 326.164,9.807 325.741,9.416 326.374 M9.397 339.205 C 9.244 339.452,9.228 339.761,9.360 339.893 C 9.492 340.025,9.600 339.923,9.600 339.667 C 9.600 338.935,10.325 339.121,10.511 339.900 C 10.648 340.470,10.671 340.457,10.639 339.831 C 10.594 338.944,9.804 338.546,9.397 339.205 M7.100 348.295 C 8.255 348.376,10.145 348.376,11.300 348.295 C 12.455 348.214,11.510 348.148,9.200 348.148 C 6.890 348.148,5.945 348.214,7.100 348.295 M8.534 361.027 C 8.402 361.372,8.488 361.848,8.725 362.085 C 9.032 362.392,9.087 362.253,8.916 361.599 C 8.703 360.786,8.794 360.706,9.726 360.884 C 10.303 360.994,10.681 360.930,10.564 360.742 C 10.207 360.164,8.789 360.363,8.534 361.027 M140.901 367.000 C 140.905 367.880,140.987 368.193,141.083 367.695 C 141.179 367.198,141.175 366.478,141.075 366.095 C 140.975 365.713,140.896 366.120,140.901 367.000 M273.000 380.000 C 273.859 380.880,274.652 381.600,274.762 381.600 C 274.872 381.600,274.259 380.880,273.400 380.000 C 272.541 379.120,271.748 378.400,271.638 378.400 C 271.528 378.400,272.141 379.120,273.000 380.000 M134.305 380.283 C 134.802 380.379,135.522 380.375,135.905 380.275 C 136.287 380.175,135.880 380.096,135.000 380.101 C 134.120 380.105,133.807 380.187,134.305 380.283 M8.662 383.300 C 8.764 383.465,9.186 383.600,9.600 383.600 C 10.014 383.600,10.436 383.465,10.538 383.300 C 10.640 383.135,10.218 383.000,9.600 383.000 C 8.982 383.000,8.560 383.135,8.662 383.300 M10.400 386.904 C 10.400 387.255,10.085 387.624,9.700 387.724 C 9.044 387.896,9.045 387.910,9.713 387.954 C 10.436 388.001,11.106 386.973,10.649 386.516 C 10.512 386.379,10.400 386.553,10.400 386.904 M10.267 390.667 C 9.905 391.028,9.928 392.308,10.300 392.538 C 10.465 392.640,10.600 392.201,10.600 391.562 C 10.600 390.923,10.585 390.400,10.567 390.400 C 10.548 390.400,10.413 390.520,10.267 390.667 " stroke="none" fill="#94e3db" fill-rule="evenodd"></path><path id="path2" d="M0.000 200.000 L 0.000 400.000 200.000 400.000 L 400.000 400.000 400.000 200.000 L 400.000 0.000 200.000 0.000 L 0.000 0.000 0.000 200.000 M278.200 14.959 C 304.265 23.804,308.549 58.354,285.395 72.991 C 263.343 86.932,234.231 69.525,236.164 43.555 C 237.707 22.827,258.900 8.409,278.200 14.959 M263.000 20.229 C 237.304 25.908,235.376 63.099,260.400 70.382 C 264.603 71.606,265.090 71.664,265.354 70.976 C 265.495 70.609,265.424 70.462,265.178 70.613 C 264.634 70.950,261.117 67.952,256.300 63.047 C 252.820 59.503,251.195 57.369,253.100 58.844 C 253.691 59.302,253.684 59.250,253.052 58.509 C 252.641 58.027,252.166 57.670,251.997 57.716 C 251.574 57.832,249.291 54.932,248.332 53.061 C 247.581 51.594,247.612 49.524,248.367 50.746 C 248.758 51.380,250.472 51.199,250.702 50.500 C 250.917 49.847,249.728 49.847,249.465 50.500 C 249.342 50.803,249.251 50.730,249.232 50.313 C 249.211 49.871,248.985 49.708,248.600 49.855 C 248.249 49.990,247.997 49.860,247.994 49.543 C 247.989 49.124,247.899 49.137,247.600 49.600 C 247.378 49.944,247.210 50.001,247.206 49.733 C 247.203 49.476,247.079 48.951,246.932 48.567 C 246.747 48.085,246.812 47.960,247.140 48.163 C 247.447 48.352,247.384 47.876,246.964 46.827 C 246.276 45.106,246.445 42.730,247.336 41.623 C 247.695 41.177,247.687 41.114,247.300 41.347 C 246.657 41.733,246.655 41.755,247.620 38.631 C 248.070 37.171,248.608 36.082,248.815 36.209 C 249.028 36.341,249.076 36.143,248.927 35.755 C 248.735 35.253,248.806 35.156,249.194 35.396 C 249.553 35.618,249.628 35.569,249.427 35.244 C 248.857 34.321,254.438 27.776,255.462 28.168 C 255.744 28.277,256.098 28.165,256.249 27.921 C 256.426 27.635,256.323 27.582,255.962 27.773 C 255.653 27.936,255.850 27.699,256.400 27.246 C 259.191 24.947,266.170 23.387,270.900 24.004 C 274.856 24.519,281.116 27.165,280.549 28.082 C 280.367 28.377,280.492 28.450,280.905 28.292 C 281.543 28.047,282.589 28.878,282.170 29.297 C 282.047 29.420,282.263 29.493,282.650 29.460 C 283.037 29.427,283.562 29.808,283.817 30.307 C 284.072 30.806,284.427 31.346,284.605 31.507 C 284.783 31.668,284.782 31.530,284.602 31.200 C 284.423 30.870,284.838 31.123,285.524 31.761 C 286.210 32.400,286.659 33.120,286.522 33.361 C 286.384 33.603,286.419 33.667,286.599 33.503 C 286.779 33.340,287.168 33.407,287.463 33.652 C 288.066 34.153,288.206 34.975,287.628 34.617 C 287.423 34.491,287.157 34.546,287.037 34.741 C 286.916 34.935,287.219 35.073,287.709 35.047 C 288.777 34.991,292.285 41.539,293.110 45.131 C 293.653 47.494,293.766 50.548,293.300 50.265 C 293.135 50.165,292.978 50.920,292.952 51.942 C 292.905 53.752,292.923 53.728,293.619 51.000 C 298.099 33.465,280.976 16.257,263.000 20.229 M139.373 23.224 C 142.041 24.223,144.673 26.670,146.019 29.406 L 147.000 31.400 147.107 75.665 L 147.214 119.931 149.748 119.950 C 154.687 119.988,154.453 119.861,172.879 132.489 C 180.512 137.720,186.902 141.997,187.079 141.994 C 187.255 141.991,191.720 134.322,197.000 124.951 C 210.143 101.624,213.720 97.829,225.883 94.303 L 229.000 93.400 268.200 93.400 L 307.400 93.400 310.573 94.319 C 319.855 97.007,327.427 103.193,331.814 111.674 C 333.416 114.770,352.648 181.693,360.457 211.342 C 364.534 226.822,351.497 239.063,337.823 232.594 C 330.847 229.294,330.965 229.559,320.399 193.296 L 311.400 162.408 311.200 265.304 C 310.977 380.256,311.271 369.277,308.262 375.000 C 301.040 388.736,280.592 390.417,271.348 378.034 L 269.892 376.084 266.646 379.395 C 255.508 390.758,235.205 388.441,228.138 375.000 C 225.127 369.272,225.423 380.872,225.200 260.223 L 225.000 152.247 215.091 164.128 C 204.821 176.441,203.627 177.610,199.079 179.815 C 190.495 183.978,183.944 182.685,172.275 174.526 C 168.995 172.232,166.267 170.410,166.214 170.478 C 166.160 170.545,165.896 172.040,165.626 173.800 C 162.358 195.108,149.679 218.036,136.225 226.966 C 120.562 237.362,107.007 234.332,80.400 214.485 L 75.000 210.458 73.400 212.328 C 66.700 220.161,57.525 223.140,47.888 220.611 C 36.253 217.557,35.202 205.924,45.904 198.646 C 53.433 193.526,60.438 193.694,69.623 199.214 C 71.443 200.307,72.973 201.157,73.024 201.101 C 74.681 199.287,78.443 185.239,79.585 176.600 C 79.817 174.840,80.098 172.725,80.208 171.900 L 80.409 170.400 78.731 170.400 C 75.425 170.400,75.200 169.824,75.200 161.361 L 75.200 154.062 73.700 153.593 C 70.331 152.541,67.052 149.629,65.244 146.086 C 63.690 143.040,63.549 139.640,63.678 108.200 L 63.800 78.200 64.759 75.820 C 67.309 69.488,72.135 66.748,80.897 66.657 C 85.415 66.610,86.395 66.496,86.397 66.018 C 86.399 65.697,86.445 59.337,86.500 51.883 L 86.600 38.330 87.722 37.365 L 88.845 36.400 105.822 36.400 L 122.800 36.400 122.800 34.415 C 122.800 26.128,131.476 20.270,139.373 23.224 M270.400 24.800 C 270.730 25.013,270.865 25.191,270.699 25.194 C 270.534 25.197,270.759 25.872,271.199 26.694 C 271.640 27.516,272.000 28.426,272.000 28.718 C 272.000 29.009,272.198 29.125,272.440 28.975 C 272.690 28.821,272.781 28.207,272.651 27.556 C 272.361 26.107,272.698 25.208,273.543 25.172 C 274.056 25.150,274.025 25.068,273.400 24.800 C 272.300 24.327,271.669 24.327,272.400 24.800 C 272.915 25.133,272.903 25.189,272.313 25.194 C 271.843 25.198,271.694 25.422,271.843 25.900 C 272.049 26.562,272.036 26.562,271.609 25.897 C 271.360 25.510,271.267 25.015,271.402 24.797 C 271.537 24.578,271.234 24.403,270.724 24.406 C 269.981 24.411,269.917 24.488,270.400 24.800 M132.800 29.061 C 132.470 29.193,131.778 29.684,131.262 30.151 C 129.060 32.144,129.200 25.663,129.200 125.811 L 129.200 218.462 128.031 219.631 C 126.713 220.949,126.055 221.056,124.429 220.215 C 122.790 219.367,122.800 219.454,122.800 206.167 L 122.800 194.000 105.822 194.000 L 88.845 194.000 87.722 193.033 L 86.600 192.065 86.600 182.388 C 86.600 177.065,86.484 173.495,86.341 174.455 C 84.543 186.583,82.900 193.474,80.189 200.250 C 79.205 202.708,78.400 204.812,78.400 204.924 C 78.400 205.301,90.157 213.870,95.186 217.158 C 114.643 229.884,126.746 229.479,139.642 215.672 C 149.773 204.826,159.471 182.310,159.737 169.021 L 159.800 165.842 153.600 161.494 L 147.400 157.146 147.200 178.809 L 147.000 200.471 146.056 201.236 C 144.741 202.300,142.974 202.210,141.782 201.018 L 140.800 200.036 140.800 176.273 L 140.800 152.509 139.164 151.375 C 129.248 144.504,129.407 128.976,139.457 122.765 L 140.800 121.935 140.800 77.548 C 140.800 29.453,140.923 32.165,138.641 30.033 C 137.597 29.058,134.212 28.494,132.800 29.061 M92.894 54.644 L 93.000 66.488 97.200 66.593 C 105.733 66.807,111.442 71.212,112.763 78.600 C 113.344 81.848,113.339 138.886,112.758 142.175 C 111.959 146.691,108.914 150.955,105.294 152.627 L 103.621 153.400 103.610 160.918 C 103.597 170.618,103.744 170.400,97.218 170.400 L 92.800 170.400 92.800 179.000 L 92.800 187.600 107.800 187.600 L 122.800 187.600 122.800 115.200 L 122.800 42.800 107.794 42.800 L 92.788 42.800 92.894 54.644 M292.160 53.893 C 292.313 54.164,291.988 55.327,291.437 56.477 C 290.886 57.628,290.515 58.649,290.613 58.746 C 290.710 58.843,291.251 57.879,291.816 56.603 C 292.606 54.816,292.732 54.181,292.362 53.841 C 292.008 53.515,291.955 53.528,292.160 53.893 M289.481 58.781 C 289.825 59.168,289.845 59.543,289.550 60.094 C 289.171 60.802,289.096 60.811,288.654 60.206 C 288.217 59.608,288.171 59.619,288.171 60.325 C 288.171 61.316,289.171 61.199,289.884 60.123 C 290.348 59.426,290.324 59.242,289.710 58.777 C 289.113 58.324,289.077 58.325,289.481 58.781 M287.612 62.588 C 287.101 63.131,286.485 63.462,286.242 63.324 C 285.999 63.185,285.938 63.223,286.106 63.408 C 286.274 63.593,285.916 64.297,285.311 64.972 C 284.706 65.648,285.244 65.216,286.506 64.014 C 287.768 62.811,288.800 61.776,288.800 61.714 C 288.800 61.431,288.472 61.672,287.612 62.588 M281.205 67.779 C 280.658 68.082,280.092 68.257,279.947 68.167 C 279.802 68.078,279.580 68.275,279.454 68.604 C 279.272 69.077,279.561 69.032,280.812 68.394 C 281.685 67.948,282.400 67.497,282.400 67.392 C 282.400 67.131,282.343 67.149,281.205 67.779 M266.900 71.491 C 267.725 71.578,269.075 71.578,269.900 71.491 C 270.725 71.405,270.050 71.334,268.400 71.334 C 266.750 71.334,266.075 71.405,266.900 71.491 M75.528 73.432 C 71.637 74.629,70.000 77.929,70.000 84.577 L 70.000 88.400 71.788 88.400 L 73.577 88.400 73.688 83.100 L 73.800 77.800 90.000 77.600 L 106.200 77.400 104.378 75.567 C 103.087 74.269,102.013 73.598,100.700 73.267 C 97.869 72.554,77.956 72.684,75.528 73.432 M70.000 102.000 L 70.000 109.200 71.800 109.200 L 73.600 109.200 73.600 102.000 L 73.600 94.800 71.800 94.800 L 70.000 94.800 70.000 102.000 M244.400 99.618 C 227.406 99.858,227.283 99.875,222.000 102.636 C 215.122 106.230,213.837 107.933,201.600 129.677 C 191.191 148.172,189.993 150.000,188.288 150.000 C 187.670 150.000,181.474 145.998,171.306 139.033 C 152.298 126.011,152.702 126.243,149.000 126.262 C 138.701 126.315,134.139 139.282,142.140 145.759 C 144.039 147.295,144.019 147.373,143.172 141.800 C 142.157 135.123,142.777 132.822,146.146 130.767 C 149.167 128.925,149.373 129.032,171.800 144.045 C 178.840 148.758,185.354 152.948,186.275 153.356 C 190.805 155.364,193.560 152.651,200.573 139.276 C 215.302 111.182,217.488 108.261,225.600 105.829 C 230.283 104.424,233.582 104.306,275.200 104.050 L 316.600 103.795 313.641 102.311 C 307.950 99.459,293.997 98.916,244.400 99.618 M70.002 128.100 C 70.005 141.842,70.143 142.906,72.218 145.138 L 73.578 146.600 73.589 131.100 L 73.600 115.600 71.800 115.600 L 70.000 115.600 70.002 128.100 M231.786 256.800 L 231.800 367.800 232.697 370.000 C 233.190 371.210,234.053 372.740,234.614 373.400 L 235.633 374.600 235.419 365.000 C 235.190 354.771,235.005 343.704,234.398 304.200 C 234.189 290.560,233.919 274.360,233.799 268.200 C 233.680 262.040,233.410 246.290,233.200 233.200 C 232.727 203.734,231.989 158.436,231.864 151.200 C 231.813 148.230,231.778 195.750,231.786 256.800 M81.200 159.200 L 81.200 164.000 83.200 164.000 L 85.200 164.000 85.200 159.200 L 85.200 154.400 83.200 154.400 L 81.200 154.400 81.200 159.200 M53.800 201.761 C 45.116 204.514,41.809 212.188,48.452 214.171 C 55.635 216.316,61.864 214.908,66.900 210.000 C 70.234 206.752,70.249 206.952,66.497 204.684 C 61.097 201.419,57.494 200.590,53.800 201.761 M146.223 229.786 L 147.209 230.772 147.104 301.086 L 147.000 371.400 145.935 373.400 C 141.752 381.251,131.915 382.595,126.001 376.125 C 122.533 372.331,122.800 378.305,122.800 304.453 L 122.800 239.052 123.670 238.126 C 124.932 236.783,127.264 236.846,128.371 238.254 L 129.200 239.308 129.200 304.595 L 129.200 369.882 130.108 371.241 C 132.494 374.813,137.506 374.813,139.892 371.241 L 140.800 369.882 140.800 300.323 L 140.800 230.764 141.782 229.782 C 143.083 228.481,144.919 228.483,146.223 229.786 M10.618 304.582 C 11.158 305.122,11.600 305.842,11.600 306.182 C 11.600 307.131,10.530 306.915,10.204 305.900 C 9.930 305.045,9.906 305.040,9.724 305.800 C 9.165 308.138,6.400 307.848,6.400 305.451 C 6.400 303.432,8.944 302.908,10.618 304.582 M7.417 305.172 C 7.121 305.651,7.874 306.125,8.407 305.796 C 8.854 305.519,8.560 304.800,8.000 304.800 C 7.806 304.800,7.544 304.968,7.417 305.172 M11.120 308.480 C 12.483 309.843,11.265 311.680,9.000 311.680 C 7.314 311.680,6.400 311.030,6.400 309.831 C 6.400 308.539,7.165 308.000,9.000 308.000 C 9.902 308.000,10.856 308.216,11.120 308.480 M7.600 309.800 C 7.600 310.219,8.022 310.400,9.000 310.400 C 9.978 310.400,10.400 310.219,10.400 309.800 C 10.400 309.381,9.978 309.200,9.000 309.200 C 8.022 309.200,7.600 309.381,7.600 309.800 M10.618 313.382 C 11.158 313.922,11.600 314.642,11.600 314.982 C 11.600 315.931,10.530 315.715,10.204 314.700 C 9.930 313.845,9.906 313.840,9.724 314.600 C 9.175 316.895,6.424 316.546,6.406 314.180 C 6.392 312.230,8.976 311.740,10.618 313.382 M7.417 313.972 C 7.291 314.177,7.370 314.458,7.593 314.596 C 8.071 314.891,8.800 314.517,8.800 313.976 C 8.800 313.490,7.717 313.487,7.417 313.972 M7.598 317.989 L 7.817 318.920 8.300 317.860 C 8.821 316.716,10.260 316.420,11.120 317.280 C 11.824 317.984,11.735 320.000,11.000 320.000 C 10.622 320.000,10.400 319.619,10.400 318.967 C 10.400 317.714,9.461 317.851,9.272 319.131 C 9.143 320.007,8.298 320.243,7.033 319.757 C 6.259 319.460,6.117 316.639,6.889 316.896 C 7.158 316.986,7.477 317.478,7.598 317.989 M11.531 322.368 C 11.853 324.531,8.721 325.243,7.229 323.346 C 6.773 322.766,6.400 322.046,6.400 321.746 C 6.400 320.852,7.483 321.127,7.796 322.100 C 8.070 322.955,8.094 322.960,8.276 322.200 C 8.766 320.151,11.219 320.277,11.531 322.368 M9.467 322.267 C 9.006 322.727,9.175 323.200,9.800 323.200 C 10.130 323.200,10.400 322.930,10.400 322.600 C 10.400 321.975,9.927 321.806,9.467 322.267 M7.598 326.389 L 7.817 327.320 8.300 326.260 C 8.821 325.116,10.260 324.820,11.120 325.680 C 11.824 326.384,11.735 328.400,11.000 328.400 C 10.622 328.400,10.400 328.019,10.400 327.367 C 10.400 326.114,9.461 326.251,9.272 327.531 C 9.143 328.407,8.298 328.643,7.033 328.157 C 6.259 327.860,6.117 325.039,6.889 325.296 C 7.158 325.386,7.477 325.878,7.598 326.389 M11.597 330.300 C 11.599 330.575,11.330 330.800,11.000 330.800 C 10.600 330.800,10.400 331.200,10.400 332.000 C 10.400 333.456,10.382 333.458,8.171 332.162 C 5.808 330.777,5.729 329.600,8.000 329.600 C 8.880 329.600,9.600 329.437,9.600 329.238 C 9.600 329.038,10.049 329.083,10.597 329.338 C 11.145 329.592,11.595 330.025,11.597 330.300 M8.400 331.200 C 9.176 331.701,9.600 331.701,9.600 331.200 C 9.600 330.980,9.195 330.803,8.700 330.806 C 7.972 330.811,7.915 330.886,8.400 331.200 M11.120 334.080 C 12.483 335.443,11.265 337.280,9.000 337.280 C 7.314 337.280,6.400 336.630,6.400 335.431 C 6.400 334.139,7.165 333.600,9.000 333.600 C 9.902 333.600,10.856 333.816,11.120 334.080 M7.600 335.400 C 7.600 335.819,8.022 336.000,9.000 336.000 C 9.978 336.000,10.400 335.819,10.400 335.400 C 10.400 334.981,9.978 334.800,9.000 334.800 C 8.022 334.800,7.600 334.981,7.600 335.400 M11.400 339.767 C 11.400 340.664,11.187 341.404,10.900 341.500 C 10.572 341.609,10.400 341.242,10.400 340.433 C 10.400 339.046,9.787 338.781,9.400 340.000 C 9.065 341.055,8.565 341.014,8.190 339.900 C 7.898 339.032,7.881 339.039,7.717 340.100 C 7.464 341.734,6.400 341.518,6.400 339.833 C 6.400 338.247,6.699 338.079,9.400 338.149 L 11.400 338.200 11.400 339.767 M8.400 342.027 C 8.400 342.272,8.741 342.346,9.200 342.200 C 9.640 342.060,10.000 342.117,10.000 342.326 C 10.000 342.536,10.405 342.834,10.900 342.989 L 11.800 343.271 10.800 343.558 L 9.800 343.845 10.740 344.096 C 11.306 344.246,11.569 344.527,11.400 344.800 C 11.245 345.050,10.879 345.162,10.585 345.050 C 10.292 344.937,9.961 345.060,9.849 345.322 C 9.714 345.640,9.489 345.549,9.176 345.052 C 8.829 344.499,8.627 344.433,8.400 344.799 C 8.173 345.167,7.876 345.076,7.247 344.447 C 6.218 343.418,6.195 343.214,7.100 343.154 C 7.767 343.109,7.767 343.098,7.100 342.924 C 5.832 342.593,6.362 341.915,8.100 341.646 C 8.265 341.621,8.400 341.792,8.400 342.027 M13.200 348.600 C 13.200 349.093,12.489 349.200,9.200 349.200 C 5.911 349.200,5.200 349.093,5.200 348.600 C 5.200 348.107,5.911 348.000,9.200 348.000 C 12.489 348.000,13.200 348.107,13.200 348.600 M10.973 353.230 C 10.337 353.932,10.334 354.000,10.938 354.000 C 11.302 354.000,11.600 354.270,11.600 354.600 C 11.600 355.080,11.000 355.200,8.600 355.200 C 6.200 355.200,5.600 355.080,5.600 354.600 C 5.600 354.163,6.061 353.997,7.300 353.987 C 8.799 353.976,8.917 353.912,8.300 353.443 C 7.915 353.151,7.600 352.585,7.600 352.186 C 7.600 351.527,7.685 351.541,8.528 352.333 L 9.456 353.204 10.428 352.167 C 11.236 351.305,11.423 351.242,11.535 351.795 C 11.609 352.160,11.356 352.806,10.973 353.230 M8.800 356.843 C 8.800 357.333,9.082 357.600,9.600 357.600 C 10.133 357.600,10.400 357.333,10.400 356.800 C 10.400 356.356,10.667 356.000,11.000 356.000 C 12.011 356.000,11.723 357.901,10.600 358.637 C 9.674 359.244,9.526 359.244,8.600 358.637 C 7.450 357.883,7.097 355.432,8.200 355.855 C 8.530 355.982,8.800 356.426,8.800 356.843 M11.120 360.080 C 12.251 361.211,11.220 363.600,9.600 363.600 C 7.980 363.600,6.949 361.211,8.080 360.080 C 8.344 359.816,9.028 359.600,9.600 359.600 C 10.172 359.600,10.856 359.816,11.120 360.080 M8.800 361.333 C 8.800 361.627,8.914 361.980,9.053 362.119 C 9.430 362.496,10.860 361.621,10.588 361.180 C 10.231 360.603,8.800 360.726,8.800 361.333 M8.400 364.000 C 8.400 364.220,8.839 364.400,9.376 364.400 C 9.913 364.400,10.464 364.220,10.600 364.000 C 11.055 363.265,11.657 363.589,11.528 364.500 C 11.325 365.929,6.400 366.365,6.400 364.953 C 6.400 364.649,6.670 364.400,7.000 364.400 C 7.330 364.400,7.600 364.220,7.600 364.000 C 7.600 363.780,7.780 363.600,8.000 363.600 C 8.220 363.600,8.400 363.780,8.400 364.000 M11.400 368.212 C 11.400 369.074,11.183 369.806,10.900 369.900 C 10.572 370.009,10.400 369.642,10.400 368.833 C 10.400 367.446,9.787 367.181,9.400 368.400 C 8.692 370.631,6.000 370.144,6.000 367.786 C 6.000 365.904,7.190 365.821,7.224 367.700 C 7.245 368.870,7.295 368.924,7.724 368.235 C 9.420 365.511,11.400 365.499,11.400 368.212 M10.000 373.224 C 10.000 373.969,10.163 374.347,10.416 374.190 C 10.645 374.048,10.723 373.588,10.589 373.166 C 10.420 372.634,10.537 372.400,10.973 372.400 C 12.304 372.400,11.667 375.211,10.214 375.750 C 9.473 376.024,9.484 376.068,10.414 376.530 C 11.152 376.895,11.431 377.393,11.524 378.509 L 11.648 380.000 8.624 380.000 C 6.203 380.000,5.600 379.880,5.600 379.400 C 5.600 379.027,5.978 378.800,6.600 378.800 C 7.324 378.800,7.600 378.585,7.600 378.023 C 7.600 377.595,8.000 376.965,8.489 376.623 L 9.378 376.000 8.489 375.377 C 7.424 374.631,7.320 373.003,8.300 372.432 C 9.522 371.720,10.000 371.943,10.000 373.224 M8.655 378.200 C 8.483 378.649,8.720 378.800,9.600 378.800 C 10.480 378.800,10.717 378.649,10.545 378.200 C 10.418 377.870,9.993 377.600,9.600 377.600 C 9.207 377.600,8.782 377.870,8.655 378.200 M10.711 381.023 C 12.231 382.087,11.507 384.800,9.703 384.800 C 8.735 384.800,7.600 383.591,7.600 382.561 C 7.600 381.784,8.881 380.400,9.600 380.400 C 9.722 380.400,10.222 380.680,10.711 381.023 M8.598 382.403 C 8.281 382.917,9.404 383.361,10.225 383.046 C 11.027 382.738,10.585 382.000,9.600 382.000 C 9.186 382.000,8.735 382.181,8.598 382.403 M11.600 386.591 C 11.600 388.563,10.075 389.603,8.600 388.637 C 8.050 388.276,7.600 387.626,7.600 387.191 C 7.600 386.614,7.329 386.400,6.600 386.400 C 5.978 386.400,5.600 386.173,5.600 385.800 C 5.600 385.320,6.200 385.200,8.600 385.200 L 11.600 385.200 11.600 386.591 M8.655 387.000 C 8.782 387.330,9.226 387.600,9.643 387.600 C 10.059 387.600,10.400 387.330,10.400 387.000 C 10.400 386.629,10.024 386.400,9.413 386.400 C 8.699 386.400,8.489 386.567,8.655 387.000 M11.600 389.757 C 11.600 390.064,11.330 390.418,11.000 390.545 C 10.670 390.671,10.400 391.146,10.400 391.600 C 10.400 392.054,10.670 392.529,11.000 392.655 C 11.620 392.893,11.849 394.000,11.278 394.000 C 11.100 394.000,9.840 393.623,8.478 393.163 C 5.168 392.046,5.118 391.174,8.300 390.065 C 11.105 389.087,11.600 389.041,11.600 389.757 M8.000 391.600 C 8.000 391.820,8.270 392.000,8.600 392.000 C 8.930 392.000,9.200 391.820,9.200 391.600 C 9.200 391.380,8.930 391.200,8.600 391.200 C 8.270 391.200,8.000 391.380,8.000 391.600 " stroke="none" fill="#fbfbfb" fill-rule="evenodd"></path><path id="path3" d="M265.200 24.037 C 262.275 24.404,257.907 25.995,256.400 27.242 C 255.850 27.697,255.653 27.936,255.962 27.773 C 256.323 27.582,256.426 27.635,256.249 27.921 C 256.098 28.165,255.744 28.277,255.462 28.168 C 254.438 27.776,248.857 34.321,249.427 35.244 C 249.628 35.569,249.553 35.618,249.194 35.396 C 248.806 35.156,248.735 35.253,248.927 35.755 C 249.076 36.143,249.028 36.341,248.815 36.209 C 248.608 36.082,248.070 37.171,247.620 38.631 C 246.655 41.755,246.657 41.733,247.300 41.347 C 247.687 41.114,247.695 41.177,247.336 41.623 C 246.445 42.730,246.276 45.106,246.964 46.827 C 247.384 47.876,247.447 48.352,247.140 48.163 C 246.812 47.960,246.747 48.085,246.932 48.567 C 247.079 48.951,247.203 49.476,247.206 49.733 C 247.210 50.001,247.378 49.944,247.600 49.600 C 247.899 49.137,247.989 49.124,247.994 49.543 C 247.997 49.860,248.249 49.990,248.600 49.855 C 248.985 49.708,249.211 49.871,249.232 50.313 C 249.251 50.730,249.342 50.803,249.465 50.500 C 249.728 49.847,250.917 49.847,250.702 50.500 C 250.472 51.199,248.758 51.380,248.367 50.746 C 247.437 49.242,247.640 51.763,248.587 53.481 C 249.530 55.191,252.935 59.484,252.171 58.000 C 251.967 57.604,252.158 57.659,252.731 58.162 C 253.702 59.013,253.941 59.581,253.000 58.800 C 252.670 58.526,252.400 58.476,252.400 58.689 C 252.400 59.832,264.441 71.069,265.178 70.613 C 265.407 70.472,265.503 70.591,265.394 70.879 C 265.241 71.284,266.044 71.403,268.984 71.415 C 271.211 71.424,272.572 71.288,272.286 71.085 C 272.002 70.883,272.463 70.842,273.400 70.985 C 274.399 71.138,274.800 71.095,274.466 70.870 C 274.055 70.593,274.124 70.461,274.767 70.293 C 275.226 70.173,275.500 70.238,275.377 70.437 C 275.254 70.637,275.343 70.800,275.576 70.800 C 275.809 70.800,276.000 70.601,276.000 70.357 C 276.000 70.114,276.270 70.018,276.600 70.145 C 276.930 70.271,277.200 70.206,277.200 70.000 C 277.200 69.794,277.500 69.740,277.866 69.881 C 278.352 70.067,278.442 69.992,278.200 69.600 C 277.958 69.208,278.048 69.133,278.534 69.319 C 278.900 69.460,279.200 69.390,279.200 69.164 C 279.200 68.938,279.378 68.863,279.595 68.997 C 279.833 69.144,279.883 68.954,279.721 68.521 C 279.474 67.865,279.518 67.854,280.202 68.400 C 280.805 68.881,280.886 68.888,280.611 68.432 C 280.352 68.003,280.436 67.928,280.955 68.127 C 281.363 68.284,281.542 68.230,281.397 67.995 C 281.177 67.640,281.706 67.427,282.500 67.553 C 282.766 67.595,282.941 67.032,282.870 66.367 C 282.856 66.238,283.097 66.133,283.405 66.133 C 283.713 66.133,283.860 66.328,283.732 66.567 C 283.604 66.805,284.107 66.285,284.850 65.411 C 285.592 64.537,286.140 63.637,286.067 63.411 C 285.993 63.185,286.067 63.133,286.230 63.297 C 286.393 63.460,286.813 63.377,287.163 63.114 C 287.513 62.850,287.170 63.347,286.400 64.217 L 285.000 65.800 286.484 64.437 C 287.301 63.687,287.883 62.934,287.778 62.764 C 287.673 62.594,287.995 62.169,288.493 61.820 C 288.992 61.470,289.423 61.008,289.450 60.792 C 289.478 60.577,289.522 60.209,289.550 59.976 C 289.578 59.743,289.825 59.684,290.100 59.845 C 290.375 60.006,290.245 59.702,289.811 59.169 C 289.376 58.636,289.277 58.425,289.591 58.700 C 290.377 59.390,290.721 59.326,290.656 58.500 C 290.625 58.115,290.819 57.843,291.086 57.895 C 291.385 57.954,291.474 57.737,291.318 57.330 C 291.158 56.913,291.223 56.767,291.495 56.935 C 291.773 57.107,291.846 56.897,291.700 56.338 C 291.546 55.751,291.621 55.566,291.932 55.758 C 292.239 55.948,292.304 55.814,292.127 55.355 C 291.939 54.865,292.009 54.758,292.372 54.983 C 292.772 55.230,292.784 55.118,292.431 54.457 C 292.068 53.780,292.089 53.659,292.540 53.832 C 292.958 53.993,293.053 53.766,292.918 52.923 C 292.777 52.048,292.831 51.933,293.163 52.400 C 293.692 53.148,293.700 52.957,293.213 51.197 C 292.872 49.968,292.892 49.888,293.379 50.530 C 293.871 51.179,293.912 51.069,293.749 49.530 C 293.115 43.531,289.536 34.950,287.709 35.047 C 287.219 35.073,286.916 34.935,287.037 34.741 C 287.157 34.546,287.423 34.491,287.628 34.617 C 288.206 34.975,288.066 34.153,287.463 33.652 C 287.168 33.407,286.779 33.340,286.599 33.503 C 286.419 33.667,286.384 33.603,286.522 33.361 C 286.659 33.120,286.210 32.400,285.524 31.761 C 284.838 31.123,284.423 30.870,284.602 31.200 C 284.782 31.530,284.783 31.668,284.605 31.507 C 284.427 31.346,284.072 30.806,283.817 30.307 C 283.562 29.808,283.037 29.427,282.650 29.460 C 282.263 29.493,282.047 29.420,282.170 29.297 C 282.589 28.878,281.543 28.047,280.905 28.292 C 280.492 28.450,280.367 28.377,280.550 28.081 C 280.726 27.796,279.968 27.196,278.515 26.469 C 273.871 24.147,269.982 23.436,265.200 24.037 M271.402 24.797 C 271.267 25.015,271.360 25.510,271.609 25.897 C 272.036 26.562,272.049 26.562,271.843 25.900 C 271.694 25.422,271.843 25.198,272.313 25.194 C 272.903 25.189,272.915 25.133,272.400 24.800 C 271.669 24.327,272.300 24.327,273.400 24.800 C 274.025 25.068,274.056 25.150,273.543 25.172 C 272.698 25.208,272.361 26.107,272.651 27.556 C 272.781 28.207,272.690 28.821,272.440 28.975 C 272.198 29.125,272.000 29.009,272.000 28.718 C 272.000 28.426,271.640 27.516,271.199 26.694 C 270.759 25.872,270.534 25.197,270.699 25.194 C 270.865 25.191,270.730 25.013,270.400 24.800 C 269.917 24.488,269.981 24.411,270.724 24.406 C 271.234 24.403,271.537 24.578,271.402 24.797 M73.791 77.942 C 73.686 78.047,73.600 80.443,73.600 83.267 L 73.600 88.400 78.511 88.400 C 82.455 88.400,83.610 88.532,84.377 89.069 C 84.973 89.487,85.209 89.539,85.005 89.207 C 84.791 88.861,84.831 88.772,85.121 88.951 C 85.365 89.102,85.452 89.519,85.315 89.878 C 85.163 90.274,85.226 90.431,85.476 90.276 C 85.752 90.106,85.787 90.576,85.582 91.696 C 85.077 94.462,84.312 94.800,78.556 94.800 L 73.600 94.800 73.600 102.022 L 73.600 109.244 78.763 109.122 C 81.602 109.055,83.853 109.116,83.765 109.258 C 83.596 109.530,84.796 110.169,85.286 110.068 C 85.443 110.036,85.457 110.307,85.318 110.670 C 85.169 111.058,85.228 111.230,85.460 111.087 C 85.976 110.768,85.645 113.218,85.075 113.930 C 84.769 114.314,84.800 114.553,85.187 114.792 C 85.810 115.177,85.878 115.170,78.700 115.448 L 73.600 115.646 73.600 131.174 L 73.600 146.703 74.900 147.251 C 76.336 147.857,99.226 148.073,101.269 147.500 C 102.783 147.075,104.707 145.351,105.584 143.632 C 106.726 141.393,106.927 124.470,105.825 123.368 C 105.116 122.659,105.120 122.618,105.946 122.069 C 107.792 120.844,106.801 119.242,104.908 120.393 C 103.731 121.109,103.643 121.111,103.037 120.440 C 102.038 119.337,102.198 117.603,103.300 117.587 C 103.795 117.580,104.560 117.301,105.000 116.967 C 105.756 116.393,105.814 116.432,106.047 117.679 C 106.183 118.406,106.318 109.944,106.347 98.876 C 106.376 87.808,106.265 78.835,106.100 78.934 C 105.935 79.034,105.536 78.831,105.213 78.482 C 104.693 77.920,104.704 77.878,105.313 78.111 C 105.691 78.256,106.000 78.201,106.000 77.987 C 106.000 77.357,78.469 77.474,77.836 78.107 C 76.287 79.656,77.099 82.808,79.239 83.554 C 80.773 84.088,82.126 83.543,83.342 81.900 L 84.157 80.800 82.800 79.400 C 82.054 78.630,81.636 78.000,81.873 78.000 C 82.109 78.000,82.526 78.270,82.800 78.600 C 83.106 78.969,83.984 79.200,85.078 79.200 C 87.370 79.200,88.301 80.003,87.182 81.016 C 86.752 81.405,86.387 82.011,86.372 82.362 C 86.351 82.837,86.256 82.796,86.000 82.200 C 85.626 81.330,85.622 81.334,85.367 82.800 C 85.178 83.886,82.656 86.400,81.756 86.400 C 81.450 86.400,81.200 86.580,81.200 86.800 C 81.200 87.374,80.111 87.294,79.833 86.700 C 79.647 86.300,79.553 86.300,79.367 86.700 C 79.238 86.975,78.653 87.232,78.067 87.272 C 77.480 87.312,78.350 87.463,80.000 87.609 L 83.000 87.873 79.405 87.836 C 76.130 87.803,75.798 87.729,75.689 87.000 C 75.569 86.203,75.571 86.203,76.196 86.992 C 76.808 87.766,76.821 87.761,76.712 86.792 C 76.609 85.884,76.734 85.800,78.190 85.800 C 80.835 85.800,80.486 84.751,77.317 83.175 C 75.823 82.432,74.465 81.864,74.300 81.912 C 74.135 81.960,74.026 81.055,74.057 79.900 C 74.109 77.957,74.132 77.911,74.357 79.289 C 74.540 80.412,74.734 80.695,75.143 80.439 C 75.521 80.203,75.551 80.017,75.243 79.826 C 74.999 79.676,74.814 79.248,74.832 78.876 C 74.851 78.460,74.941 78.392,75.065 78.700 C 75.176 78.975,75.657 79.179,76.133 79.154 C 76.810 79.117,76.846 79.067,76.300 78.924 C 75.242 78.648,75.460 78.076,76.700 77.875 C 77.305 77.777,76.941 77.708,75.891 77.723 C 74.842 77.738,73.897 77.837,73.791 77.942 M100.600 78.267 C 95.810 78.552,86.891 78.574,87.061 78.300 C 87.163 78.135,90.702 78.033,94.924 78.074 C 99.146 78.115,101.700 78.202,100.600 78.267 M80.768 80.166 C 81.635 81.089,81.642 81.149,80.932 81.529 C 79.873 82.096,78.638 81.141,78.991 80.029 C 79.330 78.959,79.658 78.984,80.768 80.166 M74.919 84.769 C 74.744 84.901,74.465 85.172,74.300 85.371 C 74.135 85.570,74.000 85.231,74.000 84.618 C 74.000 83.656,74.086 83.573,74.619 84.016 C 74.959 84.298,75.094 84.637,74.919 84.769 M80.600 84.800 C 80.736 85.020,81.117 85.200,81.447 85.200 C 81.777 85.200,81.936 85.020,81.800 84.800 C 81.664 84.580,81.283 84.400,80.953 84.400 C 80.623 84.400,80.464 84.580,80.600 84.800 M86.198 94.019 C 86.141 94.690,85.996 95.337,85.876 95.458 C 85.708 95.625,85.786 93.418,85.965 92.900 C 86.144 92.385,86.281 93.044,86.198 94.019 M74.298 105.500 C 74.225 107.425,74.165 105.850,74.165 102.000 C 74.165 98.150,74.225 96.575,74.298 98.500 C 74.371 100.425,74.371 103.575,74.298 105.500 M75.105 116.275 C 74.462 116.443,74.401 117.604,74.300 131.528 L 74.190 146.600 74.095 131.300 L 74.000 116.000 74.900 116.046 C 75.570 116.081,75.622 116.139,75.105 116.275 M101.104 118.986 C 101.344 118.557,101.668 118.335,101.824 118.491 C 101.980 118.647,101.804 119.239,101.433 119.806 C 100.732 120.876,100.896 122.400,101.713 122.400 C 103.250 122.400,106.000 126.175,106.000 128.285 C 106.000 129.448,105.830 130.400,105.623 130.400 C 105.415 130.400,105.266 129.472,105.292 128.338 C 105.364 125.176,101.825 123.032,99.829 125.029 C 98.088 126.769,99.705 130.788,102.154 130.806 C 103.800 130.818,104.167 131.411,103.139 132.397 C 102.205 133.294,102.205 133.296,103.100 132.835 C 103.959 132.393,104.166 131.973,104.037 130.930 C 104.005 130.672,104.164 130.346,104.389 130.207 C 104.615 130.067,104.800 130.244,104.800 130.600 C 104.800 130.956,104.980 131.136,105.200 131.000 C 106.032 130.486,105.555 131.726,104.500 132.819 C 102.676 134.710,102.092 135.480,101.811 136.366 C 101.663 136.831,101.396 137.121,101.217 137.010 C 101.037 136.899,100.668 137.077,100.396 137.404 C 99.756 138.176,99.159 138.173,99.455 137.400 C 99.582 137.070,99.531 136.803,99.343 136.806 C 98.839 136.815,97.730 137.586,98.200 137.600 C 98.420 137.607,98.330 137.787,98.000 138.000 C 97.488 138.331,97.503 138.389,98.103 138.394 C 98.694 138.399,98.635 138.592,97.737 139.600 C 96.507 140.980,96.139 141.078,95.855 140.100 C 95.687 139.522,95.655 139.540,95.672 140.200 C 95.711 141.754,95.592 142.000,94.800 142.000 C 94.360 142.000,94.000 142.201,94.000 142.447 C 94.000 142.701,93.645 142.800,93.176 142.678 C 92.656 142.542,92.265 142.685,92.120 143.065 C 91.938 143.538,91.821 143.557,91.571 143.153 C 91.098 142.387,91.509 142.000,92.795 142.000 C 94.046 142.000,95.359 140.981,94.954 140.325 C 94.785 140.052,94.606 140.067,94.419 140.369 C 94.244 140.653,93.958 140.425,93.654 139.759 C 92.962 138.240,94.014 137.091,95.793 137.425 C 96.872 137.628,98.617 136.704,97.957 136.280 C 97.871 136.224,96.225 135.396,94.300 134.439 C 92.375 133.482,90.800 132.452,90.800 132.150 C 90.800 131.847,90.609 131.600,90.376 131.600 C 90.143 131.600,90.064 131.780,90.200 132.000 C 90.336 132.220,90.257 132.400,90.024 132.400 C 89.791 132.400,89.600 132.209,89.600 131.976 C 89.600 131.743,89.408 131.672,89.173 131.817 C 88.938 131.962,88.838 132.321,88.950 132.615 C 89.063 132.908,88.943 133.219,88.683 133.306 C 88.257 133.448,89.180 135.714,91.412 140.007 C 92.274 141.666,91.051 143.108,89.823 141.880 C 89.172 141.229,88.047 139.076,87.860 138.121 C 87.782 137.725,87.555 137.001,87.355 136.513 C 86.815 135.193,87.158 132.000,87.840 132.000 C 88.148 132.000,88.400 131.820,88.400 131.600 C 88.400 131.380,88.632 131.200,88.915 131.200 C 89.198 131.200,90.053 130.667,90.815 130.016 C 92.442 128.626,92.687 128.566,92.916 129.500 C 93.011 129.885,93.012 129.600,92.920 128.867 C 92.783 127.787,92.978 127.317,93.940 126.397 C 94.593 125.773,95.024 125.158,94.897 125.031 C 94.771 124.904,94.967 124.800,95.333 124.800 C 95.700 124.800,96.000 124.620,96.000 124.400 C 96.000 124.180,96.363 124.000,96.806 124.000 C 97.290 124.000,97.919 123.482,98.382 122.700 C 98.806 121.985,99.343 121.183,99.576 120.917 C 100.131 120.285,100.118 119.600,99.551 119.600 C 99.253 119.600,99.280 119.385,99.632 118.961 C 100.114 118.381,100.185 118.388,100.415 119.043 C 100.654 119.724,100.693 119.721,101.104 118.986 M96.087 125.262 C 96.186 125.558,96.587 125.862,96.979 125.938 C 97.435 126.027,97.628 125.882,97.513 125.538 C 97.414 125.242,97.013 124.938,96.621 124.862 C 96.165 124.773,95.972 124.918,96.087 125.262 M94.472 126.603 C 93.468 127.758,93.404 128.000,94.104 128.000 C 95.142 128.000,95.614 129.450,94.985 130.711 C 93.312 134.064,97.655 136.829,100.426 134.175 C 101.992 132.674,101.930 132.367,99.618 130.178 C 98.527 129.145,97.222 127.694,96.718 126.953 C 95.617 125.337,95.578 125.331,94.472 126.603 M103.076 126.900 C 103.694 127.728,103.452 128.593,102.565 128.719 C 101.569 128.862,100.617 127.855,100.943 127.005 C 101.224 126.273,102.558 126.207,103.076 126.900 M98.334 131.730 C 99.250 132.705,99.131 133.200,97.982 133.200 C 97.079 133.200,96.250 132.167,96.543 131.405 C 96.865 130.565,97.317 130.647,98.334 131.730 M87.600 134.924 C 87.600 135.211,87.843 135.779,88.140 136.185 C 88.627 136.852,88.662 136.801,88.494 135.662 C 88.316 134.445,87.600 133.854,87.600 134.924 M92.397 135.589 C 92.846 135.874,92.880 136.080,92.534 136.426 C 92.188 136.772,91.963 136.678,91.623 136.043 C 91.141 135.143,91.427 134.976,92.397 135.589 M94.476 147.499 C 91.548 147.568,86.868 147.567,84.076 147.499 C 81.284 147.430,83.680 147.374,89.400 147.374 C 95.120 147.375,97.404 147.431,94.476 147.499 M85.200 159.200 L 85.200 164.000 91.200 164.000 L 97.200 164.000 97.200 159.200 L 97.200 154.400 91.200 154.400 L 85.200 154.400 85.200 159.200 M85.896 161.500 C 85.816 162.765,85.751 161.730,85.751 159.200 C 85.751 156.670,85.816 155.635,85.896 156.900 C 85.975 158.165,85.975 160.235,85.896 161.500 M93.700 155.096 C 92.325 155.174,90.075 155.174,88.700 155.096 C 87.325 155.018,88.450 154.954,91.200 154.954 C 93.950 154.954,95.075 155.018,93.700 155.096 " stroke="none" fill="#fb8c83" fill-rule="evenodd"></path><path id="path4" d="M285.600 26.125 C 285.600 26.194,286.185 26.779,286.900 27.425 L 288.200 28.600 287.025 27.300 C 285.930 26.088,285.600 25.816,285.600 26.125 M97.500 36.700 C 102.175 36.764,109.825 36.764,114.500 36.700 C 119.175 36.636,115.350 36.583,106.000 36.583 C 96.650 36.583,92.825 36.636,97.500 36.700 M100.326 42.700 C 104.576 42.764,111.416 42.764,115.526 42.699 C 119.637 42.634,116.160 42.581,107.800 42.581 C 99.440 42.582,96.077 42.635,100.326 42.700 M267.300 71.887 C 267.905 71.978,268.895 71.978,269.500 71.887 C 270.105 71.795,269.610 71.720,268.400 71.720 C 267.190 71.720,266.695 71.795,267.300 71.887 M74.267 77.867 C 73.898 78.235,73.929 82.021,74.300 81.912 C 74.465 81.864,75.823 82.432,77.317 83.175 C 80.486 84.751,80.835 85.800,78.190 85.800 C 76.734 85.800,76.609 85.884,76.712 86.792 C 76.821 87.761,76.808 87.766,76.196 86.992 C 75.571 86.203,75.569 86.203,75.689 87.000 C 75.798 87.729,76.130 87.803,79.405 87.836 L 83.000 87.873 80.000 87.609 C 78.350 87.463,77.480 87.312,78.067 87.272 C 78.653 87.232,79.238 86.975,79.367 86.700 C 79.553 86.300,79.647 86.300,79.833 86.700 C 80.111 87.294,81.200 87.374,81.200 86.800 C 81.200 86.580,81.450 86.400,81.756 86.400 C 82.656 86.400,85.178 83.886,85.367 82.800 C 85.622 81.334,85.626 81.330,86.000 82.200 C 86.256 82.796,86.351 82.837,86.372 82.362 C 86.387 82.011,86.752 81.405,87.182 81.016 C 88.301 80.003,87.370 79.200,85.078 79.200 C 83.984 79.200,83.106 78.969,82.800 78.600 C 82.526 78.270,82.109 78.000,81.873 78.000 C 81.636 78.000,82.054 78.630,82.800 79.400 L 84.157 80.800 83.342 81.900 C 81.582 84.279,78.611 84.358,77.437 82.057 C 76.877 80.961,77.024 78.400,77.645 78.400 C 77.840 78.400,78.000 78.251,78.000 78.069 C 78.000 77.887,77.460 77.818,76.800 77.915 C 75.474 78.109,75.212 78.640,76.300 78.924 C 76.846 79.067,76.810 79.117,76.133 79.154 C 75.657 79.179,75.176 78.975,75.065 78.700 C 74.931 78.368,74.853 78.408,74.832 78.820 C 74.814 79.161,74.992 79.632,75.227 79.867 C 75.529 80.169,75.459 80.369,74.985 80.551 C 74.414 80.770,74.338 80.571,74.468 79.204 C 74.552 78.322,74.601 77.600,74.577 77.600 C 74.553 77.600,74.413 77.720,74.267 77.867 M267.305 77.887 C 267.914 77.979,268.814 77.977,269.305 77.882 C 269.797 77.787,269.300 77.711,268.200 77.714 C 267.100 77.717,266.697 77.795,267.305 77.887 M87.061 78.300 C 86.959 78.465,89.513 78.552,92.737 78.493 C 102.264 78.319,103.132 78.153,94.924 78.074 C 90.702 78.033,87.163 78.135,87.061 78.300 M105.308 78.583 C 105.579 78.876,105.935 79.034,106.100 78.934 C 106.658 78.596,106.404 78.171,105.608 78.111 C 104.968 78.062,104.910 78.153,105.308 78.583 M78.991 80.029 C 78.638 81.141,79.873 82.096,80.932 81.529 C 81.642 81.149,81.635 81.089,80.768 80.166 C 79.658 78.984,79.330 78.959,78.991 80.029 M106.347 99.100 C 106.318 110.045,106.183 118.406,106.047 117.679 C 105.814 116.432,105.756 116.393,105.000 116.967 C 104.560 117.301,103.795 117.580,103.300 117.587 C 102.198 117.603,102.038 119.337,103.037 120.440 C 103.643 121.111,103.731 121.109,104.908 120.393 C 105.588 119.979,106.291 119.733,106.472 119.844 C 106.652 119.956,106.800 110.857,106.800 99.624 C 106.800 88.391,106.710 79.200,106.600 79.200 C 106.490 79.200,106.376 88.155,106.347 99.100 M74.000 84.618 C 74.000 85.231,74.135 85.570,74.300 85.371 C 74.465 85.172,74.744 84.901,74.919 84.769 C 75.094 84.637,74.959 84.298,74.619 84.016 C 74.086 83.573,74.000 83.656,74.000 84.618 M81.800 84.800 C 81.936 85.020,81.777 85.200,81.447 85.200 C 81.117 85.200,80.736 85.020,80.600 84.800 C 80.464 84.580,80.623 84.400,80.953 84.400 C 81.283 84.400,81.664 84.580,81.800 84.800 M84.423 89.428 C 84.680 89.738,85.062 89.885,85.272 89.756 C 85.738 89.468,85.392 89.075,84.566 88.954 C 84.084 88.883,84.054 88.983,84.423 89.428 M85.356 90.571 C 85.235 90.885,85.204 91.560,85.286 92.071 C 85.395 92.754,85.488 92.604,85.637 91.500 C 85.847 89.947,85.736 89.581,85.356 90.571 M85.965 92.900 C 85.786 93.418,85.708 95.625,85.876 95.458 C 86.128 95.205,86.378 92.800,86.151 92.800 C 86.068 92.800,85.984 92.845,85.965 92.900 M84.452 93.737 C 84.207 94.032,84.081 94.347,84.171 94.437 C 84.262 94.527,81.875 94.582,78.868 94.561 L 73.400 94.521 78.800 94.761 C 84.244 95.002,84.879 94.905,85.041 93.804 C 85.150 93.060,85.026 93.046,84.452 93.737 M74.165 102.000 C 74.165 105.850,74.225 107.425,74.298 105.500 C 74.371 103.575,74.371 100.425,74.298 98.500 C 74.225 96.575,74.165 98.150,74.165 102.000 M75.900 115.496 C 77.275 115.574,79.525 115.574,80.900 115.496 C 82.275 115.418,81.150 115.354,78.400 115.354 C 75.650 115.354,74.525 115.418,75.900 115.496 M74.095 131.300 L 74.190 146.600 74.300 131.528 C 74.401 117.604,74.462 116.443,75.105 116.275 C 75.622 116.139,75.570 116.081,74.900 116.046 L 74.000 116.000 74.095 131.300 M99.632 118.961 C 99.280 119.385,99.253 119.600,99.551 119.600 C 100.118 119.600,100.131 120.285,99.576 120.917 C 99.343 121.183,98.806 121.985,98.382 122.700 C 97.919 123.482,97.290 124.000,96.806 124.000 C 96.363 124.000,96.000 124.180,96.000 124.400 C 96.000 124.620,95.700 124.800,95.333 124.800 C 94.967 124.800,94.771 124.904,94.897 125.031 C 95.024 125.158,94.593 125.773,93.940 126.397 C 92.978 127.317,92.783 127.787,92.920 128.867 C 93.012 129.600,93.011 129.885,92.916 129.500 C 92.687 128.566,92.442 128.626,90.815 130.016 C 90.053 130.667,89.198 131.200,88.915 131.200 C 88.632 131.200,88.400 131.380,88.400 131.600 C 88.400 131.820,88.148 132.000,87.840 132.000 C 87.158 132.000,86.815 135.193,87.355 136.513 C 87.555 137.001,87.782 137.725,87.860 138.121 C 88.047 139.076,89.172 141.229,89.823 141.880 C 91.051 143.108,92.274 141.666,91.412 140.007 C 89.180 135.714,88.257 133.448,88.683 133.306 C 88.943 133.219,89.063 132.908,88.950 132.615 C 88.838 132.321,88.938 131.962,89.173 131.817 C 89.408 131.672,89.600 131.743,89.600 131.976 C 89.600 132.209,89.791 132.400,90.024 132.400 C 90.257 132.400,90.336 132.220,90.200 132.000 C 90.064 131.780,90.143 131.600,90.376 131.600 C 90.609 131.600,90.800 131.847,90.800 132.150 C 90.800 132.452,92.375 133.482,94.300 134.439 C 96.225 135.396,97.871 136.224,97.957 136.280 C 98.617 136.704,96.872 137.628,95.793 137.425 C 94.014 137.091,92.962 138.240,93.654 139.759 C 93.958 140.425,94.244 140.653,94.419 140.369 C 94.606 140.067,94.785 140.052,94.954 140.325 C 95.359 140.981,94.046 142.000,92.795 142.000 C 91.509 142.000,91.098 142.387,91.571 143.153 C 91.821 143.557,91.938 143.538,92.120 143.065 C 92.265 142.685,92.656 142.542,93.176 142.678 C 93.645 142.800,94.000 142.701,94.000 142.447 C 94.000 142.201,94.360 142.000,94.800 142.000 C 95.592 142.000,95.711 141.754,95.672 140.200 C 95.655 139.540,95.687 139.522,95.855 140.100 C 96.139 141.078,96.507 140.980,97.737 139.600 C 98.635 138.592,98.694 138.399,98.103 138.394 C 97.503 138.389,97.488 138.331,98.000 138.000 C 98.330 137.787,98.420 137.607,98.200 137.600 C 97.730 137.586,98.839 136.815,99.343 136.806 C 99.531 136.803,99.582 137.070,99.455 137.400 C 99.159 138.173,99.756 138.176,100.396 137.404 C 100.668 137.077,101.037 136.899,101.217 137.010 C 101.396 137.121,101.663 136.831,101.811 136.366 C 102.092 135.480,102.676 134.710,104.500 132.819 C 105.555 131.726,106.032 130.486,105.200 131.000 C 104.980 131.136,104.800 130.956,104.800 130.600 C 104.800 130.244,104.615 130.067,104.389 130.207 C 104.164 130.346,104.005 130.672,104.037 130.930 C 104.166 131.973,103.959 132.393,103.100 132.835 C 102.205 133.296,102.205 133.294,103.139 132.397 C 104.167 131.411,103.800 130.818,102.154 130.806 C 99.705 130.788,98.088 126.769,99.829 125.029 C 101.825 123.032,105.364 125.176,105.292 128.338 C 105.266 129.472,105.415 130.400,105.623 130.400 C 105.830 130.400,106.000 129.448,106.000 128.285 C 106.000 126.175,103.250 122.400,101.713 122.400 C 100.896 122.400,100.732 120.876,101.433 119.806 C 101.804 119.239,101.980 118.647,101.824 118.491 C 101.668 118.335,101.344 118.557,101.104 118.986 C 100.693 119.721,100.654 119.724,100.415 119.043 C 100.185 118.388,100.114 118.381,99.632 118.961 M105.853 122.112 C 105.192 122.595,105.199 122.677,105.977 123.573 L 106.800 124.522 106.800 123.061 C 106.800 121.409,106.806 121.415,105.853 122.112 M97.513 125.538 C 97.628 125.882,97.435 126.027,96.979 125.938 C 96.587 125.862,96.186 125.558,96.087 125.262 C 95.972 124.918,96.165 124.773,96.621 124.862 C 97.013 124.938,97.414 125.242,97.513 125.538 M96.718 126.953 C 97.222 127.694,98.527 129.145,99.618 130.178 C 101.930 132.367,101.992 132.674,100.426 134.175 C 97.655 136.829,93.312 134.064,94.985 130.711 C 95.614 129.450,95.142 128.000,94.104 128.000 C 93.404 128.000,93.468 127.758,94.472 126.603 C 95.578 125.331,95.617 125.337,96.718 126.953 M100.943 127.005 C 100.617 127.855,101.569 128.862,102.565 128.719 C 104.036 128.509,103.466 126.400,101.938 126.400 C 101.519 126.400,101.070 126.672,100.943 127.005 M106.568 134.200 C 106.568 138.600,106.626 140.455,106.698 138.321 C 106.770 136.188,106.770 132.588,106.699 130.321 C 106.627 128.055,106.568 129.800,106.568 134.200 M96.543 131.405 C 96.250 132.167,97.079 133.200,97.982 133.200 C 99.131 133.200,99.250 132.705,98.334 131.730 C 97.317 130.647,96.865 130.565,96.543 131.405 M88.494 135.662 C 88.662 136.801,88.627 136.852,88.140 136.185 C 87.525 135.345,87.427 134.400,87.955 134.400 C 88.150 134.400,88.393 134.968,88.494 135.662 M91.623 136.043 C 91.963 136.678,92.188 136.772,92.534 136.426 C 92.880 136.080,92.846 135.874,92.397 135.589 C 91.427 134.976,91.141 135.143,91.623 136.043 M104.497 144.599 C 105.003 145.159,103.970 146.073,103.383 145.586 C 103.074 145.330,102.779 145.310,102.640 145.535 C 102.037 146.510,103.493 146.765,104.365 145.837 C 105.061 145.096,105.142 144.816,104.730 144.578 C 104.439 144.410,104.333 144.419,104.497 144.599 M80.800 147.464 C 84.661 147.721,101.207 147.785,100.329 147.540 C 99.818 147.397,94.810 147.294,89.200 147.312 C 83.590 147.330,79.810 147.398,80.800 147.464 M82.505 154.287 C 83.114 154.379,84.014 154.377,84.505 154.282 C 84.997 154.187,84.500 154.111,83.400 154.114 C 82.300 154.117,81.897 154.195,82.505 154.287 M97.286 159.090 L 97.200 163.979 91.100 164.101 L 85.000 164.222 91.113 164.311 C 98.278 164.415,97.672 164.940,97.499 158.776 L 97.371 154.200 97.286 159.090 M85.751 159.200 C 85.751 161.730,85.816 162.765,85.896 161.500 C 85.975 160.235,85.975 158.165,85.896 156.900 C 85.816 155.635,85.751 156.670,85.751 159.200 M88.700 155.096 C 90.075 155.174,92.325 155.174,93.700 155.096 C 95.075 155.018,93.950 154.954,91.200 154.954 C 88.450 154.954,87.325 155.018,88.700 155.096 M189.300 181.876 C 189.685 181.976,190.315 181.976,190.700 181.876 C 191.085 181.775,190.770 181.693,190.000 181.693 C 189.230 181.693,188.915 181.775,189.300 181.876 M361.301 217.400 C 361.305 218.280,361.387 218.593,361.483 218.095 C 361.579 217.598,361.575 216.878,361.475 216.495 C 361.375 216.113,361.296 216.520,361.301 217.400 M7.700 329.876 C 8.085 329.976,8.715 329.976,9.100 329.876 C 9.485 329.775,9.170 329.693,8.400 329.693 C 7.630 329.693,7.315 329.775,7.700 329.876 M6.400 385.446 C 8.788 385.746,11.510 385.776,11.339 385.500 C 11.236 385.335,9.858 385.227,8.276 385.260 C 6.694 385.293,5.850 385.376,6.400 385.446 " stroke="none" fill="#f7827b" fill-rule="evenodd"></path></g></svg>